<svg width="16" height="17" viewBox="0 0 16 17" fill="none" xmlns="http://www.w3.org/2000/svg">
<mask id="mask0_320_849" style="mask-type:alpha" maskUnits="userSpaceOnUse" x="0" y="0" width="16" height="17">
<rect y="0.5" width="16" height="16" fill="current"/>
</mask>
<g mask="url(#mask0_320_849)">
<path d="M7.33301 11.8335H8.66634V7.8335H7.33301V11.8335ZM7.99967 6.50016C8.18856 6.50016 8.3469 6.43627 8.47467 6.3085C8.60245 6.18072 8.66634 6.02238 8.66634 5.8335C8.66634 5.64461 8.60245 5.48627 8.47467 5.3585C8.3469 5.23072 8.18856 5.16683 7.99967 5.16683C7.81079 5.16683 7.65245 5.23072 7.52467 5.3585C7.3969 5.48627 7.33301 5.64461 7.33301 5.8335C7.33301 6.02238 7.3969 6.18072 7.52467 6.3085C7.65245 6.43627 7.81079 6.50016 7.99967 6.50016ZM7.99967 15.1668C7.07745 15.1668 6.21079 14.9918 5.39967 14.6418C4.58856 14.2918 3.88301 13.8168 3.28301 13.2168C2.68301 12.6168 2.20801 11.9113 1.85801 11.1002C1.50801 10.2891 1.33301 9.42238 1.33301 8.50016C1.33301 7.57794 1.50801 6.71127 1.85801 5.90016C2.20801 5.08905 2.68301 4.3835 3.28301 3.7835C3.88301 3.1835 4.58856 2.7085 5.39967 2.3585C6.21079 2.0085 7.07745 1.8335 7.99967 1.8335C8.9219 1.8335 9.78856 2.0085 10.5997 2.3585C11.4108 2.7085 12.1163 3.1835 12.7163 3.7835C13.3163 4.3835 13.7913 5.08905 14.1413 5.90016C14.4913 6.71127 14.6663 7.57794 14.6663 8.50016C14.6663 9.42238 14.4913 10.2891 14.1413 11.1002C13.7913 11.9113 13.3163 12.6168 12.7163 13.2168C12.1163 13.8168 11.4108 14.2918 10.5997 14.6418C9.78856 14.9918 8.9219 15.1668 7.99967 15.1668ZM7.99967 13.8335C9.48856 13.8335 10.7497 13.3168 11.783 12.2835C12.8163 11.2502 13.333 9.98905 13.333 8.50016C13.333 7.01127 12.8163 5.75016 11.783 4.71683C10.7497 3.6835 9.48856 3.16683 7.99967 3.16683C6.51079 3.16683 5.24967 3.6835 4.21634 4.71683C3.18301 5.75016 2.66634 7.01127 2.66634 8.50016C2.66634 9.98905 3.18301 11.2502 4.21634 12.2835C5.24967 13.3168 6.51079 13.8335 7.99967 13.8335Z" fill="current"/>
</g>
</svg>
