<svg width="25" height="24" viewBox="0 0 25 24" fill="current" xmlns="http://www.w3.org/2000/svg">
<mask id="mask0_105_6313" style="mask-type:alpha" maskUnits="userSpaceOnUse" x="0" y="0" width="25" height="24">
<rect x="0.666656" width="24" height="24" fill="current"/>
</mask>
<g mask="url(#mask0_105_6313)">
<path d="M6.66666 22V17.7C5.71666 16.8333 4.97916 15.8208 4.45416 14.6625C3.92916 13.5042 3.66666 12.2833 3.66666 11C3.66666 8.5 4.54166 6.375 6.29166 4.625C8.04166 2.875 10.1667 2 12.6667 2C14.75 2 16.5958 2.6125 18.2042 3.8375C19.8125 5.0625 20.8583 6.65833 21.3417 8.625L22.6417 13.75C22.725 14.0667 22.6667 14.3542 22.4667 14.6125C22.2667 14.8708 22 15 21.6667 15H19.6667V18C19.6667 18.55 19.4708 19.0208 19.0792 19.4125C18.6875 19.8042 18.2167 20 17.6667 20H15.6667V22H13.6667V18H17.6667V13H20.3667L19.4167 9.125C19.0333 7.60833 18.2167 6.375 16.9667 5.425C15.7167 4.475 14.2833 4 12.6667 4C10.7333 4 9.08332 4.675 7.71666 6.025C6.34999 7.375 5.66666 9.01667 5.66666 10.95C5.66666 11.95 5.87082 12.9 6.27916 13.8C6.68749 14.7 7.26666 15.5 8.01666 16.2L8.66666 16.8V22H6.66666ZM12.6667 16C12.95 16 13.1875 15.9042 13.3792 15.7125C13.5708 15.5208 13.6667 15.2833 13.6667 15C13.6667 14.7167 13.5708 14.4792 13.3792 14.2875C13.1875 14.0958 12.95 14 12.6667 14C12.3833 14 12.1458 14.0958 11.9542 14.2875C11.7625 14.4792 11.6667 14.7167 11.6667 15C11.6667 15.2833 11.7625 15.5208 11.9542 15.7125C12.1458 15.9042 12.3833 16 12.6667 16ZM11.9167 12.8H13.4417C13.4417 12.3833 13.4958 12.0458 13.6042 11.7875C13.7125 11.5292 13.9333 11.2167 14.2667 10.85C14.5667 10.5167 14.8583 10.1792 15.1417 9.8375C15.425 9.49583 15.5667 9.05 15.5667 8.5C15.5667 7.8 15.2958 7.20833 14.7542 6.725C14.2125 6.24167 13.5417 6 12.7417 6C12.075 6 11.4708 6.19167 10.9292 6.575C10.3875 6.95833 10.0083 7.45833 9.79166 8.075L11.1667 8.65C11.2833 8.28333 11.4875 7.9875 11.7792 7.7625C12.0708 7.5375 12.3917 7.425 12.7417 7.425C13.1083 7.425 13.4125 7.525 13.6542 7.725C13.8958 7.925 14.0167 8.18333 14.0167 8.5C14.0167 8.85 13.9125 9.1625 13.7042 9.4375C13.4958 9.7125 13.25 9.99167 12.9667 10.275C12.6333 10.625 12.375 10.975 12.1917 11.325C12.0083 11.675 11.9167 12.1667 11.9167 12.8Z" fill="current"/>
</g>
</svg>
