<svg width="24" height="24" viewBox="0 0 24 24" fill="none" xmlns="http://www.w3.org/2000/svg">
<path d="M6.20179 14.6383C6.20143 15.0538 6.07792 15.4598 5.84685 15.805C5.61579 16.1503 5.28755 16.4193 4.90363 16.578C4.51971 16.7368 4.09735 16.7781 3.68994 16.6968C3.28252 16.6156 2.90834 16.4153 2.61471 16.1215C2.32107 15.8276 2.12116 15.4532 2.04024 15.0457C1.95932 14.6383 2.00103 14.2159 2.16009 13.8321C2.31916 13.4484 2.58843 13.1204 2.93389 12.8896C3.27934 12.6588 3.68545 12.5356 4.10089 12.5356H6.20179V14.6383Z" fill="black"/>
<path d="M7.26074 14.6385C7.26074 14.0813 7.48209 13.5469 7.87608 13.1529C8.27007 12.7589 8.80444 12.5376 9.36164 12.5376C9.91883 12.5376 10.4532 12.7589 10.8472 13.1529C11.2412 13.5469 11.4625 14.0813 11.4625 14.6385V19.8992C11.4625 20.4564 11.2412 20.9908 10.8472 21.3848C10.4532 21.7788 9.91883 22.0001 9.36164 22.0001C8.80444 22.0001 8.27007 21.7788 7.87608 21.3848C7.48209 20.9908 7.26074 20.4564 7.26074 19.8992V14.6385Z" fill="black"/>
<path d="M9.36156 6.20179C8.94612 6.20143 8.54011 6.07792 8.19485 5.84685C7.8496 5.61579 7.5806 5.28755 7.42186 4.90363C7.26312 4.51971 7.22177 4.09735 7.30304 3.68994C7.3843 3.28252 7.58453 2.90834 7.87842 2.61471C8.17231 2.32107 8.54665 2.12116 8.95414 2.04024C9.36162 1.95932 9.78395 2.00103 10.1677 2.16009C10.5515 2.31916 10.8795 2.58843 11.1103 2.93389C11.3411 3.27934 11.4642 3.68545 11.4642 4.10089V6.20179H9.36156Z" fill="black"/>
<path d="M9.36161 7.26074C9.9188 7.26074 10.4532 7.48209 10.8472 7.87608C11.2412 8.27007 11.4625 8.80444 11.4625 9.36164C11.4625 9.91883 11.2412 10.4532 10.8472 10.8472C10.4532 11.2412 9.9188 11.4625 9.36161 11.4625H4.10089C3.5437 11.4625 3.00933 11.2412 2.61534 10.8472C2.22134 10.4532 2 9.91883 2 9.36164C2 8.80444 2.22134 8.27007 2.61534 7.87608C3.00933 7.48209 3.5437 7.26074 4.10089 7.26074H9.36161Z" fill="black"/>
<path d="M17.7981 9.3618C17.7984 8.94636 17.922 8.54035 18.153 8.1951C18.3841 7.84984 18.7123 7.58084 19.0962 7.42211C19.4802 7.26337 19.9025 7.22202 20.3099 7.30328C20.7174 7.38455 21.0915 7.58478 21.3852 7.87866C21.6788 8.17255 21.8787 8.5469 21.9596 8.95438C22.0406 9.36187 21.9989 9.7842 21.8398 10.168C21.6807 10.5518 21.4114 10.8798 21.066 11.1105C20.7205 11.3413 20.3144 11.4645 19.899 11.4645H17.7981V9.3618Z" fill="black"/>
<path d="M16.7394 9.36161C16.7394 9.9188 16.518 10.4532 16.124 10.8472C15.7301 11.2412 15.1957 11.4625 14.6385 11.4625C14.0813 11.4625 13.5469 11.2412 13.1529 10.8472C12.7589 10.4532 12.5376 9.9188 12.5376 9.36161V4.10089C12.5376 3.5437 12.7589 3.00933 13.1529 2.61534C13.5469 2.22134 14.0813 2 14.6385 2C15.1957 2 15.7301 2.22134 16.124 2.61534C16.518 3.00933 16.7394 3.5437 16.7394 4.10089V9.36161Z" fill="black"/>
<path d="M14.6383 17.7983C15.0538 17.7987 15.4598 17.9222 15.805 18.1533C16.1503 18.3843 16.4193 18.7126 16.578 19.0965C16.7368 19.4804 16.7781 19.9028 16.6968 20.3102C16.6156 20.7176 16.4153 21.0918 16.1215 21.3854C15.8276 21.6791 15.4532 21.879 15.0457 21.9599C14.6383 22.0408 14.2159 21.9991 13.8321 21.84C13.4484 21.681 13.1204 21.4117 12.8896 21.0662C12.6588 20.7208 12.5356 20.3147 12.5356 19.8992V17.7983H14.6383Z" fill="black"/>
<path d="M14.6385 16.7394C14.0813 16.7394 13.5469 16.518 13.1529 16.124C12.7589 15.7301 12.5376 15.1957 12.5376 14.6385C12.5376 14.0813 12.7589 13.5469 13.1529 13.1529C13.5469 12.7589 14.0813 12.5376 14.6385 12.5376H19.8992C20.4564 12.5376 20.9908 12.7589 21.3848 13.1529C21.7788 13.5469 22.0001 14.0813 22.0001 14.6385C22.0001 15.1957 21.7788 15.7301 21.3848 16.124C20.9908 16.518 20.4564 16.7394 19.8992 16.7394H14.6385Z" fill="black"/>
</svg>
