<svg width="16" height="16" viewBox="0 0 16 16" fill="none" xmlns="http://www.w3.org/2000/svg">
<mask id="mask0_320_565" style="mask-type:alpha" maskUnits="userSpaceOnUse" x="0" y="0" width="16" height="16">
<rect width="16" height="16" fill="current"/>
</mask>
<g mask="url(#mask0_320_565)">
<path d="M4.00033 2H10.667V10.6667L6.00033 15.3333L5.16699 14.5C5.08921 14.4222 5.02533 14.3167 4.97533 14.1833C4.92533 14.05 4.90033 13.9222 4.90033 13.8V13.5667L5.63366 10.6667H2.00033C1.64477 10.6667 1.33366 10.5333 1.06699 10.2667C0.800326 10 0.666992 9.68889 0.666992 9.33333V8C0.666992 7.92222 0.675326 7.83889 0.691992 7.75C0.708659 7.66111 0.733659 7.57778 0.766992 7.5L2.76699 2.8C2.86699 2.57778 3.03366 2.38889 3.26699 2.23333C3.50033 2.07778 3.74477 2 4.00033 2ZM12.0003 10.6667V2H14.667V10.6667H12.0003Z" fill="current"/>
</g>
</svg>
