<svg width="25" height="24" viewBox="0 0 25 24" fill="current" xmlns="http://www.w3.org/2000/svg">
<g clip-path="url(#clip0_105_6408)">
<path d="M20.0992 5.724L16.8077 4.1405C16.4247 3.9555 15.9692 4.0335 15.6697 4.333L9.36516 10.0855L6.61766 8.002C6.36266 7.8065 6.00316 7.8225 5.76616 8.0385L4.88616 8.8405C4.59466 9.1035 4.59466 9.562 4.88366 9.825L7.26666 11.9995L4.88366 14.174C4.59466 14.437 4.59466 14.8955 4.88616 15.1585L5.76616 15.9605C6.00566 16.1765 6.36266 16.1925 6.61766 15.997L9.36516 13.911L15.6727 19.666C15.9697 19.9655 16.4252 20.0435 16.8082 19.8585L20.1027 18.2725C20.4492 18.106 20.6677 17.757 20.6677 17.3715V6.624C20.6677 6.241 20.4462 5.8895 20.1002 5.723L20.0992 5.724ZM16.6692 15.633L11.8827 12L16.6692 8.367V15.633Z" fill="current"/>
</g>
<defs>
<clipPath id="clip0_105_6408">
<rect width="16" height="16" fill="current" transform="translate(4.66666 4)"/>
</clipPath>
</defs>
</svg>
