<svg width="25" height="24" viewBox="0 0 25 24" fill="current" xmlns="http://www.w3.org/2000/svg">
<mask id="mask0_105_6399" style="mask-type:alpha" maskUnits="userSpaceOnUse" x="0" y="0" width="25" height="24">
<rect x="0.666656" width="24" height="24" fill="current"/>
</mask>
<g mask="url(#mask0_105_6399)">
<path d="M12.6667 22C11.3 22 10.0083 21.7375 8.79166 21.2125C7.57499 20.6875 6.51249 19.9708 5.60416 19.0625C4.69582 18.1542 3.97916 17.0917 3.45416 15.875C2.92916 14.6583 2.66666 13.3667 2.66666 12C2.66666 10.6167 2.92916 9.32083 3.45416 8.1125C3.97916 6.90417 4.69582 5.84583 5.60416 4.9375C6.51249 4.02917 7.57499 3.3125 8.79166 2.7875C10.0083 2.2625 11.3 2 12.6667 2C14.05 2 15.3458 2.2625 16.5542 2.7875C17.7625 3.3125 18.8208 4.02917 19.7292 4.9375C20.6375 5.84583 21.3542 6.90417 21.8792 8.1125C22.4042 9.32083 22.6667 10.6167 22.6667 12C22.6667 13.3667 22.4042 14.6583 21.8792 15.875C21.3542 17.0917 20.6375 18.1542 19.7292 19.0625C18.8208 19.9708 17.7625 20.6875 16.5542 21.2125C15.3458 21.7375 14.05 22 12.6667 22ZM12.6667 19.95C13.1 19.35 13.475 18.725 13.7917 18.075C14.1083 17.425 14.3667 16.7333 14.5667 16H10.7667C10.9667 16.7333 11.225 17.425 11.5417 18.075C11.8583 18.725 12.2333 19.35 12.6667 19.95ZM10.0667 19.55C9.76666 19 9.50416 18.4292 9.27916 17.8375C9.05416 17.2458 8.86666 16.6333 8.71666 16H5.76666C6.24999 16.8333 6.85416 17.5583 7.57916 18.175C8.30416 18.7917 9.13332 19.25 10.0667 19.55ZM15.2667 19.55C16.2 19.25 17.0292 18.7917 17.7542 18.175C18.4792 17.5583 19.0833 16.8333 19.5667 16H16.6167C16.4667 16.6333 16.2792 17.2458 16.0542 17.8375C15.8292 18.4292 15.5667 19 15.2667 19.55ZM4.91666 14H8.31666C8.26666 13.6667 8.22916 13.3375 8.20416 13.0125C8.17916 12.6875 8.16666 12.35 8.16666 12C8.16666 11.65 8.17916 11.3125 8.20416 10.9875C8.22916 10.6625 8.26666 10.3333 8.31666 10H4.91666C4.83332 10.3333 4.77082 10.6625 4.72916 10.9875C4.68749 11.3125 4.66666 11.65 4.66666 12C4.66666 12.35 4.68749 12.6875 4.72916 13.0125C4.77082 13.3375 4.83332 13.6667 4.91666 14ZM10.3167 14H15.0167C15.0667 13.6667 15.1042 13.3375 15.1292 13.0125C15.1542 12.6875 15.1667 12.35 15.1667 12C15.1667 11.65 15.1542 11.3125 15.1292 10.9875C15.1042 10.6625 15.0667 10.3333 15.0167 10H10.3167C10.2667 10.3333 10.2292 10.6625 10.2042 10.9875C10.1792 11.3125 10.1667 11.65 10.1667 12C10.1667 12.35 10.1792 12.6875 10.2042 13.0125C10.2292 13.3375 10.2667 13.6667 10.3167 14ZM17.0167 14H20.4167C20.5 13.6667 20.5625 13.3375 20.6042 13.0125C20.6458 12.6875 20.6667 12.35 20.6667 12C20.6667 11.65 20.6458 11.3125 20.6042 10.9875C20.5625 10.6625 20.5 10.3333 20.4167 10H17.0167C17.0667 10.3333 17.1042 10.6625 17.1292 10.9875C17.1542 11.3125 17.1667 11.65 17.1667 12C17.1667 12.35 17.1542 12.6875 17.1292 13.0125C17.1042 13.3375 17.0667 13.6667 17.0167 14ZM16.6167 8H19.5667C19.0833 7.16667 18.4792 6.44167 17.7542 5.825C17.0292 5.20833 16.2 4.75 15.2667 4.45C15.5667 5 15.8292 5.57083 16.0542 6.1625C16.2792 6.75417 16.4667 7.36667 16.6167 8ZM10.7667 8H14.5667C14.3667 7.26667 14.1083 6.575 13.7917 5.925C13.475 5.275 13.1 4.65 12.6667 4.05C12.2333 4.65 11.8583 5.275 11.5417 5.925C11.225 6.575 10.9667 7.26667 10.7667 8ZM5.76666 8H8.71666C8.86666 7.36667 9.05416 6.75417 9.27916 6.1625C9.50416 5.57083 9.76666 5 10.0667 4.45C9.13332 4.75 8.30416 5.20833 7.57916 5.825C6.85416 6.44167 6.24999 7.16667 5.76666 8Z" fill="current"/>
</g>
</svg>
