<svg width="24" height="24" viewBox="0 0 24 24" fill="none" xmlns="http://www.w3.org/2000/svg">
<path d="M11.2381 19.5775V8.42425L2 19.5775H11.2381Z" fill="black"/>
<path d="M9.88518 7.68802C10.7514 6.82179 11.2381 5.64692 11.2381 4.42188H2C2 5.64692 2.48665 6.82179 3.35288 7.68802C4.21912 8.55426 5.39399 9.04091 6.61903 9.04091C7.84408 9.04091 9.01895 8.55426 9.88518 7.68802Z" fill="black"/>
<path d="M14.1128 16.3124C13.2466 17.1786 12.76 18.3535 12.76 19.5785H21.998C21.998 18.3535 21.5114 17.1786 20.6451 16.3124C19.7789 15.4461 18.604 14.9595 17.379 14.9595C16.1539 14.9595 14.9791 15.4461 14.1128 16.3124Z" fill="black"/>
<path d="M12.76 4.42188V15.5752L22 4.42188H12.76Z" fill="black"/>
</svg>
