<svg width="456" height="577" viewBox="0 0 456 577" fill="none" xmlns="http://www.w3.org/2000/svg">
<g clip-path="url(#clip0_400_703)">
<rect width="456" height="577" rx="8" fill="white"/>
<path d="M0 8C0 3.58172 3.58172 0 8 0H135V577H0V8Z" fill="#EAEAEA"/>
<path d="M39.7585 29V20.2727H41.6037V27.4787H45.3452V29H39.7585ZM48.3995 29.1236C47.9819 29.1236 47.6097 29.0511 47.283 28.9062C46.9563 28.7585 46.6978 28.5412 46.5075 28.2543C46.32 27.9645 46.2262 27.6037 46.2262 27.1719C46.2262 26.8082 46.293 26.5028 46.4265 26.2557C46.56 26.0085 46.7418 25.8097 46.9719 25.6591C47.2021 25.5085 47.4634 25.3949 47.756 25.3182C48.0515 25.2415 48.3612 25.1875 48.685 25.1562C49.0657 25.1165 49.3725 25.0795 49.6055 25.0455C49.8384 25.0085 50.0075 24.9545 50.1126 24.8835C50.2177 24.8125 50.2702 24.7074 50.2702 24.5682V24.5426C50.2702 24.2727 50.185 24.0639 50.0146 23.9162C49.8469 23.7685 49.6083 23.6946 49.2987 23.6946C48.9719 23.6946 48.712 23.767 48.5188 23.9119C48.3256 24.054 48.1978 24.233 48.1353 24.4489L46.4563 24.3125C46.5415 23.9148 46.7092 23.571 46.9592 23.2812C47.2092 22.9886 47.5316 22.7642 47.9265 22.608C48.3242 22.4489 48.7844 22.3693 49.3072 22.3693C49.6708 22.3693 50.0188 22.4119 50.3512 22.4972C50.6864 22.5824 50.9833 22.7145 51.2418 22.8935C51.5032 23.0724 51.7092 23.3026 51.8597 23.5838C52.0103 23.8622 52.0856 24.196 52.0856 24.5852V29H50.364V28.0923H50.3129C50.2077 28.2969 50.0671 28.4773 49.891 28.6335C49.7148 28.7869 49.5032 28.9077 49.256 28.9957C49.0089 29.081 48.7234 29.1236 48.3995 29.1236ZM48.9194 27.8707C49.1864 27.8707 49.4222 27.8182 49.6268 27.7131C49.8313 27.6051 49.9918 27.4602 50.1083 27.2784C50.2248 27.0966 50.283 26.8906 50.283 26.6605V25.9659C50.2262 26.0028 50.1481 26.0369 50.0487 26.0682C49.9521 26.0966 49.8427 26.1236 49.7205 26.1491C49.5984 26.1719 49.4762 26.1932 49.354 26.2131C49.2319 26.2301 49.1211 26.2457 49.0217 26.2599C48.8086 26.2912 48.6225 26.3409 48.4634 26.4091C48.3043 26.4773 48.1808 26.5696 48.0927 26.6861C48.0046 26.7997 47.9606 26.9418 47.9606 27.1122C47.9606 27.3594 48.0501 27.5483 48.229 27.679C48.4109 27.8068 48.641 27.8707 48.9194 27.8707ZM54.3803 31.4545C54.1502 31.4545 53.9343 31.4361 53.7326 31.3991C53.5337 31.3651 53.369 31.321 53.2383 31.267L53.6474 29.9119C53.8604 29.9773 54.0522 30.0128 54.2227 30.0185C54.396 30.0241 54.5451 29.9844 54.6701 29.8991C54.7979 29.8139 54.9016 29.669 54.9812 29.4645L55.0877 29.1875L52.7397 22.4545H54.6488L56.0039 27.2614H56.0721L57.44 22.4545H59.3619L56.8178 29.7074C56.6957 30.0597 56.5295 30.3665 56.3192 30.6278C56.1119 30.892 55.8491 31.0952 55.5309 31.2372C55.2127 31.3821 54.8292 31.4545 54.3803 31.4545ZM63.0629 29.1278C62.3896 29.1278 61.81 28.9915 61.3242 28.7188C60.8413 28.4432 60.4691 28.054 60.2077 27.5511C59.9464 27.0455 59.8157 26.4474 59.8157 25.7571C59.8157 25.0838 59.9464 24.4929 60.2077 23.9844C60.4691 23.4759 60.837 23.0795 61.3114 22.7955C61.7887 22.5114 62.3484 22.3693 62.9904 22.3693C63.4222 22.3693 63.8242 22.4389 64.1964 22.5781C64.5714 22.7145 64.8981 22.9205 65.1765 23.196C65.4577 23.4716 65.6765 23.8182 65.8327 24.2358C65.989 24.6506 66.0671 25.1364 66.0671 25.6932V26.1918H60.5401V25.0668H64.3583C64.3583 24.8054 64.3015 24.5739 64.1879 24.3722C64.0742 24.1705 63.9165 24.0128 63.7148 23.8991C63.516 23.7827 63.2844 23.7244 63.0202 23.7244C62.7447 23.7244 62.5004 23.7884 62.2873 23.9162C62.0771 24.0412 61.9123 24.2102 61.793 24.4233C61.6737 24.6335 61.6126 24.8679 61.6097 25.1264V26.196C61.6097 26.5199 61.6694 26.7997 61.7887 27.0355C61.9109 27.2713 62.0827 27.4531 62.3043 27.581C62.5259 27.7088 62.7887 27.7727 63.0927 27.7727C63.2944 27.7727 63.479 27.7443 63.6467 27.6875C63.8143 27.6307 63.9577 27.5455 64.0771 27.4318C64.1964 27.3182 64.2873 27.179 64.3498 27.0142L66.0288 27.125C65.9435 27.5284 65.7688 27.8807 65.5046 28.1818C65.2433 28.4801 64.9052 28.7131 64.4904 28.8807C64.0785 29.0455 63.6026 29.1278 63.0629 29.1278ZM67.2518 29V22.4545H69.0117V23.5966H69.0799C69.1992 23.1903 69.3995 22.8835 69.6808 22.6761C69.962 22.4659 70.2859 22.3608 70.6523 22.3608C70.7433 22.3608 70.8413 22.3665 70.9464 22.3778C71.0515 22.3892 71.1438 22.4048 71.2234 22.4247V24.0355C71.1381 24.0099 71.0202 23.9872 70.8697 23.9673C70.7191 23.9474 70.5813 23.9375 70.4563 23.9375C70.1893 23.9375 69.9506 23.9957 69.7404 24.1122C69.533 24.2259 69.3683 24.3849 69.2461 24.5895C69.1268 24.794 69.0671 25.0298 69.0671 25.2969V29H67.2518Z" fill="#111111"/>
<g clip-path="url(#clip1_400_703)">
<mask id="mask0_400_703" style="mask-type:luminance" maskUnits="userSpaceOnUse" x="18" y="17" width="16" height="16">
<path d="M34 17.3135H18V32.686H34V17.3135Z" fill="white"/>
</mask>
<g mask="url(#mask0_400_703)">
<path fill-rule="evenodd" clip-rule="evenodd" d="M19.4142 24.1455L18 25.0415L26 30.11L34 25.0415L32.5858 24.1455L26 28.318L19.4142 24.1455Z" fill="#7B65FF" fill-opacity="0.65"/>
<path fill-rule="evenodd" clip-rule="evenodd" d="M19.4142 26.7217L18 27.6177L26 32.6862L34 27.6177L32.5858 26.7217L26 30.8942L19.4142 26.7217Z" fill="#7B65FF" fill-opacity="0.4"/>
<path fill-rule="evenodd" clip-rule="evenodd" d="M31.538 22.382L26 18.8733L20.462 22.382L26 25.8907L31.538 22.382ZM26 17.3135L18 22.382L26 27.4506L34 22.382L26 17.3135Z" fill="#7B65FF"/>
</g>
</g>
<rect x="18" y="53" width="64" height="14" rx="2" fill="#D9D9D9"/>
<rect x="18" y="97" width="57" height="14" rx="2" fill="#D9D9D9"/>
<rect x="18" y="119" width="61" height="14" rx="2" fill="#D9D9D9"/>
<rect x="18" y="75" width="53" height="14" rx="2" fill="#B0B0B0"/>
<rect x="158" y="136" width="280" height="154" rx="4" fill="#494949"/>
<rect x="169" y="255" width="56" height="23" rx="2" fill="#3B96FF"/>
<rect x="236" y="235" width="56" height="43" rx="2" fill="#3B96FF"/>
<rect x="303" y="209" width="56" height="69" rx="2" fill="#3B96FF"/>
<rect x="370" y="159" width="56" height="119" rx="2" fill="#3B96FF"/>
<rect x="158" y="303" width="280" height="154" rx="4" fill="#494949"/>
<rect x="169" y="422" width="56" height="23" rx="2" fill="#3BFFCB"/>
<rect x="236" y="402" width="56" height="43" rx="2" fill="#3BFFCB"/>
<rect x="303" y="376" width="56" height="69" rx="2" fill="#3BFFCB"/>
<rect x="370" y="326" width="56" height="119" rx="2" fill="#3BFFCB"/>
<rect x="158" y="470" width="280" height="154" rx="4" fill="#494949"/>
<rect x="236" y="569" width="56" height="43" rx="2" fill="#FF3BFF"/>
<rect x="303" y="543" width="56" height="69" rx="2" fill="#FF3BFF"/>
<rect x="370" y="493" width="56" height="119" rx="2" fill="#FF3BFF"/>
<path d="M161.771 32H158.476L163.497 17.4545H167.46L172.474 32H169.179L165.536 20.7784H165.422L161.771 32ZM161.565 26.2827H169.349V28.6832H161.565V26.2827ZM177.194 25.6932V32H174.168V21.0909H177.052V23.0156H177.18C177.421 22.3812 177.826 21.8793 178.394 21.5099C178.962 21.1359 179.651 20.9489 180.461 20.9489C181.219 20.9489 181.879 21.1146 182.442 21.446C183.006 21.7775 183.444 22.2509 183.756 22.8665C184.069 23.4773 184.225 24.2064 184.225 25.054V32H181.2V25.5938C181.204 24.9261 181.034 24.4053 180.688 24.0312C180.343 23.6525 179.867 23.4631 179.261 23.4631C178.853 23.4631 178.494 23.5507 178.181 23.7259C177.873 23.901 177.632 24.1567 177.457 24.4929C177.286 24.8243 177.199 25.2244 177.194 25.6932ZM189.721 32.206C189.025 32.206 188.404 32.0852 187.86 31.8438C187.315 31.5975 186.884 31.2353 186.567 30.7571C186.255 30.2741 186.098 29.6728 186.098 28.9531C186.098 28.3471 186.21 27.8381 186.432 27.4261C186.655 27.0142 186.958 26.6828 187.341 26.4318C187.725 26.1809 188.16 25.9915 188.648 25.8636C189.141 25.7358 189.657 25.6458 190.196 25.5938C190.831 25.5275 191.342 25.4659 191.73 25.4091C192.119 25.3475 192.4 25.2576 192.576 25.1392C192.751 25.0208 192.838 24.8456 192.838 24.6136V24.571C192.838 24.1212 192.696 23.7732 192.412 23.527C192.133 23.2808 191.735 23.1577 191.219 23.1577C190.675 23.1577 190.241 23.2784 189.919 23.5199C189.597 23.7566 189.384 24.0549 189.28 24.4148L186.482 24.1875C186.624 23.5246 186.903 22.9517 187.32 22.4688C187.737 21.9811 188.274 21.607 188.932 21.3466C189.595 21.0814 190.362 20.9489 191.233 20.9489C191.839 20.9489 192.419 21.0199 192.973 21.1619C193.532 21.304 194.027 21.5241 194.458 21.8224C194.893 22.1207 195.237 22.5043 195.488 22.973C195.739 23.437 195.864 23.9934 195.864 24.642V32H192.995V30.4872H192.909C192.734 30.8281 192.5 31.1288 192.206 31.3892C191.913 31.6449 191.56 31.8461 191.148 31.9929C190.736 32.1349 190.26 32.206 189.721 32.206ZM190.587 30.1179C191.032 30.1179 191.425 30.0303 191.766 29.8551C192.107 29.6752 192.374 29.4337 192.569 29.1307C192.763 28.8277 192.86 28.4844 192.86 28.1009V26.9432C192.765 27.0047 192.635 27.0616 192.469 27.1136C192.308 27.161 192.126 27.206 191.922 27.2486C191.719 27.2865 191.515 27.322 191.311 27.3551C191.108 27.3835 190.923 27.4096 190.757 27.4332C190.402 27.4853 190.092 27.5682 189.827 27.6818C189.562 27.7955 189.356 27.9493 189.209 28.1435C189.062 28.3329 188.989 28.5696 188.989 28.8537C188.989 29.2656 189.138 29.5805 189.436 29.7983C189.739 30.0114 190.123 30.1179 190.587 30.1179ZM201.237 17.4545V32H198.211V17.4545H201.237ZM205.528 36.0909C205.145 36.0909 204.785 36.0601 204.449 35.9986C204.117 35.9418 203.843 35.8684 203.625 35.7784L204.307 33.5199C204.662 33.6288 204.982 33.688 205.266 33.6974C205.554 33.7069 205.803 33.6406 206.011 33.4986C206.224 33.3565 206.397 33.1151 206.53 32.7741L206.707 32.3125L202.794 21.0909H205.976L208.234 29.1023H208.348L210.628 21.0909H213.831L209.591 33.179C209.387 33.7661 209.11 34.2775 208.76 34.7131C208.414 35.1534 207.976 35.492 207.446 35.7287C206.916 35.9702 206.277 36.0909 205.528 36.0909ZM221.182 21.0909V23.3636H214.612V21.0909H221.182ZM216.104 18.4773H219.129V28.6477C219.129 28.9271 219.172 29.1449 219.257 29.3011C219.342 29.4527 219.461 29.5592 219.612 29.6207C219.768 29.6823 219.948 29.7131 220.152 29.7131C220.294 29.7131 220.436 29.7012 220.578 29.6776C220.72 29.6491 220.829 29.6278 220.905 29.6136L221.381 31.8651C221.229 31.9124 221.016 31.9669 220.741 32.0284C220.467 32.0947 220.133 32.1349 219.74 32.1491C219.011 32.1776 218.372 32.0805 217.822 31.858C217.278 31.6354 216.854 31.2898 216.551 30.821C216.248 30.3523 216.099 29.7604 216.104 29.0455V18.4773ZM223.153 32V21.0909H226.178V32H223.153ZM224.673 19.6847C224.223 19.6847 223.837 19.5355 223.515 19.2372C223.198 18.9342 223.039 18.572 223.039 18.1506C223.039 17.7339 223.198 17.3764 223.515 17.0781C223.837 16.7751 224.223 16.6236 224.673 16.6236C225.122 16.6236 225.506 16.7751 225.823 17.0781C226.145 17.3764 226.306 17.7339 226.306 18.1506C226.306 18.572 226.145 18.9342 225.823 19.2372C225.506 19.5355 225.122 19.6847 224.673 19.6847ZM233.531 32.2131C232.413 32.2131 231.452 31.9763 230.647 31.5028C229.847 31.0246 229.232 30.3617 228.801 29.5142C228.375 28.6667 228.162 27.6913 228.162 26.5881C228.162 25.4706 228.377 24.4905 228.808 23.6477C229.243 22.8002 229.861 22.1397 230.662 21.6662C231.462 21.188 232.413 20.9489 233.517 20.9489C234.468 20.9489 235.302 21.1217 236.017 21.4673C236.732 21.813 237.297 22.2983 237.714 22.9233C238.131 23.5483 238.36 24.2822 238.403 25.125H235.548C235.467 24.5805 235.254 24.1425 234.909 23.8111C234.568 23.4749 234.12 23.3068 233.566 23.3068C233.098 23.3068 232.688 23.4347 232.338 23.6903C231.992 23.9413 231.722 24.3082 231.528 24.7912C231.334 25.2741 231.237 25.8589 231.237 26.5455C231.237 27.2415 231.332 27.8333 231.521 28.321C231.715 28.8087 231.987 29.1804 232.338 29.4361C232.688 29.6918 233.098 29.8196 233.566 29.8196C233.912 29.8196 234.222 29.7486 234.497 29.6065C234.776 29.4645 235.006 29.2585 235.186 28.9886C235.37 28.714 235.491 28.3849 235.548 28.0014H238.403C238.356 28.8348 238.128 29.5687 237.721 30.2031C237.319 30.8329 236.762 31.3253 236.052 31.6804C235.342 32.0355 234.502 32.2131 233.531 32.2131ZM249.417 24.2017L246.647 24.3722C246.6 24.1354 246.498 23.9223 246.342 23.733C246.185 23.5388 245.979 23.3849 245.724 23.2713C245.473 23.1529 245.172 23.0938 244.822 23.0938C244.353 23.0938 243.958 23.1932 243.636 23.392C243.314 23.5862 243.153 23.8466 243.153 24.1733C243.153 24.4337 243.257 24.6539 243.465 24.8338C243.674 25.0137 244.031 25.1581 244.538 25.267L246.512 25.6648C247.573 25.8826 248.363 26.233 248.884 26.7159C249.405 27.1989 249.665 27.8333 249.665 28.6193C249.665 29.3343 249.455 29.9616 249.033 30.5014C248.617 31.0412 248.044 31.4626 247.315 31.7656C246.59 32.0639 245.754 32.2131 244.808 32.2131C243.363 32.2131 242.213 31.9124 241.356 31.3111C240.504 30.705 240.004 29.8812 239.857 28.8395L242.833 28.6832C242.923 29.1236 243.141 29.4598 243.487 29.6918C243.832 29.919 244.275 30.0327 244.815 30.0327C245.345 30.0327 245.771 29.9309 246.093 29.7273C246.42 29.5189 246.585 29.2514 246.59 28.9247C246.585 28.6501 246.469 28.4252 246.242 28.25C246.015 28.0701 245.665 27.9328 245.191 27.8381L243.302 27.4616C242.237 27.2486 241.443 26.8793 240.923 26.3537C240.406 25.8281 240.148 25.1581 240.148 24.3438C240.148 23.643 240.338 23.0393 240.717 22.5327C241.1 22.026 241.638 21.6354 242.329 21.3608C243.025 21.0862 243.839 20.9489 244.772 20.9489C246.15 20.9489 247.234 21.2401 248.025 21.8224C248.82 22.4048 249.284 23.1979 249.417 24.2017Z" fill="#111111"/>
<rect x="158" y="62" width="134" height="61" rx="4" fill="#494949"/>
<mask id="mask1_400_703" style="mask-type:alpha" maskUnits="userSpaceOnUse" x="190" y="71" width="24" height="25">
<rect x="190" y="71.5" width="24" height="24" fill="#D9D9D9"/>
</mask>
<g mask="url(#mask1_400_703)">
<path d="M201 91.5V79.325L195.4 84.925L194 83.5L202 75.5L210 83.5L208.6 84.925L203 79.325V91.5H201Z" fill="#A3FFA3"/>
</g>
<path d="M219.179 90.5V88.2841L224.357 83.4901C224.797 83.0639 225.166 82.6804 225.464 82.3395C225.768 81.9986 225.997 81.6648 226.153 81.3381C226.31 81.0066 226.388 80.6491 226.388 80.2656C226.388 79.8395 226.291 79.4725 226.097 79.1648C225.902 78.8523 225.637 78.6132 225.301 78.4474C224.965 78.277 224.584 78.1918 224.158 78.1918C223.713 78.1918 223.324 78.2817 222.993 78.4616C222.661 78.6416 222.406 78.8996 222.226 79.2358C222.046 79.572 221.956 79.9721 221.956 80.4361H219.037C219.037 79.4844 219.252 78.6581 219.683 77.9574C220.114 77.2566 220.718 76.7145 221.494 76.331C222.271 75.9474 223.166 75.7557 224.179 75.7557C225.221 75.7557 226.127 75.9403 226.899 76.3097C227.676 76.6742 228.279 77.1809 228.71 77.8295C229.141 78.4782 229.357 79.2216 229.357 80.0597C229.357 80.6089 229.248 81.151 229.03 81.6861C228.817 82.2211 228.436 82.8153 227.886 83.4688C227.337 84.1174 226.563 84.8963 225.564 85.8054L223.44 87.8864V87.9858H229.548V90.5H219.179ZM232.352 90.5L238.382 78.5682V78.4688H231.358V75.9545H241.564V78.5043L235.527 90.5H232.352ZM251.633 87.7727V87.0057C251.633 86.4233 251.756 85.8883 252.002 85.4006C252.253 84.9081 252.615 84.5152 253.089 84.2216C253.567 83.9233 254.149 83.7741 254.836 83.7741C255.532 83.7741 256.117 83.9209 256.59 84.2145C257.068 84.508 257.428 84.901 257.67 85.3935C257.916 85.8812 258.039 86.4186 258.039 87.0057V87.7727C258.039 88.3551 257.916 88.8925 257.67 89.3849C257.424 89.8726 257.061 90.2633 256.583 90.5568C256.105 90.8551 255.522 91.0043 254.836 91.0043C254.14 91.0043 253.555 90.8551 253.082 90.5568C252.608 90.2633 252.248 89.8726 252.002 89.3849C251.756 88.8925 251.633 88.3551 251.633 87.7727ZM253.7 87.0057V87.7727C253.7 88.1089 253.78 88.4261 253.941 88.7244C254.107 89.0227 254.405 89.1719 254.836 89.1719C255.267 89.1719 255.56 89.0251 255.717 88.7315C255.878 88.438 255.958 88.1184 255.958 87.7727V87.0057C255.958 86.66 255.882 86.3381 255.731 86.0398C255.579 85.7415 255.281 85.5923 254.836 85.5923C254.41 85.5923 254.114 85.7415 253.948 86.0398C253.782 86.3381 253.7 86.66 253.7 87.0057ZM244.168 79.4489V78.6818C244.168 78.0947 244.294 77.5573 244.545 77.0696C244.796 76.5772 245.158 76.1842 245.631 75.8906C246.11 75.5971 246.687 75.4503 247.364 75.4503C248.065 75.4503 248.652 75.5971 249.126 75.8906C249.599 76.1842 249.959 76.5772 250.205 77.0696C250.451 77.5573 250.575 78.0947 250.575 78.6818V79.4489C250.575 80.036 250.449 80.5734 250.198 81.0611C249.952 81.5488 249.59 81.9394 249.112 82.233C248.638 82.5218 248.056 82.6662 247.364 82.6662C246.673 82.6662 246.088 82.5194 245.61 82.2259C245.137 81.9276 244.777 81.5369 244.531 81.054C244.289 80.5663 244.168 80.0312 244.168 79.4489ZM246.249 78.6818V79.4489C246.249 79.7945 246.33 80.1141 246.491 80.4077C246.656 80.7012 246.948 80.848 247.364 80.848C247.8 80.848 248.096 80.7012 248.252 80.4077C248.413 80.1141 248.494 79.7945 248.494 79.4489V78.6818C248.494 78.3362 248.418 78.0142 248.266 77.7159C248.115 77.4176 247.814 77.2685 247.364 77.2685C246.943 77.2685 246.652 77.42 246.491 77.723C246.33 78.026 246.249 78.3456 246.249 78.6818ZM245.106 90.5L255.106 75.9545H256.967L246.967 90.5H245.106Z" fill="#A3FFA3"/>
<rect x="193" y="99.5" width="64" height="14" rx="2" fill="#5F5F5F"/>
<rect x="304" y="62" width="134" height="61" rx="4" fill="#494949"/>
<mask id="mask2_400_703" style="mask-type:alpha" maskUnits="userSpaceOnUse" x="345" y="71" width="24" height="25">
<rect x="345" y="71.5" width="24" height="24" fill="#D9D9D9"/>
</mask>
<g mask="url(#mask2_400_703)">
<path d="M356 91.5V79.325L350.4 84.925L349 83.5L357 75.5L365 83.5L363.6 84.925L358 79.325V91.5H356Z" fill="#A3FFA3"/>
</g>
<path d="M380.507 75.9545V90.5H377.432V78.8736H377.347L374.016 80.9616V78.2344L377.616 75.9545H380.507ZM389.39 90.6989C388.297 90.6989 387.324 90.5213 386.471 90.1662C385.624 89.8063 384.958 89.3163 384.475 88.696C383.993 88.0758 383.751 87.3726 383.751 86.5866C383.751 85.9806 383.888 85.4242 384.163 84.9176C384.442 84.4062 384.821 83.9825 385.299 83.6463C385.778 83.3054 386.313 83.0876 386.904 82.9929V82.8935C386.128 82.7372 385.498 82.3608 385.015 81.7642C384.532 81.1629 384.291 80.4645 384.291 79.669C384.291 78.9162 384.511 78.2462 384.951 77.6591C385.392 77.0672 385.995 76.6032 386.762 76.267C387.534 75.9261 388.41 75.7557 389.39 75.7557C390.37 75.7557 391.244 75.9261 392.011 76.267C392.783 76.608 393.389 77.0743 393.829 77.6662C394.27 78.2533 394.492 78.9209 394.497 79.669C394.492 80.4692 394.246 81.1676 393.758 81.7642C393.27 82.3608 392.645 82.7372 391.883 82.8935V82.9929C392.466 83.0876 392.993 83.3054 393.467 83.6463C393.945 83.9825 394.324 84.4062 394.603 84.9176C394.887 85.4242 395.032 85.9806 395.037 86.5866C395.032 87.3726 394.788 88.0758 394.305 88.696C393.822 89.3163 393.154 89.8063 392.302 90.1662C391.455 90.5213 390.484 90.6989 389.39 90.6989ZM389.39 88.4403C389.878 88.4403 390.304 88.3527 390.669 88.1776C391.033 87.9976 391.317 87.7514 391.521 87.4389C391.729 87.1217 391.833 86.7571 391.833 86.3452C391.833 85.9238 391.727 85.5521 391.514 85.2301C391.301 84.9034 391.012 84.6477 390.647 84.4631C390.283 84.2737 389.864 84.179 389.39 84.179C388.922 84.179 388.502 84.2737 388.133 84.4631C387.764 84.6477 387.473 84.9034 387.26 85.2301C387.051 85.5521 386.947 85.9238 386.947 86.3452C386.947 86.7571 387.049 87.1217 387.252 87.4389C387.456 87.7514 387.743 87.9976 388.112 88.1776C388.481 88.3527 388.907 88.4403 389.39 88.4403ZM389.39 81.9418C389.797 81.9418 390.16 81.8589 390.477 81.6932C390.794 81.5275 391.043 81.2978 391.223 81.0043C391.403 80.7107 391.493 80.3722 391.493 79.9886C391.493 79.6098 391.403 79.2784 391.223 78.9943C391.043 78.7055 390.797 78.4806 390.484 78.3196C390.172 78.1539 389.807 78.071 389.39 78.071C388.978 78.071 388.614 78.1539 388.297 78.3196C387.979 78.4806 387.731 78.7055 387.551 78.9943C387.376 79.2784 387.288 79.6098 387.288 79.9886C387.288 80.3722 387.378 80.7107 387.558 81.0043C387.738 81.2978 387.986 81.5275 388.304 81.6932C388.621 81.8589 388.983 81.9418 389.39 81.9418Z" fill="#A3FFA3"/>
<rect x="347" y="99.5" width="48" height="14" rx="2" fill="#5F5F5F"/>
</g>
<defs>
<clipPath id="clip0_400_703">
<rect width="456" height="577" rx="8" fill="white"/>
</clipPath>
<clipPath id="clip1_400_703">
<rect width="16" height="16" fill="white" transform="translate(18 17)"/>
</clipPath>
</defs>
</svg>
