<svg width="456" height="577" viewBox="0 0 456 577" fill="none" xmlns="http://www.w3.org/2000/svg">
<g clip-path="url(#clip0_400_586)">
<rect width="456" height="577" rx="8" fill="white"/>
<path d="M0 8C0 3.58172 3.58172 0 8 0H135V577H0V8Z" fill="#EAEAEA"/>
<path d="M38.2472 20.2727H40.3139L42.304 24.0312H42.3892L44.3793 20.2727H46.446L43.2628 25.9148V29H41.4304V25.9148L38.2472 20.2727ZM49.006 29.1278C48.3441 29.1278 47.7717 28.9872 47.2887 28.706C46.8086 28.4219 46.4379 28.027 46.1765 27.5213C45.9151 27.0128 45.7844 26.4233 45.7844 25.7528C45.7844 25.0767 45.9151 24.4858 46.1765 23.9801C46.4379 23.4716 46.8086 23.0767 47.2887 22.7955C47.7717 22.5114 48.3441 22.3693 49.006 22.3693C49.668 22.3693 50.239 22.5114 50.7191 22.7955C51.2021 23.0767 51.5742 23.4716 51.8356 23.9801C52.0969 24.4858 52.2276 25.0767 52.2276 25.7528C52.2276 26.4233 52.0969 27.0128 51.8356 27.5213C51.5742 28.027 51.2021 28.4219 50.7191 28.706C50.239 28.9872 49.668 29.1278 49.006 29.1278ZM49.0146 27.7216C49.3157 27.7216 49.5671 27.6364 49.7688 27.4659C49.9705 27.2926 50.1225 27.0568 50.2248 26.7585C50.3299 26.4602 50.3825 26.1207 50.3825 25.7401C50.3825 25.3594 50.3299 25.0199 50.2248 24.7216C50.1225 24.4233 49.9705 24.1875 49.7688 24.0142C49.5671 23.8409 49.3157 23.7543 49.0146 23.7543C48.7106 23.7543 48.4549 23.8409 48.2475 24.0142C48.043 24.1875 47.8881 24.4233 47.783 24.7216C47.6808 25.0199 47.6296 25.3594 47.6296 25.7401C47.6296 26.1207 47.6808 26.4602 47.783 26.7585C47.8881 27.0568 48.043 27.2926 48.2475 27.4659C48.4549 27.6364 48.7106 27.7216 49.0146 27.7216ZM57.6055 26.2131V22.4545H59.4208V29H57.6779V27.8111H57.6097C57.462 28.1946 57.2163 28.5028 56.8725 28.7358C56.5316 28.9687 56.1154 29.0852 55.6239 29.0852C55.1864 29.0852 54.8015 28.9858 54.4691 28.7869C54.1367 28.5881 53.8768 28.3054 53.6893 27.9389C53.5046 27.5724 53.4109 27.1335 53.408 26.6222V22.4545H55.2234V26.2983C55.2262 26.6847 55.3299 26.9901 55.5344 27.2145C55.739 27.4389 56.0131 27.5511 56.3569 27.5511C56.5756 27.5511 56.7802 27.5014 56.9705 27.402C57.1609 27.2997 57.3143 27.1491 57.4308 26.9503C57.5501 26.7514 57.6083 26.5057 57.6055 26.2131ZM60.8729 29V22.4545H62.6328V23.5966H62.701C62.8203 23.1903 63.0206 22.8835 63.3018 22.6761C63.5831 22.4659 63.907 22.3608 64.2734 22.3608C64.3643 22.3608 64.4624 22.3665 64.5675 22.3778C64.6726 22.3892 64.7649 22.4048 64.8445 22.4247V24.0355C64.7592 24.0099 64.6413 23.9872 64.4908 23.9673C64.3402 23.9474 64.2024 23.9375 64.0774 23.9375C63.8104 23.9375 63.5717 23.9957 63.3615 24.1122C63.1541 24.2259 62.9893 24.3849 62.8672 24.5895C62.7479 24.794 62.6882 25.0298 62.6882 25.2969V29H60.8729ZM73.5174 23.3281H71.6509C71.6168 23.0866 71.5472 22.8722 71.4421 22.6847C71.337 22.4943 71.2021 22.3324 71.0373 22.1989C70.8725 22.0653 70.6822 21.9631 70.4663 21.892C70.2532 21.821 70.0217 21.7855 69.7717 21.7855C69.32 21.7855 68.9265 21.8977 68.5913 22.1222C68.256 22.3437 67.9961 22.6676 67.8114 23.0938C67.6268 23.517 67.5344 24.0312 67.5344 24.6364C67.5344 25.2585 67.6268 25.7812 67.8114 26.2045C67.9989 26.6278 68.2603 26.9474 68.5955 27.1634C68.9308 27.3793 69.3185 27.4872 69.7589 27.4872C70.006 27.4872 70.2347 27.4545 70.445 27.3892C70.658 27.3239 70.8469 27.2287 71.0117 27.1037C71.1765 26.9759 71.3129 26.821 71.4208 26.6392C71.5316 26.4574 71.6083 26.25 71.6509 26.017L73.5174 26.0256C73.4691 26.4261 73.3484 26.8125 73.1552 27.1847C72.9648 27.554 72.7077 27.8849 72.3839 28.1776C72.0629 28.4673 71.6793 28.6974 71.2333 28.8679C70.7901 29.0355 70.2887 29.1193 69.729 29.1193C68.9506 29.1193 68.2546 28.9432 67.641 28.5909C67.0302 28.2386 66.5472 27.7287 66.1921 27.0611C65.8398 26.3935 65.6637 25.5852 65.6637 24.6364C65.6637 23.6847 65.8427 22.875 66.2006 22.2074C66.5586 21.5398 67.0444 21.0312 67.658 20.6818C68.2717 20.3295 68.962 20.1534 69.729 20.1534C70.2347 20.1534 70.7035 20.2244 71.1353 20.3665C71.57 20.5085 71.9549 20.7159 72.2901 20.9886C72.6254 21.2585 72.8981 21.5895 73.1083 21.9815C73.3214 22.3736 73.4577 22.8224 73.5174 23.3281ZM77.7638 29.1278C77.1019 29.1278 76.5295 28.9872 76.0465 28.706C75.5664 28.4219 75.1957 28.027 74.9343 27.5213C74.6729 27.0128 74.5423 26.4233 74.5423 25.7528C74.5423 25.0767 74.6729 24.4858 74.9343 23.9801C75.1957 23.4716 75.5664 23.0767 76.0465 22.7955C76.5295 22.5114 77.1019 22.3693 77.7638 22.3693C78.4258 22.3693 78.9968 22.5114 79.4769 22.7955C79.9599 23.0767 80.332 23.4716 80.5934 23.9801C80.8548 24.4858 80.9854 25.0767 80.9854 25.7528C80.9854 26.4233 80.8548 27.0128 80.5934 27.5213C80.332 28.027 79.9599 28.4219 79.4769 28.706C78.9968 28.9872 78.4258 29.1278 77.7638 29.1278ZM77.7724 27.7216C78.0735 27.7216 78.3249 27.6364 78.5266 27.4659C78.7283 27.2926 78.8803 27.0568 78.9826 26.7585C79.0877 26.4602 79.1403 26.1207 79.1403 25.7401C79.1403 25.3594 79.0877 25.0199 78.9826 24.7216C78.8803 24.4233 78.7283 24.1875 78.5266 24.0142C78.3249 23.8409 78.0735 23.7543 77.7724 23.7543C77.4684 23.7543 77.2127 23.8409 77.0053 24.0142C76.8008 24.1875 76.646 24.4233 76.5408 24.7216C76.4386 25.0199 76.3874 25.3594 76.3874 25.7401C76.3874 26.1207 76.4386 26.4602 76.5408 26.7585C76.646 27.0568 76.8008 27.2926 77.0053 27.4659C77.2127 27.6364 77.4684 27.7216 77.7724 27.7216ZM82.1658 29V22.4545H83.896V23.6094H83.9727C84.109 23.2259 84.3363 22.9233 84.6545 22.7017C84.9727 22.4801 85.3533 22.3693 85.7965 22.3693C86.2454 22.3693 86.6275 22.4815 86.9428 22.706C87.2582 22.9276 87.4684 23.2287 87.5735 23.6094H87.6417C87.7752 23.2344 88.0167 22.9347 88.3661 22.7102C88.7184 22.483 89.1346 22.3693 89.6147 22.3693C90.2255 22.3693 90.7212 22.5639 91.1019 22.9531C91.4854 23.3395 91.6772 23.8878 91.6772 24.598V29H89.8661V24.956C89.8661 24.5923 89.7695 24.3196 89.5763 24.1378C89.3832 23.956 89.1417 23.8651 88.8519 23.8651C88.5224 23.8651 88.2653 23.9702 88.0806 24.1804C87.896 24.3878 87.8036 24.6619 87.8036 25.0028V29H86.0437V24.9176C86.0437 24.5966 85.9513 24.3409 85.7667 24.1506C85.5849 23.9602 85.3448 23.8651 85.0465 23.8651C84.8448 23.8651 84.663 23.9162 84.5011 24.0185C84.342 24.1179 84.2156 24.2585 84.1218 24.4403C84.0281 24.6193 83.9812 24.8295 83.9812 25.071V29H82.1658ZM93.1112 31.4545V22.4545H94.9009V23.554H94.9819C95.0614 23.3778 95.1765 23.1989 95.3271 23.017C95.4805 22.8324 95.6793 22.679 95.9237 22.5568C96.1708 22.4318 96.4776 22.3693 96.8441 22.3693C97.3214 22.3693 97.7617 22.4943 98.1651 22.7443C98.5685 22.9915 98.891 23.3651 99.1325 23.8651C99.3739 24.3622 99.4947 24.9858 99.4947 25.7358C99.4947 26.4659 99.3768 27.0824 99.141 27.5852C98.908 28.0852 98.5898 28.4645 98.1864 28.723C97.7859 28.9787 97.337 29.1065 96.8398 29.1065C96.4876 29.1065 96.1879 29.0483 95.9407 28.9318C95.6964 28.8153 95.4961 28.669 95.3398 28.4929C95.1836 28.3139 95.0643 28.1335 94.9819 27.9517H94.9265V31.4545H93.1112ZM94.8881 25.7273C94.8881 26.1165 94.9421 26.456 95.0501 26.7457C95.158 27.0355 95.3143 27.2614 95.5188 27.4233C95.7234 27.5824 95.9719 27.6619 96.2646 27.6619C96.56 27.6619 96.81 27.581 97.0146 27.419C97.2191 27.2543 97.3739 27.027 97.479 26.7372C97.587 26.4446 97.641 26.108 97.641 25.7273C97.641 25.3494 97.5884 25.017 97.4833 24.7301C97.3782 24.4432 97.2234 24.2187 97.0188 24.0568C96.8143 23.8949 96.5629 23.8139 96.2646 23.8139C95.9691 23.8139 95.7191 23.892 95.5146 24.0483C95.3129 24.2045 95.158 24.4261 95.0501 24.7131C94.9421 25 94.8881 25.3381 94.8881 25.7273ZM102.571 29.1236C102.154 29.1236 101.782 29.0511 101.455 28.9062C101.128 28.7585 100.87 28.5412 100.679 28.2543C100.492 27.9645 100.398 27.6037 100.398 27.1719C100.398 26.8082 100.465 26.5028 100.598 26.2557C100.732 26.0085 100.914 25.8097 101.144 25.6591C101.374 25.5085 101.635 25.3949 101.928 25.3182C102.223 25.2415 102.533 25.1875 102.857 25.1562C103.238 25.1165 103.544 25.0795 103.777 25.0455C104.01 25.0085 104.179 24.9545 104.284 24.8835C104.39 24.8125 104.442 24.7074 104.442 24.5682V24.5426C104.442 24.2727 104.357 24.0639 104.186 23.9162C104.019 23.7685 103.78 23.6946 103.471 23.6946C103.144 23.6946 102.884 23.767 102.691 23.9119C102.498 24.054 102.37 24.233 102.307 24.4489L100.628 24.3125C100.713 23.9148 100.881 23.571 101.131 23.2812C101.381 22.9886 101.703 22.7642 102.098 22.608C102.496 22.4489 102.956 22.3693 103.479 22.3693C103.843 22.3693 104.191 22.4119 104.523 22.4972C104.858 22.5824 105.155 22.7145 105.414 22.8935C105.675 23.0724 105.881 23.3026 106.032 23.5838C106.182 23.8622 106.257 24.196 106.257 24.5852V29H104.536V28.0923H104.485C104.38 28.2969 104.239 28.4773 104.063 28.6335C103.887 28.7869 103.675 28.9077 103.428 28.9957C103.181 29.081 102.895 29.1236 102.571 29.1236ZM103.091 27.8707C103.358 27.8707 103.594 27.8182 103.799 27.7131C104.003 27.6051 104.164 27.4602 104.28 27.2784C104.397 27.0966 104.455 26.8906 104.455 26.6605V25.9659C104.398 26.0028 104.32 26.0369 104.221 26.0682C104.124 26.0966 104.015 26.1236 103.892 26.1491C103.77 26.1719 103.648 26.1932 103.526 26.2131C103.404 26.2301 103.293 26.2457 103.194 26.2599C102.98 26.2912 102.794 26.3409 102.635 26.4091C102.476 26.4773 102.353 26.5696 102.265 26.6861C102.176 26.7997 102.132 26.9418 102.132 27.1122C102.132 27.3594 102.222 27.5483 102.401 27.679C102.583 27.8068 102.813 27.8707 103.091 27.8707ZM109.481 25.2159V29H107.666V22.4545H109.396V23.6094H109.473C109.618 23.2287 109.86 22.9276 110.201 22.706C110.542 22.4815 110.956 22.3693 111.441 22.3693C111.896 22.3693 112.292 22.4688 112.63 22.6676C112.968 22.8665 113.231 23.1506 113.419 23.5199C113.606 23.8864 113.7 24.3239 113.7 24.8324V29H111.885V25.1562C111.887 24.7557 111.785 24.4432 111.578 24.2188C111.37 23.9915 111.085 23.8778 110.721 23.8778C110.477 23.8778 110.261 23.9304 110.074 24.0355C109.889 24.1406 109.744 24.294 109.639 24.4957C109.537 24.6946 109.484 24.9347 109.481 25.2159ZM116.017 31.4545C115.787 31.4545 115.571 31.4361 115.369 31.3991C115.17 31.3651 115.006 31.321 114.875 31.267L115.284 29.9119C115.497 29.9773 115.689 30.0128 115.859 30.0185C116.033 30.0241 116.182 29.9844 116.307 29.8991C116.435 29.8139 116.538 29.669 116.618 29.4645L116.724 29.1875L114.376 22.4545H116.286L117.641 27.2614H117.709L119.077 22.4545H120.999L118.455 29.7074C118.332 30.0597 118.166 30.3665 117.956 30.6278C117.749 30.892 117.486 31.0952 117.168 31.2372C116.849 31.3821 116.466 31.4545 116.017 31.4545Z" fill="#111111"/>
<rect x="18" y="17" width="15" height="15" fill="#111111"/>
<rect x="18" y="53" width="64" height="14" rx="2" fill="#D9D9D9"/>
<rect x="18" y="97" width="57" height="14" rx="2" fill="#D9D9D9"/>
<rect x="18" y="119" width="61" height="14" rx="2" fill="#D9D9D9"/>
<rect x="18" y="141" width="68" height="14" rx="2" fill="#D9D9D9"/>
<rect x="18" y="163" width="53" height="14" rx="2" fill="#D9D9D9"/>
<rect x="18" y="185" width="67" height="14" rx="2" fill="#D9D9D9"/>
<rect x="18" y="207" width="60" height="14" rx="2" fill="#D9D9D9"/>
<rect x="96" y="207" width="26" height="14" rx="2" fill="#E07973"/>
<rect x="96" y="185" width="26" height="14" rx="2" fill="#84D178"/>
<rect x="96" y="163" width="26" height="14" rx="2" fill="#84D178"/>
<rect x="96" y="141" width="26" height="14" rx="2" fill="#D2B061"/>
<rect x="96" y="119" width="26" height="14" rx="2" fill="#83B2E7"/>
<rect x="96" y="97" width="26" height="14" rx="2" fill="#84D178"/>
<rect x="96" y="75" width="26" height="14" rx="2" fill="#84D178"/>
<rect x="158" y="62" width="49" height="21" rx="2" fill="#84D178"/>
<rect x="96" y="53" width="26" height="14" rx="2" fill="#83B2E7"/>
<rect x="18" y="75" width="53" height="14" rx="2" fill="#B0B0B0"/>
<rect x="215" y="62" width="79" height="21" rx="4" fill="#B0B0B0"/>
<rect x="158" y="216" width="280" height="194" rx="4" fill="#494949"/>
<rect x="158" y="447" width="280" height="194" rx="4" fill="#494949"/>
<rect x="158" y="95" width="264" height="22" rx="2" fill="#D9D9D9"/>
<rect x="158" y="124" width="277" height="20" rx="2" fill="#D9D9D9"/>
<rect x="158" y="151" width="141" height="20" rx="2" fill="#D9D9D9"/>
<rect x="170" y="230" width="36" height="23" rx="2" fill="#84D178"/>
<rect width="48" height="22" rx="2" transform="matrix(-1 0 0 1 406 297)" fill="#84D178"/>
<rect x="308" y="230" width="37" height="23" rx="2" fill="#83B2E7"/>
<rect x="170" y="263" width="57" height="24" rx="2" fill="#83B2E7"/>
<rect width="57" height="24" rx="2" transform="matrix(-1 0 0 1 364 328)" fill="#D2B061"/>
<rect x="272" y="230" width="31" height="23" rx="2" fill="#D2B061"/>
<rect width="49" height="22" rx="2" transform="matrix(-1 0 0 1 219 297)" fill="#84D178"/>
<rect x="211" y="230" width="56" height="23" rx="2" fill="#83B2E7"/>
<rect x="328" y="263" width="36" height="24" rx="2" fill="#84D178"/>
<rect width="36" height="24" rx="2" transform="matrix(-1 0 0 1 206 328)" fill="#84D178"/>
<rect width="42" height="22" rx="2" transform="matrix(-1 0 0 1 267 297)" fill="#D2B061"/>
<rect x="262" y="263" width="61" height="24" rx="2" fill="#E07973"/>
<rect width="61" height="24" rx="2" transform="matrix(-1 0 0 1 272 328)" fill="#E07973"/>
<rect width="77" height="22" rx="2" transform="matrix(-1 0 0 1 351 297)" fill="#83B2E7"/>
<rect width="65" height="22" rx="2" transform="matrix(-1 0 0 1 423 376)" fill="#3C97FF"/>
<rect x="231" y="263" width="26" height="24" rx="2" fill="#84D178"/>
<rect width="26" height="24" rx="2" transform="matrix(-1 0 0 1 303 328)" fill="#84D178"/>
<rect x="170" y="461" width="26" height="24" rx="2" fill="#84D178"/>
<rect x="201" y="461" width="57" height="24" rx="2" fill="#83B2E7"/>
<rect x="263" y="461" width="61" height="24" rx="2" fill="#E07973"/>
<rect x="329" y="461" width="36" height="24" rx="2" fill="#84D178"/>
<rect x="170" y="495" width="56" height="23" rx="2" fill="#83B2E7"/>
<rect x="231" y="495" width="31" height="23" rx="2" fill="#D2B061"/>
<rect x="267" y="495" width="36" height="23" rx="2" fill="#84D178"/>
<rect x="308" y="495" width="37" height="23" rx="2" fill="#83B2E7"/>
<rect width="36" height="24" rx="2" transform="matrix(-1 0 0 1 206 528)" fill="#84D178"/>
<rect width="61" height="24" rx="2" transform="matrix(-1 0 0 1 272 528)" fill="#E07973"/>
<rect width="57" height="24" rx="2" transform="matrix(-1 0 0 1 334 528)" fill="#D2B061"/>
<rect width="26" height="24" rx="2" transform="matrix(-1 0 0 1 365 528)" fill="#84D178"/>
<rect width="49" height="22" rx="2" transform="matrix(-1 0 0 1 219 562)" fill="#84D178"/>
<rect width="42" height="22" rx="2" transform="matrix(-1 0 0 1 268 562)" fill="#D2B061"/>
<rect width="77" height="22" rx="2" transform="matrix(-1 0 0 1 352 562)" fill="#83B2E7"/>
<rect width="48" height="22" rx="2" transform="matrix(-1 0 0 1 407 562)" fill="#84D178"/>
<path d="M161.771 32H158.476L163.497 17.4545H167.46L172.474 32H169.179L165.536 20.7784H165.422L161.771 32ZM161.565 26.2827H169.349V28.6832H161.565V26.2827ZM174.225 32V17.4545H179.964C181.067 17.4545 182.007 17.6652 182.783 18.0866C183.56 18.5033 184.152 19.0833 184.559 19.8267C184.971 20.5653 185.177 21.4176 185.177 22.3835C185.177 23.3494 184.969 24.2017 184.552 24.9403C184.135 25.679 183.531 26.2543 182.741 26.6662C181.955 27.0781 181.003 27.2841 179.886 27.2841H176.228V24.8196H179.388C179.98 24.8196 180.468 24.7178 180.852 24.5142C181.24 24.3059 181.529 24.0194 181.718 23.6548C181.912 23.2855 182.009 22.8617 182.009 22.3835C182.009 21.9006 181.912 21.4792 181.718 21.1193C181.529 20.7547 181.24 20.473 180.852 20.2741C180.463 20.0705 179.971 19.9688 179.374 19.9688H177.3V32H174.225ZM190.25 17.4545V32H187.174V17.4545H190.25ZM197.409 32V17.4545H207.21V19.9901H200.484V23.456H206.706V25.9915H200.484V29.4645H207.238V32H197.409ZM212.624 25.6932V32H209.598V21.0909H212.482V23.0156H212.609C212.851 22.3812 213.256 21.8793 213.824 21.5099C214.392 21.1359 215.081 20.9489 215.891 20.9489C216.648 20.9489 217.309 21.1146 217.872 21.446C218.436 21.7775 218.874 22.2509 219.186 22.8665C219.499 23.4773 219.655 24.2064 219.655 25.054V32H216.629V25.5938C216.634 24.9261 216.464 24.4053 216.118 24.0312C215.772 23.6525 215.296 23.4631 214.69 23.4631C214.283 23.4631 213.923 23.5507 213.611 23.7259C213.303 23.901 213.062 24.1567 212.886 24.4929C212.716 24.8243 212.628 25.2244 212.624 25.6932ZM226.059 32.1776C225.231 32.1776 224.48 31.9645 223.808 31.5384C223.14 31.1075 222.61 30.4754 222.217 29.642C221.829 28.804 221.635 27.7765 221.635 26.5597C221.635 25.3097 221.836 24.2704 222.238 23.4418C222.641 22.6084 223.176 21.9858 223.843 21.5739C224.516 21.1572 225.252 20.9489 226.052 20.9489C226.663 20.9489 227.172 21.053 227.579 21.2614C227.991 21.465 228.323 21.7206 228.574 22.0284C228.829 22.3314 229.023 22.6297 229.156 22.9233H229.248V17.4545H232.267V32H229.284V30.2528H229.156C229.014 30.5559 228.813 30.8565 228.552 31.1548C228.297 31.4484 227.963 31.6922 227.551 31.8864C227.144 32.0805 226.646 32.1776 226.059 32.1776ZM227.018 29.7699C227.506 29.7699 227.918 29.6373 228.254 29.3722C228.595 29.1023 228.855 28.7259 229.035 28.2429C229.22 27.7599 229.312 27.1941 229.312 26.5455C229.312 25.8968 229.222 25.3333 229.042 24.8551C228.862 24.3769 228.602 24.0076 228.261 23.7472C227.92 23.4867 227.506 23.3565 227.018 23.3565C226.521 23.3565 226.102 23.4915 225.761 23.7614C225.42 24.0312 225.162 24.4053 224.987 24.8835C224.812 25.3617 224.724 25.9157 224.724 26.5455C224.724 27.1799 224.812 27.741 224.987 28.2287C225.167 28.7116 225.425 29.0904 225.761 29.3651C226.102 29.6349 226.521 29.7699 227.018 29.7699ZM234.754 36.0909V21.0909H237.737V22.9233H237.872C238.005 22.6297 238.196 22.3314 238.447 22.0284C238.703 21.7206 239.035 21.465 239.442 21.2614C239.854 21.053 240.365 20.9489 240.976 20.9489C241.771 20.9489 242.505 21.1572 243.178 21.5739C243.85 21.9858 244.387 22.6084 244.79 23.4418C245.192 24.2704 245.393 25.3097 245.393 26.5597C245.393 27.7765 245.197 28.804 244.804 29.642C244.416 30.4754 243.885 31.1075 243.213 31.5384C242.545 31.9645 241.797 32.1776 240.969 32.1776C240.382 32.1776 239.882 32.0805 239.47 31.8864C239.063 31.6922 238.729 31.4484 238.469 31.1548C238.208 30.8565 238.009 30.5559 237.872 30.2528H237.78V36.0909H234.754ZM237.716 26.5455C237.716 27.1941 237.806 27.7599 237.986 28.2429C238.166 28.7259 238.426 29.1023 238.767 29.3722C239.108 29.6373 239.522 29.7699 240.01 29.7699C240.502 29.7699 240.919 29.6349 241.26 29.3651C241.601 29.0904 241.859 28.7116 242.034 28.2287C242.214 27.741 242.304 27.1799 242.304 26.5455C242.304 25.9157 242.216 25.3617 242.041 24.8835C241.866 24.4053 241.608 24.0312 241.267 23.7614C240.926 23.4915 240.507 23.3565 240.01 23.3565C239.518 23.3565 239.101 23.4867 238.76 23.7472C238.424 24.0076 238.166 24.3769 237.986 24.8551C237.806 25.3333 237.716 25.8968 237.716 26.5455ZM252.339 32.2131C251.236 32.2131 250.282 31.9787 249.477 31.5099C248.677 31.0365 248.059 30.3783 247.624 29.5355C247.188 28.688 246.97 27.7055 246.97 26.5881C246.97 25.4612 247.188 24.4763 247.624 23.6335C248.059 22.786 248.677 22.1278 249.477 21.6591C250.282 21.1856 251.236 20.9489 252.339 20.9489C253.443 20.9489 254.394 21.1856 255.195 21.6591C256 22.1278 256.62 22.786 257.055 23.6335C257.491 24.4763 257.709 25.4612 257.709 26.5881C257.709 27.7055 257.491 28.688 257.055 29.5355C256.62 30.3783 256 31.0365 255.195 31.5099C254.394 31.9787 253.443 32.2131 252.339 32.2131ZM252.354 29.8693C252.856 29.8693 253.275 29.7273 253.611 29.4432C253.947 29.1544 254.2 28.7614 254.371 28.2642C254.546 27.767 254.634 27.2012 254.634 26.5668C254.634 25.9323 254.546 25.3665 254.371 24.8693C254.2 24.3722 253.947 23.9792 253.611 23.6903C253.275 23.4015 252.856 23.2571 252.354 23.2571C251.847 23.2571 251.421 23.4015 251.075 23.6903C250.734 23.9792 250.476 24.3722 250.301 24.8693C250.131 25.3665 250.045 25.9323 250.045 26.5668C250.045 27.2012 250.131 27.767 250.301 28.2642C250.476 28.7614 250.734 29.1544 251.075 29.4432C251.421 29.7273 251.847 29.8693 252.354 29.8693ZM259.676 32V21.0909H262.702V32H259.676ZM261.196 19.6847C260.746 19.6847 260.36 19.5355 260.038 19.2372C259.721 18.9342 259.562 18.572 259.562 18.1506C259.562 17.7339 259.721 17.3764 260.038 17.0781C260.36 16.7751 260.746 16.6236 261.196 16.6236C261.646 16.6236 262.029 16.7751 262.347 17.0781C262.669 17.3764 262.83 17.7339 262.83 18.1506C262.83 18.572 262.669 18.9342 262.347 19.2372C262.029 19.5355 261.646 19.6847 261.196 19.6847ZM268.151 25.6932V32H265.125V21.0909H268.009V23.0156H268.137C268.378 22.3812 268.783 21.8793 269.351 21.5099C269.919 21.1359 270.608 20.9489 271.418 20.9489C272.176 20.9489 272.836 21.1146 273.4 21.446C273.963 21.7775 274.401 22.2509 274.713 22.8665C275.026 23.4773 275.182 24.2064 275.182 25.054V32H272.157V25.5938C272.161 24.9261 271.991 24.4053 271.645 24.0312C271.3 23.6525 270.824 23.4631 270.218 23.4631C269.81 23.4631 269.451 23.5507 269.138 23.7259C268.83 23.901 268.589 24.1567 268.414 24.4929C268.243 24.8243 268.156 25.2244 268.151 25.6932ZM283.369 21.0909V23.3636H276.8V21.0909H283.369ZM278.291 18.4773H281.317V28.6477C281.317 28.9271 281.359 29.1449 281.445 29.3011C281.53 29.4527 281.648 29.5592 281.8 29.6207C281.956 29.6823 282.136 29.7131 282.339 29.7131C282.482 29.7131 282.624 29.7012 282.766 29.6776C282.908 29.6491 283.017 29.6278 283.092 29.6136L283.568 31.8651C283.417 31.9124 283.204 31.9669 282.929 32.0284C282.654 32.0947 282.321 32.1349 281.928 32.1491C281.198 32.1776 280.559 32.0805 280.01 31.858C279.465 31.6354 279.042 31.2898 278.739 30.821C278.436 30.3523 278.286 29.7604 278.291 29.0455V18.4773Z" fill="#111111"/>
<line x1="173" y1="365.5" x2="423" y2="365.5" stroke="#878787"/>
<path d="M375.477 384.598V383.273H382.44V384.598H379.743V392H378.175V384.598H375.477ZM383.035 392V385.455H384.531V386.545H384.599C384.718 386.168 384.923 385.876 385.212 385.672C385.505 385.464 385.839 385.361 386.214 385.361C386.299 385.361 386.394 385.365 386.499 385.374C386.607 385.379 386.697 385.389 386.768 385.403V386.822C386.702 386.8 386.599 386.78 386.457 386.763C386.317 386.743 386.183 386.733 386.052 386.733C385.771 386.733 385.518 386.794 385.293 386.916C385.072 387.036 384.897 387.202 384.769 387.415C384.641 387.628 384.577 387.874 384.577 388.152V392H383.035ZM388.951 394.455C388.74 394.455 388.546 394.438 388.367 394.403C388.191 394.372 388.05 394.335 387.945 394.293L388.303 393.091C388.527 393.156 388.728 393.188 388.904 393.185C389.08 393.182 389.235 393.126 389.368 393.018C389.505 392.913 389.62 392.737 389.713 392.49L389.846 392.136L387.472 385.455H389.108L390.617 390.398H390.685L392.198 385.455H393.838L391.218 392.793C391.096 393.139 390.934 393.436 390.732 393.683C390.53 393.933 390.283 394.124 389.99 394.254C389.701 394.388 389.354 394.455 388.951 394.455ZM399.532 383.273V392H397.951V383.273H399.532ZM404.444 385.455V386.648H400.681V385.455H404.444ZM401.61 383.886H403.153V390.031C403.153 390.239 403.184 390.398 403.246 390.509C403.312 390.616 403.397 390.69 403.502 390.73C403.607 390.77 403.724 390.79 403.852 390.79C403.948 390.79 404.036 390.783 404.116 390.768C404.198 390.754 404.261 390.741 404.303 390.73L404.563 391.936C404.481 391.964 404.363 391.996 404.21 392.03C404.059 392.064 403.874 392.084 403.656 392.089C403.269 392.101 402.921 392.043 402.612 391.915C402.302 391.784 402.056 391.582 401.874 391.31C401.695 391.037 401.607 390.696 401.61 390.287V383.886Z" fill="white"/>
<path d="M158.861 207V198.273H162.134C162.804 198.273 163.366 198.389 163.821 198.622C164.278 198.855 164.624 199.182 164.857 199.602C165.092 200.02 165.21 200.507 165.21 201.064C165.21 201.624 165.091 202.109 164.852 202.521C164.616 202.93 164.268 203.247 163.808 203.472C163.348 203.693 162.783 203.804 162.112 203.804H159.781V202.491H161.899C162.291 202.491 162.612 202.437 162.862 202.33C163.112 202.219 163.297 202.058 163.416 201.848C163.538 201.635 163.599 201.374 163.599 201.064C163.599 200.754 163.538 200.49 163.416 200.271C163.294 200.05 163.108 199.882 162.858 199.768C162.608 199.652 162.286 199.594 161.891 199.594H160.442V207H158.861ZM163.369 203.045L165.53 207H163.766L161.643 203.045H163.369ZM169.401 207.128C168.745 207.128 168.178 206.991 167.701 206.719C167.227 206.443 166.862 206.054 166.606 205.551C166.35 205.045 166.222 204.45 166.222 203.766C166.222 203.092 166.35 202.501 166.606 201.993C166.864 201.482 167.225 201.084 167.688 200.8C168.151 200.513 168.695 200.369 169.32 200.369C169.724 200.369 170.104 200.435 170.462 200.565C170.823 200.693 171.141 200.892 171.417 201.162C171.695 201.432 171.914 201.776 172.073 202.193C172.232 202.608 172.312 203.102 172.312 203.676V204.149H166.947V203.109H170.833C170.83 202.814 170.766 202.551 170.641 202.321C170.516 202.088 170.342 201.905 170.117 201.771C169.896 201.638 169.637 201.571 169.342 201.571C169.026 201.571 168.749 201.648 168.511 201.801C168.272 201.952 168.086 202.151 167.952 202.398C167.822 202.642 167.755 202.911 167.752 203.203V204.111C167.752 204.491 167.822 204.818 167.961 205.091C168.1 205.361 168.295 205.568 168.545 205.713C168.795 205.855 169.087 205.926 169.423 205.926C169.647 205.926 169.85 205.895 170.032 205.832C170.214 205.767 170.371 205.672 170.505 205.547C170.638 205.422 170.739 205.267 170.808 205.082L172.248 205.244C172.157 205.625 171.984 205.957 171.728 206.241C171.475 206.523 171.151 206.741 170.756 206.898C170.362 207.051 169.91 207.128 169.401 207.128ZM177.985 209.455V205.969H177.921C177.841 206.128 177.726 206.297 177.576 206.476C177.425 206.652 177.226 206.803 176.979 206.928C176.732 207.053 176.421 207.115 176.046 207.115C175.532 207.115 175.071 206.983 174.665 206.719C174.259 206.455 173.938 206.071 173.702 205.568C173.466 205.065 173.348 204.455 173.348 203.736C173.348 203.009 173.468 202.395 173.706 201.895C173.948 201.392 174.273 201.013 174.682 200.757C175.091 200.499 175.547 200.369 176.05 200.369C176.434 200.369 176.749 200.435 176.996 200.565C177.243 200.693 177.439 200.848 177.584 201.03C177.729 201.209 177.841 201.378 177.921 201.537H178.015V200.455H179.532V209.455H177.985ZM176.476 205.849C176.803 205.849 177.081 205.761 177.311 205.585C177.542 205.406 177.716 205.158 177.836 204.839C177.955 204.521 178.015 204.151 178.015 203.727C178.015 203.304 177.955 202.936 177.836 202.624C177.719 202.311 177.546 202.068 177.316 201.895C177.088 201.722 176.809 201.635 176.476 201.635C176.132 201.635 175.846 201.724 175.615 201.903C175.385 202.082 175.212 202.33 175.096 202.645C174.979 202.96 174.921 203.321 174.921 203.727C174.921 204.136 174.979 204.501 175.096 204.822C175.215 205.141 175.39 205.392 175.62 205.577C175.853 205.759 176.138 205.849 176.476 205.849ZM185.289 204.247V200.455H186.831V207H185.336V205.837H185.267C185.12 206.203 184.877 206.503 184.539 206.736C184.203 206.969 183.79 207.085 183.299 207.085C182.87 207.085 182.49 206.99 182.161 206.8C181.834 206.607 181.578 206.327 181.394 205.96C181.209 205.591 181.117 205.145 181.117 204.622V200.455H182.659V204.384C182.659 204.798 182.773 205.128 183 205.372C183.228 205.616 183.526 205.739 183.895 205.739C184.123 205.739 184.343 205.683 184.556 205.572C184.769 205.462 184.944 205.297 185.08 205.078C185.219 204.857 185.289 204.58 185.289 204.247ZM191.315 207.128C190.659 207.128 190.092 206.991 189.615 206.719C189.141 206.443 188.776 206.054 188.52 205.551C188.264 205.045 188.136 204.45 188.136 203.766C188.136 203.092 188.264 202.501 188.52 201.993C188.778 201.482 189.139 201.084 189.602 200.8C190.065 200.513 190.609 200.369 191.234 200.369C191.638 200.369 192.018 200.435 192.376 200.565C192.737 200.693 193.055 200.892 193.331 201.162C193.609 201.432 193.828 201.776 193.987 202.193C194.146 202.608 194.226 203.102 194.226 203.676V204.149H188.861V203.109H192.747C192.744 202.814 192.68 202.551 192.555 202.321C192.43 202.088 192.256 201.905 192.031 201.771C191.81 201.638 191.551 201.571 191.256 201.571C190.94 201.571 190.663 201.648 190.425 201.801C190.186 201.952 190 202.151 189.866 202.398C189.736 202.642 189.669 202.911 189.666 203.203V204.111C189.666 204.491 189.736 204.818 189.875 205.091C190.014 205.361 190.209 205.568 190.459 205.713C190.709 205.855 191.001 205.926 191.337 205.926C191.561 205.926 191.764 205.895 191.946 205.832C192.128 205.767 192.286 205.672 192.419 205.547C192.553 205.422 192.653 205.267 192.722 205.082L194.162 205.244C194.071 205.625 193.898 205.957 193.642 206.241C193.389 206.523 193.065 206.741 192.67 206.898C192.276 207.051 191.824 207.128 191.315 207.128ZM200.704 202.185L199.298 202.338C199.258 202.196 199.189 202.062 199.089 201.938C198.993 201.812 198.862 201.712 198.697 201.635C198.532 201.558 198.331 201.52 198.092 201.52C197.771 201.52 197.501 201.589 197.282 201.729C197.066 201.868 196.96 202.048 196.963 202.27C196.96 202.46 197.029 202.615 197.172 202.734C197.316 202.854 197.555 202.952 197.887 203.028L199.004 203.267C199.623 203.401 200.083 203.612 200.385 203.902C200.689 204.192 200.842 204.571 200.845 205.04C200.842 205.452 200.721 205.815 200.483 206.131C200.247 206.443 199.919 206.687 199.498 206.864C199.078 207.04 198.595 207.128 198.049 207.128C197.248 207.128 196.603 206.96 196.115 206.625C195.626 206.287 195.335 205.817 195.241 205.214L196.745 205.07C196.814 205.365 196.958 205.588 197.18 205.739C197.402 205.889 197.69 205.964 198.045 205.964C198.412 205.964 198.706 205.889 198.927 205.739C199.152 205.588 199.264 205.402 199.264 205.18C199.264 204.993 199.191 204.838 199.047 204.716C198.904 204.594 198.683 204.5 198.382 204.435L197.265 204.2C196.637 204.07 196.173 203.849 195.872 203.54C195.571 203.227 195.422 202.832 195.424 202.355C195.422 201.952 195.531 201.602 195.752 201.307C195.977 201.009 196.288 200.778 196.686 200.616C197.086 200.452 197.548 200.369 198.071 200.369C198.838 200.369 199.441 200.533 199.882 200.859C200.325 201.186 200.599 201.628 200.704 202.185ZM205.385 200.455V201.648H201.623V200.455H205.385ZM202.551 198.886H204.094V205.031C204.094 205.239 204.125 205.398 204.188 205.509C204.253 205.616 204.338 205.69 204.444 205.73C204.549 205.77 204.665 205.79 204.793 205.79C204.89 205.79 204.978 205.783 205.057 205.768C205.14 205.754 205.202 205.741 205.245 205.73L205.505 206.936C205.422 206.964 205.304 206.996 205.151 207.03C205 207.064 204.816 207.084 204.597 207.089C204.211 207.101 203.863 207.043 203.553 206.915C203.243 206.784 202.998 206.582 202.816 206.31C202.637 206.037 202.549 205.696 202.551 205.287V198.886Z" fill="#494949"/>
<path d="M158.861 439V430.273H162.134C162.804 430.273 163.366 430.389 163.821 430.622C164.278 430.855 164.624 431.182 164.857 431.602C165.092 432.02 165.21 432.507 165.21 433.064C165.21 433.624 165.091 434.109 164.852 434.521C164.616 434.93 164.268 435.247 163.808 435.472C163.348 435.693 162.783 435.804 162.112 435.804H159.781V434.491H161.899C162.291 434.491 162.612 434.437 162.862 434.33C163.112 434.219 163.297 434.058 163.416 433.848C163.538 433.635 163.599 433.374 163.599 433.064C163.599 432.754 163.538 432.49 163.416 432.271C163.294 432.05 163.108 431.882 162.858 431.768C162.608 431.652 162.286 431.594 161.891 431.594H160.442V439H158.861ZM163.369 435.045L165.53 439H163.766L161.643 435.045H163.369ZM169.401 439.128C168.745 439.128 168.178 438.991 167.701 438.719C167.227 438.443 166.862 438.054 166.606 437.551C166.35 437.045 166.222 436.45 166.222 435.766C166.222 435.092 166.35 434.501 166.606 433.993C166.864 433.482 167.225 433.084 167.688 432.8C168.151 432.513 168.695 432.369 169.32 432.369C169.724 432.369 170.104 432.435 170.462 432.565C170.823 432.693 171.141 432.892 171.417 433.162C171.695 433.432 171.914 433.776 172.073 434.193C172.232 434.608 172.312 435.102 172.312 435.676V436.149H166.947V435.109H170.833C170.83 434.814 170.766 434.551 170.641 434.321C170.516 434.088 170.342 433.905 170.117 433.771C169.896 433.638 169.637 433.571 169.342 433.571C169.026 433.571 168.749 433.648 168.511 433.801C168.272 433.952 168.086 434.151 167.952 434.398C167.822 434.642 167.755 434.911 167.752 435.203V436.111C167.752 436.491 167.822 436.818 167.961 437.091C168.1 437.361 168.295 437.568 168.545 437.713C168.795 437.855 169.087 437.926 169.423 437.926C169.647 437.926 169.85 437.895 170.032 437.832C170.214 437.767 170.371 437.672 170.505 437.547C170.638 437.422 170.739 437.267 170.808 437.082L172.248 437.244C172.157 437.625 171.984 437.957 171.728 438.241C171.475 438.523 171.151 438.741 170.756 438.898C170.362 439.051 169.91 439.128 169.401 439.128ZM178.79 434.185L177.384 434.338C177.344 434.196 177.275 434.062 177.175 433.938C177.078 433.812 176.948 433.712 176.783 433.635C176.618 433.558 176.417 433.52 176.178 433.52C175.857 433.52 175.587 433.589 175.368 433.729C175.152 433.868 175.046 434.048 175.049 434.27C175.046 434.46 175.115 434.615 175.257 434.734C175.402 434.854 175.641 434.952 175.973 435.028L177.09 435.267C177.709 435.401 178.169 435.612 178.471 435.902C178.775 436.192 178.928 436.571 178.931 437.04C178.928 437.452 178.807 437.815 178.569 438.131C178.333 438.443 178.005 438.687 177.584 438.864C177.164 439.04 176.681 439.128 176.135 439.128C175.334 439.128 174.689 438.96 174.201 438.625C173.712 438.287 173.421 437.817 173.327 437.214L174.831 437.07C174.9 437.365 175.044 437.588 175.266 437.739C175.488 437.889 175.776 437.964 176.131 437.964C176.498 437.964 176.792 437.889 177.013 437.739C177.238 437.588 177.35 437.402 177.35 437.18C177.35 436.993 177.277 436.838 177.132 436.716C176.99 436.594 176.769 436.5 176.468 436.435L175.351 436.2C174.723 436.07 174.259 435.849 173.958 435.54C173.657 435.227 173.507 434.832 173.51 434.355C173.507 433.952 173.617 433.602 173.838 433.307C174.063 433.009 174.374 432.778 174.772 432.616C175.172 432.452 175.634 432.369 176.157 432.369C176.924 432.369 177.527 432.533 177.968 432.859C178.411 433.186 178.685 433.628 178.79 434.185ZM180.203 441.455V432.455H181.72V433.537H181.809C181.889 433.378 182.001 433.209 182.146 433.03C182.291 432.848 182.487 432.693 182.734 432.565C182.981 432.435 183.297 432.369 183.68 432.369C184.186 432.369 184.642 432.499 185.048 432.757C185.457 433.013 185.781 433.392 186.02 433.895C186.261 434.395 186.382 435.009 186.382 435.736C186.382 436.455 186.264 437.065 186.028 437.568C185.792 438.071 185.471 438.455 185.065 438.719C184.659 438.983 184.199 439.115 183.684 439.115C183.309 439.115 182.998 439.053 182.751 438.928C182.504 438.803 182.305 438.652 182.154 438.476C182.007 438.297 181.892 438.128 181.809 437.969H181.745V441.455H180.203ZM181.716 435.727C181.716 436.151 181.775 436.521 181.895 436.839C182.017 437.158 182.191 437.406 182.419 437.585C182.649 437.761 182.927 437.849 183.254 437.849C183.595 437.849 183.88 437.759 184.11 437.577C184.341 437.392 184.514 437.141 184.63 436.822C184.75 436.501 184.809 436.136 184.809 435.727C184.809 435.321 184.751 434.96 184.635 434.645C184.518 434.33 184.345 434.082 184.115 433.903C183.885 433.724 183.598 433.635 183.254 433.635C182.924 433.635 182.645 433.722 182.414 433.895C182.184 434.068 182.01 434.311 181.89 434.624C181.774 434.936 181.716 435.304 181.716 435.727ZM190.558 439.128C189.919 439.128 189.365 438.987 188.896 438.706C188.427 438.425 188.064 438.031 187.805 437.526C187.549 437.02 187.422 436.429 187.422 435.753C187.422 435.077 187.549 434.484 187.805 433.976C188.064 433.467 188.427 433.072 188.896 432.791C189.365 432.51 189.919 432.369 190.558 432.369C191.197 432.369 191.751 432.51 192.22 432.791C192.689 433.072 193.051 433.467 193.306 433.976C193.565 434.484 193.694 435.077 193.694 435.753C193.694 436.429 193.565 437.02 193.306 437.526C193.051 438.031 192.689 438.425 192.22 438.706C191.751 438.987 191.197 439.128 190.558 439.128ZM190.566 437.892C190.913 437.892 191.203 437.797 191.436 437.607C191.669 437.413 191.842 437.155 191.956 436.831C192.072 436.507 192.13 436.146 192.13 435.749C192.13 435.348 192.072 434.986 191.956 434.662C191.842 434.335 191.669 434.075 191.436 433.882C191.203 433.689 190.913 433.592 190.566 433.592C190.211 433.592 189.916 433.689 189.68 433.882C189.447 434.075 189.272 434.335 189.156 434.662C189.042 434.986 188.985 435.348 188.985 435.749C188.985 436.146 189.042 436.507 189.156 436.831C189.272 437.155 189.447 437.413 189.68 437.607C189.916 437.797 190.211 437.892 190.566 437.892ZM196.546 435.165V439H195.004V432.455H196.478V433.567H196.555C196.705 433.2 196.945 432.909 197.275 432.693C197.607 432.477 198.018 432.369 198.506 432.369C198.958 432.369 199.352 432.466 199.687 432.659C200.025 432.852 200.286 433.132 200.471 433.499C200.658 433.865 200.751 434.31 200.748 434.832V439H199.205V435.071C199.205 434.634 199.092 434.291 198.864 434.044C198.64 433.797 198.329 433.673 197.931 433.673C197.661 433.673 197.421 433.733 197.211 433.852C197.004 433.969 196.84 434.138 196.721 434.359C196.604 434.581 196.546 434.849 196.546 435.165ZM207.489 434.185L206.083 434.338C206.043 434.196 205.974 434.062 205.874 433.938C205.778 433.812 205.647 433.712 205.482 433.635C205.317 433.558 205.116 433.52 204.877 433.52C204.556 433.52 204.286 433.589 204.067 433.729C203.852 433.868 203.745 434.048 203.748 434.27C203.745 434.46 203.815 434.615 203.957 434.734C204.102 434.854 204.34 434.952 204.673 435.028L205.789 435.267C206.408 435.401 206.869 435.612 207.17 435.902C207.474 436.192 207.627 436.571 207.63 437.04C207.627 437.452 207.506 437.815 207.268 438.131C207.032 438.443 206.704 438.687 206.283 438.864C205.863 439.04 205.38 439.128 204.835 439.128C204.033 439.128 203.388 438.96 202.9 438.625C202.411 438.287 202.12 437.817 202.026 437.214L203.531 437.07C203.599 437.365 203.744 437.588 203.965 437.739C204.187 437.889 204.475 437.964 204.83 437.964C205.197 437.964 205.491 437.889 205.712 437.739C205.937 437.588 206.049 437.402 206.049 437.18C206.049 436.993 205.977 436.838 205.832 436.716C205.69 436.594 205.468 436.5 205.167 436.435L204.05 436.2C203.423 436.07 202.958 435.849 202.657 435.54C202.356 435.227 202.207 434.832 202.21 434.355C202.207 433.952 202.316 433.602 202.538 433.307C202.762 433.009 203.073 432.778 203.471 432.616C203.871 432.452 204.333 432.369 204.856 432.369C205.623 432.369 206.227 432.533 206.667 432.859C207.11 433.186 207.384 433.628 207.489 434.185ZM211.8 439.128C211.143 439.128 210.577 438.991 210.099 438.719C209.625 438.443 209.26 438.054 209.004 437.551C208.749 437.045 208.621 436.45 208.621 435.766C208.621 435.092 208.749 434.501 209.004 433.993C209.263 433.482 209.624 433.084 210.087 432.8C210.55 432.513 211.094 432.369 211.719 432.369C212.122 432.369 212.503 432.435 212.861 432.565C213.222 432.693 213.54 432.892 213.815 433.162C214.094 433.432 214.313 433.776 214.472 434.193C214.631 434.608 214.71 435.102 214.71 435.676V436.149H209.345V435.109H213.232C213.229 434.814 213.165 434.551 213.04 434.321C212.915 434.088 212.74 433.905 212.516 433.771C212.294 433.638 212.036 433.571 211.74 433.571C211.425 433.571 211.148 433.648 210.909 433.801C210.67 433.952 210.484 434.151 210.351 434.398C210.22 434.642 210.153 434.911 210.151 435.203V436.111C210.151 436.491 210.22 436.818 210.359 437.091C210.499 437.361 210.693 437.568 210.943 437.713C211.193 437.855 211.486 437.926 211.821 437.926C212.045 437.926 212.249 437.895 212.43 437.832C212.612 437.767 212.77 437.672 212.903 437.547C213.037 437.422 213.138 437.267 213.206 437.082L214.646 437.244C214.555 437.625 214.382 437.957 214.126 438.241C213.874 438.523 213.55 438.741 213.155 438.898C212.76 439.051 212.308 439.128 211.8 439.128Z" fill="#494949"/>
</g>
<defs>
<clipPath id="clip0_400_586">
<rect width="456" height="577" rx="8" fill="white"/>
</clipPath>
</defs>
</svg>
