<svg width="356" height="345" viewBox="0 0 356 345" fill="none" xmlns="http://www.w3.org/2000/svg">
<rect x="132.025" y="133.635" width="91.9506" height="91.7778" rx="45.8889" fill="white"/>
<mask id="mask0_400_670" style="mask-type:luminance" maskUnits="userSpaceOnUse" x="150" y="153" width="56" height="53">
<path d="M206 153.102H150V205.945H206V153.102Z" fill="white"/>
</mask>
<g mask="url(#mask0_400_670)">
<path fill-rule="evenodd" clip-rule="evenodd" d="M154.95 176.587L150 179.667L178 197.09L206 179.667L201.05 176.587L178 190.93L154.95 176.587Z" fill="#7B65FF" fill-opacity="0.65"/>
<path fill-rule="evenodd" clip-rule="evenodd" d="M154.95 185.441L150 188.521L178 205.944L206 188.521L201.05 185.441L178 199.784L154.95 185.441Z" fill="#7B65FF" fill-opacity="0.4"/>
<path fill-rule="evenodd" clip-rule="evenodd" d="M197.383 170.525L178 158.463L158.617 170.525L178 182.586L197.383 170.525ZM178 153.102L150 170.525L178 187.948L206 170.525L178 153.102Z" fill="#7B65FF"/>
</g>
<rect x="26" y="109.798" width="98.1417" height="97.9352" rx="48.9676" fill="white" fill-opacity="0.2"/>
<g clip-path="url(#clip0_400_670)">
<path d="M87.0187 139.766H78.7606L93.8127 177.766H102.071L87.0187 139.766ZM63.1229 139.766L48.0708 177.766H56.5046L59.6088 169.815H75.3636L78.4092 177.766H86.843L71.791 139.766H63.1229ZM62.3029 162.741L67.4569 149.412L72.6109 162.741H62.3029Z" fill="white"/>
</g>
<rect x="186.378" y="222.064" width="98.1417" height="97.9352" rx="48.9676" fill="white" fill-opacity="0.2"/>
<path d="M228.886 276.189C228.886 275.17 229.705 274.343 230.716 274.343C231.726 274.343 232.545 275.17 232.545 276.189V279.592C232.545 280.611 231.726 281.438 230.716 281.438C229.705 281.438 228.886 280.611 228.886 279.592V276.189Z" fill="white"/>
<path d="M240.091 274.343C239.08 274.343 238.261 275.17 238.261 276.189V279.592C238.261 280.611 239.08 281.438 240.091 281.438C241.101 281.438 241.92 280.611 241.92 279.592V276.189C241.92 275.17 241.101 274.343 240.091 274.343Z" fill="white"/>
<path fill-rule="evenodd" clip-rule="evenodd" d="M257.949 274.438V279.526C257.947 280.183 257.625 280.824 257.099 281.212C250.897 285.794 243.245 289.479 235.449 289.479C226.824 289.479 218.189 284.464 213.798 281.212C213.273 280.824 212.95 280.183 212.949 279.526V274.438C212.949 273.768 213.16 273.121 213.551 272.582L214.92 270.711C215.654 269.708 216.745 269.443 217.907 269.443C218.346 264.391 219.384 260.787 221.864 258.147C226.589 253.096 232.861 252.585 235.449 252.585C238.036 252.585 244.308 253.096 249.033 258.147C251.511 260.787 252.552 264.391 252.99 269.443C254.155 269.443 255.241 269.703 255.974 270.711L257.344 272.584C257.738 273.124 257.949 273.768 257.949 274.438ZM249.365 272.125C249.305 270.966 248.372 270.511 247.402 270.189C246.379 270.837 245.129 271.092 243.934 271.092C242.663 271.092 240.292 270.785 238.32 268.799C237.822 268.299 237.482 267.516 237.252 266.647C236.653 266.586 236.053 266.554 235.452 266.551C234.917 266.551 234.301 266.582 233.646 266.647C233.415 267.516 233.075 268.299 232.577 268.799C230.608 270.785 228.235 271.092 226.963 271.092C225.768 271.092 224.515 270.84 223.493 270.189C222.526 270.51 221.597 270.972 221.535 272.125C221.432 274.303 221.423 276.479 221.414 278.656C221.41 279.749 221.405 280.842 221.389 281.936C221.393 282.57 221.773 283.16 222.345 283.423C227 285.563 231.402 286.641 235.452 286.641C239.496 286.641 243.897 285.563 248.549 283.423C249.122 283.16 249.501 282.57 249.506 281.936C249.561 278.669 249.516 275.388 249.362 272.125H249.365ZM222.399 267.57C223.158 268.336 224.592 268.847 226.139 268.847C227.321 268.847 229.571 268.591 231.427 266.69C232.242 265.895 232.749 263.909 232.692 261.894C232.636 260.276 232.186 258.942 231.511 258.374C230.78 257.722 229.121 257.438 227.264 257.608C225.296 257.807 223.636 258.46 222.792 259.368C220.964 261.383 221.358 266.491 222.399 267.57ZM233.874 262.603C233.93 262.915 233.958 263.256 233.986 263.625C233.986 263.88 233.986 264.136 233.958 264.419C234.521 264.363 234.999 264.363 235.449 264.363C235.899 264.363 236.377 264.363 236.939 264.419C236.911 264.136 236.911 263.88 236.911 263.625C236.939 263.256 236.967 262.915 237.024 262.603C236.433 262.546 235.899 262.518 235.449 262.518C234.999 262.518 234.464 262.546 233.874 262.603ZM238.205 261.894C238.149 263.909 238.655 265.895 239.471 266.69C241.327 268.591 243.577 268.847 244.758 268.847C246.305 268.847 247.739 268.336 248.499 267.57C249.539 266.491 249.933 261.383 248.105 259.368C247.261 258.46 245.602 257.807 243.633 257.608C241.777 257.438 240.117 257.722 239.386 258.374C238.711 258.942 238.261 260.276 238.205 261.894Z" fill="white"/>
<rect x="72.6772" y="222.064" width="98.1417" height="97.9352" rx="48.9676" fill="white" fill-opacity="0.2"/>
<mask id="mask1_400_670" style="mask-type:luminance" maskUnits="userSpaceOnUse" x="100" y="248" width="45" height="46">
<path d="M144.148 248.908H100.094V293.159H144.148V248.908Z" fill="white"/>
</mask>
<g mask="url(#mask1_400_670)">
<path d="M142.586 253.675L133.523 249.296C132.468 248.784 131.214 249 130.389 249.828L113.031 265.738L105.466 259.975C104.764 259.435 103.774 259.479 103.121 260.076L100.698 262.294C99.8957 263.022 99.8957 264.29 100.691 265.017L107.253 271.031L100.691 277.045C99.8957 277.772 99.8957 279.04 100.698 279.768L103.121 281.986C103.781 282.583 104.764 282.628 105.466 282.087L113.031 276.318L130.398 292.234C131.215 293.062 132.47 293.278 133.524 292.766L142.595 288.38C143.549 287.92 144.151 286.954 144.151 285.888V256.164C144.151 255.105 143.541 254.133 142.588 253.672L142.586 253.675ZM133.141 281.08L119.962 271.032L133.141 260.985V281.08Z" fill="white"/>
</g>
<rect x="128.929" y="25" width="98.1417" height="97.9352" rx="48.9676" fill="white" fill-opacity="0.2"/>
<path d="M197.533 69.8493C198.567 66.7577 198.211 63.3709 196.556 60.5588C194.068 56.2455 189.066 54.0264 184.18 55.0707C182.007 52.6331 178.884 51.2469 175.611 51.2668C170.617 51.2555 166.186 54.4563 164.65 59.1868C161.442 59.8408 158.672 61.84 157.052 64.6734C154.545 68.9752 155.117 74.398 158.466 78.0871C157.431 81.1787 157.787 84.5654 159.442 87.3777C161.93 91.6908 166.933 93.91 171.818 92.8657C173.99 95.3033 177.114 96.6894 180.388 96.6681C185.384 96.6809 189.817 93.4772 191.353 88.7426C194.561 88.0885 197.33 86.0893 198.951 83.2559C201.455 78.954 200.882 73.5354 197.534 69.8466L197.533 69.8493ZM180.391 93.7015C178.391 93.7041 176.454 93.0075 174.92 91.7321C174.989 91.6951 175.11 91.6286 175.189 91.5802L184.27 86.359C184.734 86.0964 185.02 85.6041 185.017 85.0721V72.3267L188.855 74.5329C188.896 74.5528 188.923 74.5925 188.929 74.6379V85.1926C188.923 89.8861 185.105 93.6914 180.391 93.7015ZM162.029 85.8935C161.027 84.1712 160.666 82.152 161.01 80.1927C161.077 80.2323 161.195 80.3047 161.279 80.3531L170.36 85.5743C170.821 85.8424 171.391 85.8424 171.852 85.5743L182.939 79.2008V83.6134C182.942 83.6589 182.92 83.7028 182.885 83.7312L173.705 89.008C169.616 91.3517 164.393 89.9584 162.029 85.8935ZM159.639 66.1589C160.636 64.4336 162.211 63.1141 164.087 62.4288C164.087 62.5068 164.082 62.6445 164.082 62.7409V73.1851C164.08 73.7157 164.365 74.2081 164.828 74.4704L175.914 80.8425L172.076 83.0487C172.038 83.0742 171.989 83.0785 171.947 83.0601L162.766 77.7793C158.685 75.4269 157.287 70.2282 159.639 66.1589ZM191.172 73.4646L180.086 67.0911L183.924 64.8862C183.962 64.8607 184.011 64.8564 184.053 64.8749L193.234 70.1514C197.322 72.5025 198.723 77.7083 196.361 81.7775C195.362 83.5001 193.789 84.8194 191.915 85.5062V74.7499C191.919 74.2193 191.634 73.7285 191.172 73.4646ZM194.992 67.7409C194.924 67.6998 194.806 67.6288 194.722 67.5806L185.641 62.3593C185.181 62.0911 184.61 62.0911 184.149 62.3593L173.062 68.7326V64.3201C173.06 64.2747 173.081 64.2307 173.117 64.2023L182.296 58.9299C186.385 56.5818 191.612 57.9793 193.97 62.0514C194.966 63.771 195.326 65.7843 194.989 67.7409H194.992ZM170.976 75.6056L167.137 73.3992C167.095 73.3793 167.068 73.3396 167.062 73.2942V62.7395C167.065 58.0403 170.895 54.2322 175.615 54.235C177.612 54.235 179.544 54.9331 181.079 56.2044C181.009 56.2412 180.889 56.3079 180.81 56.3562L171.728 61.5775C171.264 61.84 170.979 62.3309 170.982 62.863L170.976 75.6027V75.6056ZM173.061 71.1305L177.999 68.2914L182.937 71.1292V76.8058L177.999 79.6437L173.061 76.8058V71.1305Z" fill="white"/>
<rect x="231.858" y="109.798" width="98.1417" height="97.9352" rx="48.9676" fill="white" fill-opacity="0.2"/>
<g clip-path="url(#clip1_400_670)">
<path d="M307.929 158.82C300.923 159.25 294.317 162.227 289.353 167.19C284.39 172.153 281.413 178.76 280.983 185.766H280.875C280.446 178.76 277.469 172.152 272.506 167.189C267.543 162.226 260.935 159.249 253.929 158.82V158.712C260.935 158.282 267.543 155.306 272.506 150.342C277.469 145.379 280.446 138.772 280.875 131.766H280.983C281.413 138.771 284.39 145.378 289.353 150.342C294.317 155.305 300.923 158.282 307.929 158.712V158.82Z" fill="white"/>
</g>
<defs>
<clipPath id="clip0_400_670">
<rect width="54" height="38" fill="white" transform="translate(48.0708 139.766)"/>
</clipPath>
<clipPath id="clip1_400_670">
<rect width="54" height="54" fill="white" transform="translate(253.929 131.766)"/>
</clipPath>
</defs>
</svg>
