<svg width="24" height="24" viewBox="0 0 24 24" fill="none" xmlns="http://www.w3.org/2000/svg">
<g clip-path="url(#clip0_7_27)">
<path fill-rule="evenodd" clip-rule="evenodd" d="M4.92188 0H19.0781C21.7935 0.00726563 23.9927 2.2065 24 4.92169V19.0781C23.9927 21.7934 21.7935 23.9927 19.0783 23.9999L4.92188 24C2.20659 23.9927 0.0073125 21.7934 9.375e-05 19.0783L0 4.92188C0.0073125 2.2065 2.20659 0.00726563 4.92173 0H4.92188Z" fill="black"/>
<path d="M17.2922 7.18973C16.2902 6.73145 15.2325 6.40624 14.1461 6.22237C13.998 6.48826 13.864 6.76167 13.7444 7.04151C13.1665 6.95435 12.5829 6.91047 11.9984 6.91026C11.415 6.91026 10.8286 6.95461 10.2523 7.04039C10.1346 6.76256 9.99793 6.48708 9.84957 6.22223C8.76309 6.40786 7.7053 6.73372 6.70271 7.19165C4.71151 10.1373 4.17188 13.0094 4.44169 15.8407C5.60767 16.7019 6.91263 17.3569 8.29988 17.7772C8.61099 17.3573 8.88966 16.9102 9.12629 16.4449C8.67484 16.2767 8.23919 16.0688 7.82448 15.8236C7.9336 15.7445 8.04034 15.663 8.14346 15.5838C9.34937 16.1502 10.667 16.4456 12.0002 16.4456C13.3334 16.4456 14.651 16.1502 15.857 15.5837C15.9614 15.6689 16.0681 15.7504 16.176 15.8235C15.7604 16.0692 15.324 16.2776 14.8718 16.4465C15.1092 16.9127 15.3857 17.3581 15.6983 17.7777C17.0868 17.3587 18.3928 16.7038 19.559 15.8415L19.5587 15.8419C19.8753 12.5585 19.0179 9.71283 17.2922 7.18973ZM9.46749 14.0995C8.71562 14.0995 8.09443 13.4171 8.09443 12.5777C8.09443 11.7382 8.69401 11.0499 9.4651 11.0499C10.2362 11.0499 10.8526 11.7382 10.8394 12.5777C10.8262 13.4171 10.2338 14.0995 9.46749 14.0995ZM14.5329 14.0995C13.7798 14.0995 13.161 13.4171 13.161 12.5777C13.161 11.7382 13.7606 11.0499 14.5329 11.0499C15.3052 11.0499 15.9167 11.7382 15.9036 12.5777C15.8904 13.4171 15.2992 14.0995 14.5329 14.0995Z" fill="white"/>
</g>
<defs>
<clipPath id="clip0_7_27">
<rect width="24" height="24" fill="white"/>
</clipPath>
</defs>
</svg>
