<svg width="25" height="25" viewBox="0 0 25 25" fill="none" xmlns="http://www.w3.org/2000/svg">
<mask id="mask0_21_548" style="mask-type:alpha" maskUnits="userSpaceOnUse" x="0" y="0" width="25" height="25">
<rect x="0.817383" y="0.315796" width="24" height="24" fill="current"/>
</mask>
<g mask="url(#mask0_21_548)">
<path d="M12.8174 20.3158C12.0174 19.6825 11.1507 19.1908 10.2174 18.8408C9.28405 18.4908 8.31738 18.3158 7.31738 18.3158C6.61738 18.3158 5.92988 18.4075 5.25488 18.5908C4.57988 18.7741 3.93405 19.0325 3.31738 19.3658C2.96738 19.5491 2.62988 19.5408 2.30488 19.3408C1.97988 19.1408 1.81738 18.8491 1.81738 18.4658V6.4158C1.81738 6.23246 1.86322 6.05746 1.95488 5.8908C2.04655 5.72413 2.18405 5.59913 2.36738 5.5158C3.13405 5.1158 3.93405 4.8158 4.76738 4.6158C5.60072 4.4158 6.45072 4.3158 7.31738 4.3158C8.28405 4.3158 9.22988 4.4408 10.1549 4.6908C11.0799 4.9408 11.9674 5.3158 12.8174 5.8158V17.9158C13.6674 17.3825 14.559 16.9825 15.4924 16.7158C16.4257 16.4491 17.3674 16.3158 18.3174 16.3158C18.9174 16.3158 19.5049 16.3658 20.0799 16.4658C20.6549 16.5658 21.234 16.7158 21.8174 16.9158V4.9158C22.0674 4.99913 22.3132 5.08663 22.5549 5.1783C22.7966 5.26996 23.0341 5.38246 23.2674 5.5158C23.4507 5.59913 23.5882 5.72413 23.6799 5.8908C23.7716 6.05746 23.8174 6.23246 23.8174 6.4158V18.4658C23.8174 18.8491 23.6549 19.1408 23.3299 19.3408C23.0049 19.5408 22.6674 19.5491 22.3174 19.3658C21.7007 19.0325 21.0549 18.7741 20.3799 18.5908C19.7049 18.4075 19.0174 18.3158 18.3174 18.3158C17.3174 18.3158 16.3507 18.4908 15.4174 18.8408C14.484 19.1908 13.6174 19.6825 12.8174 20.3158ZM14.8174 15.3158V5.8158L19.8174 0.815796V10.8158L14.8174 15.3158ZM10.8174 16.9408V7.0408C10.2674 6.80746 9.69655 6.6283 9.10488 6.5033C8.51322 6.3783 7.91738 6.3158 7.31738 6.3158C6.70072 6.3158 6.10072 6.37413 5.51738 6.4908C4.93405 6.60746 4.36738 6.78246 3.81738 7.0158V16.9408C4.40072 16.7241 4.97988 16.5658 5.55488 16.4658C6.12988 16.3658 6.71738 16.3158 7.31738 16.3158C7.91738 16.3158 8.50488 16.3658 9.07988 16.4658C9.65488 16.5658 10.234 16.7241 10.8174 16.9408Z" fill="current"/>
</g>
</svg>
