<svg width="456" height="577" viewBox="0 0 456 577" fill="none" xmlns="http://www.w3.org/2000/svg">
<rect width="456" height="577" rx="8" fill="white"/>
<path d="M0 8C0 3.58172 3.58172 0 8 0H135V577H0V8Z" fill="#EAEAEA"/>
<path d="M38.2472 20.2727H40.3139L42.304 24.0312H42.3892L44.3793 20.2727H46.446L43.2628 25.9148V29H41.4304V25.9148L38.2472 20.2727ZM49.006 29.1278C48.3441 29.1278 47.7717 28.9872 47.2887 28.706C46.8086 28.4219 46.4379 28.027 46.1765 27.5213C45.9151 27.0128 45.7844 26.4233 45.7844 25.7528C45.7844 25.0767 45.9151 24.4858 46.1765 23.9801C46.4379 23.4716 46.8086 23.0767 47.2887 22.7955C47.7717 22.5114 48.3441 22.3693 49.006 22.3693C49.668 22.3693 50.239 22.5114 50.7191 22.7955C51.2021 23.0767 51.5742 23.4716 51.8356 23.9801C52.0969 24.4858 52.2276 25.0767 52.2276 25.7528C52.2276 26.4233 52.0969 27.0128 51.8356 27.5213C51.5742 28.027 51.2021 28.4219 50.7191 28.706C50.239 28.9872 49.668 29.1278 49.006 29.1278ZM49.0146 27.7216C49.3157 27.7216 49.5671 27.6364 49.7688 27.4659C49.9705 27.2926 50.1225 27.0568 50.2248 26.7585C50.3299 26.4602 50.3825 26.1207 50.3825 25.7401C50.3825 25.3594 50.3299 25.0199 50.2248 24.7216C50.1225 24.4233 49.9705 24.1875 49.7688 24.0142C49.5671 23.8409 49.3157 23.7543 49.0146 23.7543C48.7106 23.7543 48.4549 23.8409 48.2475 24.0142C48.043 24.1875 47.8881 24.4233 47.783 24.7216C47.6808 25.0199 47.6296 25.3594 47.6296 25.7401C47.6296 26.1207 47.6808 26.4602 47.783 26.7585C47.8881 27.0568 48.043 27.2926 48.2475 27.4659C48.4549 27.6364 48.7106 27.7216 49.0146 27.7216ZM57.6055 26.2131V22.4545H59.4208V29H57.6779V27.8111H57.6097C57.462 28.1946 57.2163 28.5028 56.8725 28.7358C56.5316 28.9687 56.1154 29.0852 55.6239 29.0852C55.1864 29.0852 54.8015 28.9858 54.4691 28.7869C54.1367 28.5881 53.8768 28.3054 53.6893 27.9389C53.5046 27.5724 53.4109 27.1335 53.408 26.6222V22.4545H55.2234V26.2983C55.2262 26.6847 55.3299 26.9901 55.5344 27.2145C55.739 27.4389 56.0131 27.5511 56.3569 27.5511C56.5756 27.5511 56.7802 27.5014 56.9705 27.402C57.1609 27.2997 57.3143 27.1491 57.4308 26.9503C57.5501 26.7514 57.6083 26.5057 57.6055 26.2131ZM60.8729 29V22.4545H62.6328V23.5966H62.701C62.8203 23.1903 63.0206 22.8835 63.3018 22.6761C63.5831 22.4659 63.907 22.3608 64.2734 22.3608C64.3643 22.3608 64.4624 22.3665 64.5675 22.3778C64.6726 22.3892 64.7649 22.4048 64.8445 22.4247V24.0355C64.7592 24.0099 64.6413 23.9872 64.4908 23.9673C64.3402 23.9474 64.2024 23.9375 64.0774 23.9375C63.8104 23.9375 63.5717 23.9957 63.3615 24.1122C63.1541 24.2259 62.9893 24.3849 62.8672 24.5895C62.7479 24.794 62.6882 25.0298 62.6882 25.2969V29H60.8729ZM73.5174 23.3281H71.6509C71.6168 23.0866 71.5472 22.8722 71.4421 22.6847C71.337 22.4943 71.2021 22.3324 71.0373 22.1989C70.8725 22.0653 70.6822 21.9631 70.4663 21.892C70.2532 21.821 70.0217 21.7855 69.7717 21.7855C69.32 21.7855 68.9265 21.8977 68.5913 22.1222C68.256 22.3437 67.9961 22.6676 67.8114 23.0938C67.6268 23.517 67.5344 24.0312 67.5344 24.6364C67.5344 25.2585 67.6268 25.7812 67.8114 26.2045C67.9989 26.6278 68.2603 26.9474 68.5955 27.1634C68.9308 27.3793 69.3185 27.4872 69.7589 27.4872C70.006 27.4872 70.2347 27.4545 70.445 27.3892C70.658 27.3239 70.8469 27.2287 71.0117 27.1037C71.1765 26.9759 71.3129 26.821 71.4208 26.6392C71.5316 26.4574 71.6083 26.25 71.6509 26.017L73.5174 26.0256C73.4691 26.4261 73.3484 26.8125 73.1552 27.1847C72.9648 27.554 72.7077 27.8849 72.3839 28.1776C72.0629 28.4673 71.6793 28.6974 71.2333 28.8679C70.7901 29.0355 70.2887 29.1193 69.729 29.1193C68.9506 29.1193 68.2546 28.9432 67.641 28.5909C67.0302 28.2386 66.5472 27.7287 66.1921 27.0611C65.8398 26.3935 65.6637 25.5852 65.6637 24.6364C65.6637 23.6847 65.8427 22.875 66.2006 22.2074C66.5586 21.5398 67.0444 21.0312 67.658 20.6818C68.2717 20.3295 68.962 20.1534 69.729 20.1534C70.2347 20.1534 70.7035 20.2244 71.1353 20.3665C71.57 20.5085 71.9549 20.7159 72.2901 20.9886C72.6254 21.2585 72.8981 21.5895 73.1083 21.9815C73.3214 22.3736 73.4577 22.8224 73.5174 23.3281ZM77.7638 29.1278C77.1019 29.1278 76.5295 28.9872 76.0465 28.706C75.5664 28.4219 75.1957 28.027 74.9343 27.5213C74.6729 27.0128 74.5423 26.4233 74.5423 25.7528C74.5423 25.0767 74.6729 24.4858 74.9343 23.9801C75.1957 23.4716 75.5664 23.0767 76.0465 22.7955C76.5295 22.5114 77.1019 22.3693 77.7638 22.3693C78.4258 22.3693 78.9968 22.5114 79.4769 22.7955C79.9599 23.0767 80.332 23.4716 80.5934 23.9801C80.8548 24.4858 80.9854 25.0767 80.9854 25.7528C80.9854 26.4233 80.8548 27.0128 80.5934 27.5213C80.332 28.027 79.9599 28.4219 79.4769 28.706C78.9968 28.9872 78.4258 29.1278 77.7638 29.1278ZM77.7724 27.7216C78.0735 27.7216 78.3249 27.6364 78.5266 27.4659C78.7283 27.2926 78.8803 27.0568 78.9826 26.7585C79.0877 26.4602 79.1403 26.1207 79.1403 25.7401C79.1403 25.3594 79.0877 25.0199 78.9826 24.7216C78.8803 24.4233 78.7283 24.1875 78.5266 24.0142C78.3249 23.8409 78.0735 23.7543 77.7724 23.7543C77.4684 23.7543 77.2127 23.8409 77.0053 24.0142C76.8008 24.1875 76.646 24.4233 76.5408 24.7216C76.4386 25.0199 76.3874 25.3594 76.3874 25.7401C76.3874 26.1207 76.4386 26.4602 76.5408 26.7585C76.646 27.0568 76.8008 27.2926 77.0053 27.4659C77.2127 27.6364 77.4684 27.7216 77.7724 27.7216ZM82.1658 29V22.4545H83.896V23.6094H83.9727C84.109 23.2259 84.3363 22.9233 84.6545 22.7017C84.9727 22.4801 85.3533 22.3693 85.7965 22.3693C86.2454 22.3693 86.6275 22.4815 86.9428 22.706C87.2582 22.9276 87.4684 23.2287 87.5735 23.6094H87.6417C87.7752 23.2344 88.0167 22.9347 88.3661 22.7102C88.7184 22.483 89.1346 22.3693 89.6147 22.3693C90.2255 22.3693 90.7212 22.5639 91.1019 22.9531C91.4854 23.3395 91.6772 23.8878 91.6772 24.598V29H89.8661V24.956C89.8661 24.5923 89.7695 24.3196 89.5763 24.1378C89.3832 23.956 89.1417 23.8651 88.8519 23.8651C88.5224 23.8651 88.2653 23.9702 88.0806 24.1804C87.896 24.3878 87.8036 24.6619 87.8036 25.0028V29H86.0437V24.9176C86.0437 24.5966 85.9513 24.3409 85.7667 24.1506C85.5849 23.9602 85.3448 23.8651 85.0465 23.8651C84.8448 23.8651 84.663 23.9162 84.5011 24.0185C84.342 24.1179 84.2156 24.2585 84.1218 24.4403C84.0281 24.6193 83.9812 24.8295 83.9812 25.071V29H82.1658ZM93.1112 31.4545V22.4545H94.9009V23.554H94.9819C95.0614 23.3778 95.1765 23.1989 95.3271 23.017C95.4805 22.8324 95.6793 22.679 95.9237 22.5568C96.1708 22.4318 96.4776 22.3693 96.8441 22.3693C97.3214 22.3693 97.7617 22.4943 98.1651 22.7443C98.5685 22.9915 98.891 23.3651 99.1325 23.8651C99.3739 24.3622 99.4947 24.9858 99.4947 25.7358C99.4947 26.4659 99.3768 27.0824 99.141 27.5852C98.908 28.0852 98.5898 28.4645 98.1864 28.723C97.7859 28.9787 97.337 29.1065 96.8398 29.1065C96.4876 29.1065 96.1879 29.0483 95.9407 28.9318C95.6964 28.8153 95.4961 28.669 95.3398 28.4929C95.1836 28.3139 95.0643 28.1335 94.9819 27.9517H94.9265V31.4545H93.1112ZM94.8881 25.7273C94.8881 26.1165 94.9421 26.456 95.0501 26.7457C95.158 27.0355 95.3143 27.2614 95.5188 27.4233C95.7234 27.5824 95.9719 27.6619 96.2646 27.6619C96.56 27.6619 96.81 27.581 97.0146 27.419C97.2191 27.2543 97.3739 27.027 97.479 26.7372C97.587 26.4446 97.641 26.108 97.641 25.7273C97.641 25.3494 97.5884 25.017 97.4833 24.7301C97.3782 24.4432 97.2234 24.2187 97.0188 24.0568C96.8143 23.8949 96.5629 23.8139 96.2646 23.8139C95.9691 23.8139 95.7191 23.892 95.5146 24.0483C95.3129 24.2045 95.158 24.4261 95.0501 24.7131C94.9421 25 94.8881 25.3381 94.8881 25.7273ZM102.571 29.1236C102.154 29.1236 101.782 29.0511 101.455 28.9062C101.128 28.7585 100.87 28.5412 100.679 28.2543C100.492 27.9645 100.398 27.6037 100.398 27.1719C100.398 26.8082 100.465 26.5028 100.598 26.2557C100.732 26.0085 100.914 25.8097 101.144 25.6591C101.374 25.5085 101.635 25.3949 101.928 25.3182C102.223 25.2415 102.533 25.1875 102.857 25.1562C103.238 25.1165 103.544 25.0795 103.777 25.0455C104.01 25.0085 104.179 24.9545 104.284 24.8835C104.39 24.8125 104.442 24.7074 104.442 24.5682V24.5426C104.442 24.2727 104.357 24.0639 104.186 23.9162C104.019 23.7685 103.78 23.6946 103.471 23.6946C103.144 23.6946 102.884 23.767 102.691 23.9119C102.498 24.054 102.37 24.233 102.307 24.4489L100.628 24.3125C100.713 23.9148 100.881 23.571 101.131 23.2812C101.381 22.9886 101.703 22.7642 102.098 22.608C102.496 22.4489 102.956 22.3693 103.479 22.3693C103.843 22.3693 104.191 22.4119 104.523 22.4972C104.858 22.5824 105.155 22.7145 105.414 22.8935C105.675 23.0724 105.881 23.3026 106.032 23.5838C106.182 23.8622 106.257 24.196 106.257 24.5852V29H104.536V28.0923H104.485C104.38 28.2969 104.239 28.4773 104.063 28.6335C103.887 28.7869 103.675 28.9077 103.428 28.9957C103.181 29.081 102.895 29.1236 102.571 29.1236ZM103.091 27.8707C103.358 27.8707 103.594 27.8182 103.799 27.7131C104.003 27.6051 104.164 27.4602 104.28 27.2784C104.397 27.0966 104.455 26.8906 104.455 26.6605V25.9659C104.398 26.0028 104.32 26.0369 104.221 26.0682C104.124 26.0966 104.015 26.1236 103.892 26.1491C103.77 26.1719 103.648 26.1932 103.526 26.2131C103.404 26.2301 103.293 26.2457 103.194 26.2599C102.98 26.2912 102.794 26.3409 102.635 26.4091C102.476 26.4773 102.353 26.5696 102.265 26.6861C102.176 26.7997 102.132 26.9418 102.132 27.1122C102.132 27.3594 102.222 27.5483 102.401 27.679C102.583 27.8068 102.813 27.8707 103.091 27.8707ZM109.481 25.2159V29H107.666V22.4545H109.396V23.6094H109.473C109.618 23.2287 109.86 22.9276 110.201 22.706C110.542 22.4815 110.956 22.3693 111.441 22.3693C111.896 22.3693 112.292 22.4688 112.63 22.6676C112.968 22.8665 113.231 23.1506 113.419 23.5199C113.606 23.8864 113.7 24.3239 113.7 24.8324V29H111.885V25.1562C111.887 24.7557 111.785 24.4432 111.578 24.2188C111.37 23.9915 111.085 23.8778 110.721 23.8778C110.477 23.8778 110.261 23.9304 110.074 24.0355C109.889 24.1406 109.744 24.294 109.639 24.4957C109.537 24.6946 109.484 24.9347 109.481 25.2159ZM116.017 31.4545C115.787 31.4545 115.571 31.4361 115.369 31.3991C115.17 31.3651 115.006 31.321 114.875 31.267L115.284 29.9119C115.497 29.9773 115.689 30.0128 115.859 30.0185C116.033 30.0241 116.182 29.9844 116.307 29.8991C116.435 29.8139 116.538 29.669 116.618 29.4645L116.724 29.1875L114.376 22.4545H116.286L117.641 27.2614H117.709L119.077 22.4545H120.999L118.455 29.7074C118.332 30.0597 118.166 30.3665 117.956 30.6278C117.749 30.892 117.486 31.0952 117.168 31.2372C116.849 31.3821 116.466 31.4545 116.017 31.4545Z" fill="#111111"/>
<rect x="18" y="17" width="15" height="15" fill="#111111"/>
<rect x="18" y="53" width="87" height="14" rx="2" fill="#D9D9D9"/>
<rect x="18" y="97" width="78" height="14" rx="2" fill="#D9D9D9"/>
<rect x="18" y="119" width="83" height="14" rx="2" fill="#D9D9D9"/>
<rect x="18" y="273" width="83" height="14" rx="2" fill="#D9D9D9"/>
<rect x="18" y="141" width="93" height="14" rx="2" fill="#D9D9D9"/>
<rect x="18" y="295" width="93" height="14" rx="2" fill="#D9D9D9"/>
<rect x="18" y="163" width="73" height="14" rx="2" fill="#D9D9D9"/>
<rect x="18" y="317" width="73" height="14" rx="2" fill="#D9D9D9"/>
<rect x="18" y="185" width="91" height="14" rx="2" fill="#D9D9D9"/>
<rect x="18" y="207" width="60" height="14" rx="2" fill="#D9D9D9"/>
<rect x="18" y="229" width="83" height="14" rx="2" fill="#D9D9D9"/>
<rect x="18" y="251" width="87" height="14" rx="2" fill="#D9D9D9"/>
<rect x="18" y="75" width="73" height="14" rx="2" fill="#B0B0B0"/>
<rect x="158" y="62" width="79" height="33" rx="4" fill="#B0B0B0"/>
<rect x="158" y="421" width="79" height="32" rx="4" fill="#B0B0B0"/>
<rect x="158" y="216" width="280" height="172" rx="4" fill="#494949"/>
<rect x="158" y="106" width="264" height="22" rx="2" fill="#D9D9D9"/>
<rect x="158" y="465" width="280" height="22" rx="2" fill="#D9D9D9"/>
<rect x="158" y="135" width="277" height="20" rx="2" fill="#D9D9D9"/>
<rect x="158" y="492" width="255" height="22" rx="2" fill="#D9D9D9"/>
<rect x="158" y="162" width="141" height="20" rx="2" fill="#D9D9D9"/>
<rect x="158" y="520" width="202" height="21" rx="2" fill="#D9D9D9"/>
<rect x="166" y="231" width="35.9531" height="27" rx="2" fill="#84D178"/>
<rect width="48.3984" height="25" rx="2" transform="matrix(-1 0 0 1 402 309)" fill="#84D178"/>
<rect x="304.281" y="231" width="36.4141" height="27" rx="2" fill="#83B2E7"/>
<rect x="166" y="269" width="56.6953" height="28" rx="2" fill="#83B2E7"/>
<rect width="56.6953" height="28" rx="2" transform="matrix(-1 0 0 1 360.055 344)" fill="#D2B061"/>
<rect x="268.328" y="231" width="30.8828" height="27" rx="2" fill="#D2B061"/>
<rect width="48.8594" height="25" rx="2" transform="matrix(-1 0 0 1 214.859 309)" fill="#84D178"/>
<rect x="206.562" y="231" width="56.6953" height="27" rx="2" fill="#83B2E7"/>
<rect x="324.102" y="269" width="35.9531" height="28" rx="2" fill="#84D178"/>
<rect width="35.9531" height="28" rx="2" transform="matrix(-1 0 0 1 201.953 344)" fill="#84D178"/>
<rect width="42.4062" height="25" rx="2" transform="matrix(-1 0 0 1 263.258 309)" fill="#D2B061"/>
<rect x="257.727" y="269" width="61.7656" height="28" rx="2" fill="#E07973"/>
<rect width="61.7656" height="28" rx="2" transform="matrix(-1 0 0 1 268.328 344)" fill="#E07973"/>
<rect width="76.5156" height="25" rx="2" transform="matrix(-1 0 0 1 346.688 309)" fill="#83B2E7"/>
<rect x="227.305" y="269" width="25.8125" height="28" rx="2" fill="#84D178"/>
<rect width="25.8125" height="28" rx="2" transform="matrix(-1 0 0 1 298.75 344)" fill="#84D178"/>
<path d="M164.42 32H159.264V17.4545H164.463C165.926 17.4545 167.186 17.7457 168.241 18.3281C169.297 18.9058 170.109 19.7367 170.678 20.821C171.25 21.9053 171.537 23.2027 171.537 24.7131C171.537 26.2282 171.25 27.5303 170.678 28.6193C170.109 29.7083 169.293 30.544 168.227 31.1264C167.167 31.7088 165.898 32 164.42 32ZM162.339 29.3651H164.293C165.202 29.3651 165.966 29.2041 166.587 28.8821C167.212 28.5554 167.68 28.0511 167.993 27.3693C168.31 26.6828 168.469 25.7973 168.469 24.7131C168.469 23.6383 168.31 22.7599 167.993 22.0781C167.68 21.3963 167.214 20.8944 166.594 20.5724C165.973 20.2505 165.209 20.0895 164.3 20.0895H162.339V29.3651ZM178.687 32.2131C177.584 32.2131 176.63 31.9787 175.825 31.5099C175.025 31.0365 174.407 30.3783 173.971 29.5355C173.536 28.688 173.318 27.7055 173.318 26.5881C173.318 25.4612 173.536 24.4763 173.971 23.6335C174.407 22.786 175.025 22.1278 175.825 21.6591C176.63 21.1856 177.584 20.9489 178.687 20.9489C179.79 20.9489 180.742 21.1856 181.542 21.6591C182.347 22.1278 182.967 22.786 183.403 23.6335C183.839 24.4763 184.056 25.4612 184.056 26.5881C184.056 27.7055 183.839 28.688 183.403 29.5355C182.967 30.3783 182.347 31.0365 181.542 31.5099C180.742 31.9787 179.79 32.2131 178.687 32.2131ZM178.701 29.8693C179.203 29.8693 179.622 29.7273 179.958 29.4432C180.295 29.1544 180.548 28.7614 180.718 28.2642C180.894 27.767 180.981 27.2012 180.981 26.5668C180.981 25.9323 180.894 25.3665 180.718 24.8693C180.548 24.3722 180.295 23.9792 179.958 23.6903C179.622 23.4015 179.203 23.2571 178.701 23.2571C178.195 23.2571 177.769 23.4015 177.423 23.6903C177.082 23.9792 176.824 24.3722 176.649 24.8693C176.478 25.3665 176.393 25.9323 176.393 26.5668C176.393 27.2012 176.478 27.767 176.649 28.2642C176.824 28.7614 177.082 29.1544 177.423 29.4432C177.769 29.7273 178.195 29.8693 178.701 29.8693ZM190.953 32.2131C189.835 32.2131 188.874 31.9763 188.069 31.5028C187.269 31.0246 186.654 30.3617 186.223 29.5142C185.797 28.6667 185.583 27.6913 185.583 26.5881C185.583 25.4706 185.799 24.4905 186.23 23.6477C186.665 22.8002 187.283 22.1397 188.083 21.6662C188.884 21.188 189.835 20.9489 190.939 20.9489C191.89 20.9489 192.724 21.1217 193.439 21.4673C194.154 21.813 194.719 22.2983 195.136 22.9233C195.553 23.5483 195.782 24.2822 195.825 25.125H192.97C192.889 24.5805 192.676 24.1425 192.331 23.8111C191.99 23.4749 191.542 23.3068 190.988 23.3068C190.52 23.3068 190.11 23.4347 189.76 23.6903C189.414 23.9413 189.144 24.3082 188.95 24.7912C188.756 25.2741 188.659 25.8589 188.659 26.5455C188.659 27.2415 188.753 27.8333 188.943 28.321C189.137 28.8087 189.409 29.1804 189.76 29.4361C190.11 29.6918 190.52 29.8196 190.988 29.8196C191.334 29.8196 191.644 29.7486 191.919 29.6065C192.198 29.4645 192.428 29.2585 192.608 28.9886C192.792 28.714 192.913 28.3849 192.97 28.0014H195.825C195.778 28.8348 195.55 29.5687 195.143 30.2031C194.741 30.8329 194.184 31.3253 193.474 31.6804C192.764 32.0355 191.923 32.2131 190.953 32.2131ZM206.839 24.2017L204.069 24.3722C204.022 24.1354 203.92 23.9223 203.763 23.733C203.607 23.5388 203.401 23.3849 203.146 23.2713C202.895 23.1529 202.594 23.0938 202.244 23.0938C201.775 23.0938 201.379 23.1932 201.058 23.392C200.736 23.5862 200.575 23.8466 200.575 24.1733C200.575 24.4337 200.679 24.6539 200.887 24.8338C201.095 25.0137 201.453 25.1581 201.96 25.267L203.934 25.6648C204.995 25.8826 205.785 26.233 206.306 26.7159C206.827 27.1989 207.087 27.8333 207.087 28.6193C207.087 29.3343 206.877 29.9616 206.455 30.5014C206.039 31.0412 205.466 31.4626 204.737 31.7656C204.012 32.0639 203.176 32.2131 202.229 32.2131C200.785 32.2131 199.635 31.9124 198.778 31.3111C197.925 30.705 197.426 29.8812 197.279 28.8395L200.255 28.6832C200.345 29.1236 200.563 29.4598 200.908 29.6918C201.254 29.919 201.697 30.0327 202.237 30.0327C202.767 30.0327 203.193 29.9309 203.515 29.7273C203.842 29.5189 204.007 29.2514 204.012 28.9247C204.007 28.6501 203.891 28.4252 203.664 28.25C203.437 28.0701 203.086 27.9328 202.613 27.8381L200.724 27.4616C199.658 27.2486 198.865 26.8793 198.344 26.3537C197.828 25.8281 197.57 25.1581 197.57 24.3438C197.57 23.643 197.76 23.0393 198.138 22.5327C198.522 22.026 199.059 21.6354 199.751 21.3608C200.447 21.0862 201.261 20.9489 202.194 20.9489C203.572 20.9489 204.656 21.2401 205.447 21.8224C206.242 22.4048 206.706 23.1979 206.839 24.2017Z" fill="#111111"/>
</svg>
