<svg width="24" height="24" viewBox="0 0 24 24" fill="none" xmlns="http://www.w3.org/2000/svg">
<g clip-path="url(#clip0_7_33)">
<path fill-rule="evenodd" clip-rule="evenodd" d="M4.92188 0H19.0781C21.7935 0.00726563 23.9927 2.2065 24 4.92169V19.0781C23.9927 21.7934 21.7935 23.9927 19.0783 23.9999L4.92188 24C2.20659 23.9927 0.0073125 21.7934 9.375e-05 19.0783L0 4.92188C0.0073125 2.2065 2.20659 0.00726563 4.92173 0H4.92188Z" fill="black"/>
<path d="M14.9551 6.35546C17.213 4.78054 18.2255 5.08724 18.2432 5.09277C18.897 6.78352 18.4811 8.04704 18.3623 8.35254C19.1348 9.20801 19.5908 10.3079 19.5908 11.6523C19.5908 16.3785 16.7973 17.4169 14.123 17.7227C14.559 18.1097 14.9355 18.8436 14.9355 20.0049C14.9355 21.6544 14.916 22.9782 14.916 23.3857C14.916 23.7039 15.1231 24.0792 15.6855 23.9834C14.51 24.3814 13.2551 24.5996 11.9502 24.5996C10.6421 24.5996 9.38405 24.3803 8.20605 23.9805C8.78125 24.0871 8.99296 23.7078 8.99316 23.3867C8.99316 23.1015 8.97363 22.1232 8.97363 21.1045C5.64547 21.838 4.95215 19.6377 4.95215 19.6377C4.42417 18.2301 3.64495 17.8551 3.625 17.8457C2.53569 17.0919 3.7041 17.0918 3.7041 17.0918C4.9124 17.1733 5.54688 18.3545 5.54688 18.3545C6.6162 20.228 8.33875 19.699 9.03223 19.373C9.13117 18.5785 9.44842 18.0282 9.78516 17.7227C7.1308 17.4374 4.33793 16.3784 4.33789 11.6523C4.33789 10.3078 4.81359 9.20804 5.56641 8.35254C5.44763 8.04704 5.03167 6.78352 5.68555 5.09277C5.70954 5.08536 6.72249 4.78586 8.97266 6.35546C9.94774 6.08616 10.9537 5.94943 11.9639 5.94824C12.974 5.94824 14.0042 6.09075 14.9551 6.35546ZM11.9639 -3.8147e-06C18.5599 -3.8147e-06 23.9278 5.50043 23.9082 12.3047C23.908 17.7435 20.4814 22.3466 15.7275 23.9766C15.7134 23.9795 15.6993 23.9811 15.6855 23.9834C20.4553 22.3686 23.9004 17.7497 23.9004 12.2998C23.9003 5.5092 18.5535 0.00390586 11.957 -3.8147e-06C11.9593 -5.19169e-06 11.9616 -3.74257e-06 11.9639 -3.8147e-06ZM8.20605 23.9805C8.19779 23.9789 8.18908 23.9783 8.18066 23.9766C8.08615 23.9442 7.99286 23.9088 7.89941 23.874C8.00077 23.9116 8.10345 23.9456 8.20605 23.9805ZM7.89941 23.874C7.8714 23.8636 7.84335 23.8534 7.81543 23.8428C7.84334 23.8534 7.8714 23.8636 7.89941 23.874ZM6.8125 23.4062C6.76766 23.3842 6.72325 23.3614 6.67871 23.3389C6.72324 23.3614 6.76766 23.3842 6.8125 23.4062ZM6.33496 23.1572C6.28103 23.1276 6.22726 23.0978 6.17383 23.0674C6.22726 23.0978 6.28103 23.1276 6.33496 23.1572ZM5.83691 22.8682C5.79956 22.8452 5.7617 22.8231 5.72461 22.7998C5.7617 22.8231 5.79956 22.8452 5.83691 22.8682ZM4.84375 22.1885C5.12798 22.4052 5.42183 22.6092 5.72461 22.7998C5.4218 22.6092 5.12799 22.4052 4.84375 22.1885ZM4.84375 22.1885C4.79766 22.1533 4.75261 22.1169 4.70703 22.0811C4.75262 22.1169 4.79765 22.1533 4.84375 22.1885ZM4.41504 21.8447C4.37253 21.8091 4.3301 21.7735 4.28809 21.7373C4.33011 21.7735 4.37252 21.8091 4.41504 21.8447ZM3.96191 21.4463C3.94078 21.4267 3.91943 21.4074 3.89844 21.3877C3.91944 21.4074 3.94078 21.4267 3.96191 21.4463ZM3.12207 20.5889C3.36889 20.8672 3.62798 21.1337 3.89844 21.3877C3.62787 21.1337 3.36897 20.8671 3.12207 20.5889ZM3.12207 20.5889C3.10431 20.5688 3.08697 20.5485 3.06934 20.5283C3.08697 20.5485 3.10431 20.5688 3.12207 20.5889ZM2.76172 20.1641C2.73944 20.1365 2.71736 20.1088 2.69531 20.0811C2.71737 20.1088 2.73943 20.1365 2.76172 20.1641ZM2.37305 19.6582C2.47733 19.8018 2.58518 19.9424 2.69531 20.0811C2.58512 19.9425 2.47737 19.8017 2.37305 19.6582ZM1.45703 18.1894C1.72812 18.7001 2.03291 19.1889 2.36914 19.6523C2.03275 19.1889 1.72818 18.7001 1.45703 18.1894ZM1.45703 18.1894C1.44734 18.1712 1.43734 18.1531 1.42773 18.1348C1.43734 18.1531 1.44733 18.1712 1.45703 18.1894ZM0.722656 16.5225C0.856086 16.8982 1.00679 17.2654 1.17383 17.623C1.00678 17.2654 0.856049 16.8983 0.722656 16.5225ZM0.548828 15.9922C0.540981 15.9665 0.533078 15.9408 0.525391 15.915C0.533073 15.9408 0.540986 15.9665 0.548828 15.9922ZM0.390625 15.4277C0.383087 15.3981 0.375493 15.3685 0.368164 15.3389C0.375485 15.3685 0.383095 15.3981 0.390625 15.4277ZM0.22168 14.668C0.264488 14.8939 0.313517 15.1175 0.368164 15.3389C0.31358 15.1175 0.264417 14.8939 0.22168 14.668ZM0.22168 14.668C0.204842 14.5791 0.188796 14.4899 0.173828 14.4004C0.188766 14.4899 0.204871 14.5791 0.22168 14.668ZM0.143555 14.2148C0.12442 14.0888 0.107185 13.9622 0.0917969 13.835C0.107139 13.9622 0.124466 14.0888 0.143555 14.2148ZM0.0830078 13.7568C0.0684114 13.6295 0.0566867 13.5015 0.0458984 13.373C0.0566398 13.5015 0.0684587 13.6295 0.0830078 13.7568ZM0 12.3144C-5.37875e-06 12.3096 0 12.3046 0 12.2998C1.80169e-05 11.1323 0.16081 10.0036 0.456055 8.93359C0.160804 10.0047 0 11.1352 0 12.3047C1.09007e-07 12.3079 -2.56397e-06 12.3112 0 12.3144ZM4.5625 2.63476C2.68721 4.15542 1.2631 6.23956 0.537109 8.6416C1.26281 6.2383 2.68643 4.15479 4.5625 2.63476ZM11.957 -3.8147e-06C9.16256 0.00168501 6.59637 0.986872 4.5625 2.63476C6.59591 0.985881 9.16068 -3.8147e-06 11.9502 -3.8147e-06C11.9525 -3.77715e-06 11.9548 -5.16514e-06 11.957 -3.8147e-06ZM1.42773 18.1348C1.34449 17.9761 1.26504 17.8151 1.18848 17.6523C1.26503 17.8151 1.34451 17.9761 1.42773 18.1348ZM0.0078125 12.7353C0.00309014 12.5956 0.000157346 12.4553 0 12.3144C0.000110975 12.4553 0.00313984 12.5956 0.0078125 12.7353Z" fill="white"/>
</g>
<defs>
<clipPath id="clip0_7_33">
<rect width="24" height="24" fill="white"/>
</clipPath>
</defs>
</svg>
