<svg width="23" height="36" viewBox="0 0 23 36" fill="none" xmlns="http://www.w3.org/2000/svg">
<path d="M18.1475 19.957L11.1387 24.0049L4.12891 19.957L11.1387 15.9121L18.1475 19.957Z" fill="url(#paint0_linear_56_18)"/>
<path fill-rule="evenodd" clip-rule="evenodd" d="M15.4268 0C17.3996 0.000255971 18.9988 1.59947 18.999 3.57227C18.999 5.03707 18.117 6.29522 16.8555 6.84668V14.0186L20.2773 15.9941C21.5149 16.7087 22.2773 18.0299 22.2773 19.459V27.7012C22.2773 29.1302 21.5149 30.4515 20.2773 31.166L13.1387 35.2871C11.9011 36.0015 10.3762 36.0016 9.13867 35.2871L2 31.166C0.762447 30.4515 0 29.1302 0 27.7012V19.459C0 18.03 0.762446 16.7087 2 15.9941L5.42285 14.0176V6.84668C4.16122 6.29528 3.2793 5.03718 3.2793 3.57227C3.27955 1.59936 4.87862 7.70174e-05 6.85156 0H15.4268ZM20.4277 28.1738C20.4275 27.4042 19.5943 26.9238 18.9277 27.3086L13.1387 30.6504C11.9012 31.3647 10.3761 31.3648 9.13867 30.6504L3.34961 27.3086C2.68306 26.9239 1.84987 27.4043 1.84961 28.1738V28.498C1.84981 28.855 2.04044 29.1847 2.34961 29.3633L9.13867 33.2832C10.3762 33.9976 11.9012 33.9975 13.1387 33.2832L19.9277 29.3633C20.2367 29.1847 20.4275 28.8549 20.4277 28.498V28.1738ZM20.4277 24.2734C20.4276 23.5039 19.5943 23.0228 18.9277 23.4072L13.1387 26.75C11.9012 27.4643 10.3761 27.4643 9.13867 26.75L3.34961 23.4072C2.68302 23.0225 1.84977 23.5038 1.84961 24.2734V24.5977C1.84986 24.9546 2.04046 25.2844 2.34961 25.4629L9.13867 29.3828C10.3761 30.0972 11.9012 30.0971 13.1387 29.3828L19.9277 25.4629C20.2367 25.2843 20.4275 24.9545 20.4277 24.5977V24.2734ZM12.5674 14.1035C11.6832 13.5933 10.5941 13.5932 9.70996 14.1035L2.84961 18.0645C2.23115 18.4217 1.84971 19.0816 1.84961 19.7959V20.1191C1.8497 20.8335 2.23098 21.4943 2.84961 21.8516L9.70996 25.8125C10.594 26.3228 11.6833 26.3226 12.5674 25.8125L19.4277 21.8516C20.0464 21.4943 20.4276 20.8335 20.4277 20.1191V19.7959C20.4276 19.0815 20.0464 18.4217 19.4277 18.0645L12.5674 14.1035ZM9.70996 8.57422C8.92069 8.57422 8.28125 9.21464 8.28125 10.0039C8.28138 10.7931 8.92077 11.4326 9.70996 11.4326C10.4991 11.4326 11.1385 10.793 11.1387 10.0039C11.1387 9.21466 10.4992 8.57425 9.70996 8.57422ZM13.6396 9.28906C13.0478 9.2892 12.5684 9.76946 12.5684 10.3613C12.5686 10.953 13.0479 11.4325 13.6396 11.4326C14.2315 11.4326 14.7117 10.9531 14.7119 10.3613C14.7119 9.76938 14.2316 9.28906 13.6396 9.28906ZM12.2109 5.7168C11.619 5.7168 11.1387 6.19619 11.1387 6.78809C11.1387 7.38004 11.619 7.86035 12.2109 7.86035C12.8028 7.86029 13.2822 7.38 13.2822 6.78809C13.2822 6.19623 12.8028 5.71686 12.2109 5.7168ZM9.70996 2.8584C9.31549 2.8584 8.99537 3.17785 8.99512 3.57227C8.99512 3.9669 9.31533 4.28711 9.70996 4.28711C10.1046 4.28708 10.4248 3.96688 10.4248 3.57227C10.4245 3.17787 10.1044 2.85843 9.70996 2.8584Z" fill="url(#paint1_linear_56_18)"/>
<defs>
<linearGradient id="paint0_linear_56_18" x1="11.1387" y1="1.14031" x2="11.1387" y2="35.823" gradientUnits="userSpaceOnUse">
<stop stop-color="#C165FF"/>
<stop offset="1" stop-color="#7B65FF"/>
</linearGradient>
<linearGradient id="paint1_linear_56_18" x1="11.1387" y1="1.14031" x2="11.1387" y2="35.823" gradientUnits="userSpaceOnUse">
<stop stop-color="#C165FF"/>
<stop offset="1" stop-color="#7B65FF"/>
</linearGradient>
</defs>
</svg>
