<svg width="53" height="52" viewBox="0 0 53 52" fill="none" xmlns="http://www.w3.org/2000/svg">
<rect x="0.5" width="52" height="52" rx="26" fill="black"/>
<g clip-path="url(#clip0_27_284)">
<path fill-rule="evenodd" clip-rule="evenodd" d="M32.0318 11.5145C31.3071 10.8091 30.3357 10.4145 29.3243 10.4145C28.313 10.4145 27.3416 10.8091 26.6168 11.5145L12.1778 25.6745C11.9362 25.9093 11.6125 26.0407 11.2756 26.0407C10.9386 26.0407 10.615 25.9093 10.3733 25.6745C10.255 25.5595 10.161 25.4219 10.0968 25.2699C10.0326 25.1178 9.99951 24.9545 9.99951 24.7895C9.99951 24.6245 10.0326 24.4611 10.0968 24.3091C10.161 24.1571 10.255 24.0195 10.3733 23.9045L24.8123 9.7445C26.0202 8.56909 27.639 7.91141 29.3243 7.91141C31.0097 7.91141 32.6285 8.56909 33.8363 9.7445C34.5352 10.4242 35.0632 11.2596 35.3771 12.1826C35.691 13.1055 35.7819 14.0897 35.6423 15.0545C36.62 14.9155 37.6165 15.0027 38.555 15.3096C39.4936 15.6165 40.3492 16.1348 41.0558 16.8245L41.1308 16.8995C41.7223 17.4747 42.1925 18.1627 42.5135 18.9227C42.8345 19.6828 43 20.4994 43 21.3245C43 22.1496 42.8345 22.9662 42.5135 23.7263C42.1925 24.4863 41.7223 25.1743 41.1308 25.7495L28.0718 38.555C28.0324 38.5933 28.0011 38.6391 27.9797 38.6898C27.9583 38.7404 27.9473 38.7948 27.9473 38.8497C27.9473 38.9047 27.9583 38.9591 27.9797 39.0097C28.0011 39.0604 28.0324 39.1062 28.0718 39.1445L30.7538 41.7755C30.8721 41.8905 30.9662 42.0281 31.0304 42.1801C31.0946 42.3321 31.1277 42.4955 31.1277 42.6605C31.1277 42.8255 31.0946 42.9888 31.0304 43.1409C30.9662 43.2929 30.8721 43.4305 30.7538 43.5455C30.5122 43.7803 30.1885 43.9117 29.8516 43.9117C29.5146 43.9117 29.191 43.7803 28.9493 43.5455L26.2673 40.916C25.9911 40.6476 25.7715 40.3265 25.6216 39.9717C25.4716 39.6169 25.3944 39.2357 25.3944 38.8505C25.3944 38.4653 25.4716 38.0841 25.6216 37.7293C25.7715 37.3745 25.9911 37.0534 26.2673 36.785L39.3263 23.978C39.681 23.6328 39.963 23.2199 40.1555 22.7639C40.348 22.3079 40.4472 21.818 40.4472 21.323C40.4472 20.828 40.348 20.3381 40.1555 19.8821C39.963 19.426 39.681 19.0132 39.3263 18.668L39.2513 18.5945C38.5274 17.8899 37.5573 17.4952 36.547 17.4944C35.5368 17.4936 34.566 17.8866 33.8408 18.59L23.0828 29.141L23.0798 29.144L22.9328 29.2895C22.6911 29.5248 22.3672 29.6565 22.0298 29.6565C21.6925 29.6565 21.3685 29.5248 21.1268 29.2895C21.0085 29.1745 20.9145 29.0369 20.8503 28.8849C20.7861 28.7328 20.753 28.5695 20.753 28.4045C20.753 28.2395 20.7861 28.0761 20.8503 27.9241C20.9145 27.7721 21.0085 27.6345 21.1268 27.5195L32.0363 16.82C32.3901 16.4745 32.671 16.0618 32.8628 15.606C33.0545 15.1502 33.153 14.6607 33.1526 14.1663C33.1522 13.6719 33.0528 13.1825 32.8603 12.7271C32.6678 12.2717 32.3861 11.8594 32.0318 11.5145Z" fill="white"/>
<path fill-rule="evenodd" clip-rule="evenodd" d="M30.2276 15.0545C30.3459 14.9395 30.44 14.8019 30.5042 14.6499C30.5684 14.4979 30.6015 14.3345 30.6015 14.1695C30.6015 14.0045 30.5684 13.8412 30.5042 13.6892C30.44 13.5371 30.3459 13.3996 30.2276 13.2845C29.9859 13.0492 29.662 12.9175 29.3246 12.9175C28.9873 12.9175 28.6633 13.0492 28.4216 13.2845L17.7431 23.7575C17.1517 24.3327 16.6815 25.0207 16.3605 25.7807C16.0394 26.5408 15.874 27.3574 15.874 28.1825C15.874 29.0076 16.0394 29.8243 16.3605 30.5843C16.6815 31.3443 17.1517 32.0323 17.7431 32.6075C18.9511 33.7826 20.5699 34.44 22.2551 34.44C23.9404 34.44 25.5591 33.7826 26.7671 32.6075L37.4471 22.1345C37.5654 22.0195 37.6595 21.8819 37.7237 21.7299C37.7879 21.5779 37.821 21.4145 37.821 21.2495C37.821 21.0845 37.7879 20.9212 37.7237 20.7691C37.6595 20.6171 37.5654 20.4796 37.4471 20.3645C37.2054 20.1292 36.8815 19.9975 36.5441 19.9975C36.2068 19.9975 35.8828 20.1292 35.6411 20.3645L24.9626 30.8375C24.2379 31.5429 23.2665 31.9375 22.2551 31.9375C21.2438 31.9375 20.2724 31.5429 19.5476 30.8375C19.1929 30.4923 18.911 30.0795 18.7185 29.6234C18.526 29.1674 18.4268 28.6775 18.4268 28.1825C18.4268 27.6875 18.526 27.1976 18.7185 26.7416C18.911 26.2856 19.1929 25.8727 19.5476 25.5275L30.2276 15.0545Z" fill="white"/>
</g>
<defs>
<clipPath id="clip0_27_284">
<rect width="36" height="36" fill="white" transform="translate(8.5 8)"/>
</clipPath>
</defs>
</svg>
