<svg width="24" height="24" viewBox="0 0 24 24" fill="none" xmlns="http://www.w3.org/2000/svg">
<mask id="mask0_21_551" style="mask-type:alpha" maskUnits="userSpaceOnUse" x="0" y="0" width="24" height="24">
<rect width="24" height="24" fill="current"/>
</mask>
<g mask="url(#mask0_21_551)">
</g>
<g clip-path="url(#clip0_21_551)">
<path d="M18.7792 3C18.4016 3.0001 18.0302 3.09656 17.7003 3.28027C17.3703 3.46397 17.0927 3.72884 16.8937 4.0498C16.6947 4.37076 16.5809 4.7372 16.563 5.11442C16.5452 5.49165 16.6239 5.86719 16.7917 6.2055L11.9565 11.0407C11.4849 10.8065 10.9454 10.7475 10.4343 10.8742C9.92323 11.001 9.47385 11.3054 9.16643 11.7329C8.85901 12.1604 8.71356 12.6833 8.75607 13.2081C8.79857 13.733 9.02625 14.2256 9.39846 14.5981C9.77066 14.9706 10.2632 15.1987 10.788 15.2416C11.3128 15.2845 11.8358 15.1394 12.2635 14.8323C12.6913 14.5252 12.9959 14.076 13.1231 13.5651C13.2503 13.0541 13.1917 12.5145 12.9578 12.0427L17.793 7.2075C18.0926 7.35606 18.4219 7.43499 18.7564 7.43839C19.0908 7.44178 19.4216 7.36955 19.7242 7.22709C20.0268 7.08463 20.2932 6.87564 20.5037 6.61572C20.7141 6.3558 20.8631 6.05168 20.9395 5.72609C21.0158 5.40049 21.0176 5.06185 20.9447 4.73546C20.8718 4.40908 20.7261 4.10339 20.5185 3.84124C20.3108 3.57909 20.0466 3.36727 19.7455 3.2216C19.4445 3.07592 19.1144 3.00017 18.78 3H18.7792ZM10.971 5.05875C10.917 5.05875 10.8637 5.061 10.8105 5.06175C10.7565 5.06325 10.7033 5.06325 10.6493 5.0655C10.314 5.079 9.9795 5.1135 9.648 5.169L9.6255 5.17275L9.48675 5.1975L9.408 5.2125C9.33546 5.22661 9.2632 5.24212 9.19125 5.259L9.16725 5.265C8.502 5.42006 7.85929 5.6595 7.25475 5.9775L7.1385 6.04425C7.09125 6.06975 7.04475 6.09675 6.99825 6.123C6.96375 6.14325 6.9285 6.16125 6.89325 6.18225L6.885 6.186L6.858 6.201V6.2025L6.94125 6.3405L9.30375 10.263C9.39608 10.2076 9.4912 10.1571 9.58875 10.1115C9.97139 9.92888 10.3863 9.82362 10.8098 9.80175C10.863 9.79875 10.917 9.79575 10.9702 9.79575L10.971 5.05875ZM11.292 5.06625V9.816C11.5357 9.8415 11.7772 9.89325 12.012 9.97275L15.507 6.47775C15.3773 6.38775 15.246 6.3 15.111 6.2175L15.0915 6.20625C15.0495 6.18 15.0075 6.156 14.9655 6.13125L14.892 6.08925L14.8177 6.048C14.7752 6.02467 14.7324 6.00167 14.6895 5.979L14.6693 5.9685C14.3248 5.7884 13.9676 5.63373 13.6005 5.50575C13.083 5.325 12.5482 5.19825 12.0045 5.127L11.9377 5.118L11.8702 5.1105C11.8278 5.1052 11.7853 5.10045 11.7427 5.09625L11.706 5.09325L11.553 5.0805C11.4893 5.07549 11.4256 5.07174 11.3618 5.06925C11.3385 5.067 11.3152 5.067 11.292 5.06625ZM6.5865 6.3735C6.22401 6.60887 5.88272 6.87538 5.5665 7.17L8.91225 10.5157L8.92575 10.5292C8.9625 10.4992 8.99925 10.4707 9.0375 10.4422L9.02925 10.4287L6.5865 6.3735ZM5.334 7.3935C5.2965 7.431 5.2605 7.47075 5.22375 7.509L5.112 7.62525C4.8645 7.893 4.6395 8.17275 4.4355 8.46375L4.40625 8.50575C4.35075 8.58625 4.29674 8.66776 4.24425 8.75025C3.48902 9.93658 3.062 11.302 3.00675 12.7072L3.00225 12.8685L3 13.029H7.73775C7.73775 12.975 7.743 12.9217 7.74525 12.8685C7.749 12.8145 7.74975 12.7605 7.755 12.7072C7.81575 12.0907 8.05425 11.4885 8.469 10.9822C8.50275 10.941 8.541 10.9027 8.577 10.8622C8.613 10.8232 8.64675 10.782 8.685 10.7437L5.334 7.3935ZM17.5253 8.4915L14.028 11.9887C14.1075 12.2227 14.1592 12.4642 14.1855 12.708H18.9345L18.9315 12.6375C18.9258 12.5234 18.9177 12.4093 18.9075 12.2955L18.9037 12.2565C18.8978 12.1962 18.8913 12.1359 18.8843 12.0757V12.069L18.8595 11.889V11.8822C18.8048 11.5036 18.7228 11.1294 18.6143 10.7625L18.612 10.755C18.5949 10.6979 18.5774 10.6409 18.5595 10.584L18.552 10.5615C18.5351 10.5104 18.5179 10.4594 18.5002 10.4085L18.4852 10.3672C18.4509 10.2646 18.4126 10.1632 18.3705 10.0635C18.3481 10.0064 18.3249 9.94963 18.3007 9.89325C18.2852 9.85718 18.2694 9.82117 18.2535 9.78525L18.2258 9.7245C18.206 9.68161 18.186 9.63886 18.1658 9.59625L18.1478 9.55725L18.0757 9.41175L18.0652 9.3915C18.0378 9.3382 18.0098 9.2852 17.9813 9.2325L17.9783 9.2265C17.8407 8.97349 17.6894 8.72813 17.5253 8.4915ZM14.2028 13.029C14.2028 13.0822 14.1983 13.1355 14.1953 13.1895C14.193 13.2435 14.1915 13.2967 14.1862 13.35C14.1241 13.9832 13.8756 14.5837 13.4723 15.0757C13.4385 15.117 13.4003 15.156 13.3643 15.1957C13.3283 15.2355 13.2945 15.2767 13.2563 15.315L16.6065 18.6652C16.6448 18.627 16.6808 18.5872 16.7175 18.549C16.755 18.51 16.7925 18.4717 16.8285 18.4327C17.0767 18.1642 17.3033 17.883 17.5073 17.5912L17.5312 17.5567L17.6047 17.4487L17.6685 17.3512L17.6985 17.304C18.4525 16.1184 18.8788 14.754 18.9338 13.35C18.936 13.2967 18.9367 13.2427 18.9382 13.1895C18.939 13.1362 18.9412 13.0822 18.9412 13.029H14.2028ZM3.0075 13.35L3.0105 13.4197L3.018 13.554L3.02175 13.611L3.0345 13.7655L3.03825 13.8C3.0435 13.857 3.0495 13.9147 3.05625 13.971L3.0585 13.9875C3.06594 14.0496 3.07419 14.1116 3.08325 14.1735C3.13725 14.5522 3.21975 14.9272 3.3285 15.2962L3.33 15.3007C3.3465 15.3585 3.36525 15.4162 3.38325 15.4732L3.38625 15.4837L3.39 15.4942C3.42663 15.6046 3.46488 15.7143 3.50475 15.8235L3.52725 15.8835L3.5715 15.9945C3.59384 16.0519 3.61709 16.1089 3.64125 16.1655L3.68775 16.2705L3.71625 16.3335L3.77475 16.4602L3.795 16.5007C3.84869 16.6123 3.90495 16.7226 3.96375 16.8315L3.9825 16.8637L8.0385 14.4202L8.0535 14.4112C7.89488 14.0773 7.79468 13.7186 7.75725 13.3507H7.7385L3.0075 13.35ZM3.38625 15.4837L3.23175 15.528L3.23325 15.5317L3.38625 15.4837ZM8.205 14.6955L4.14375 17.142C4.206 17.2462 4.27125 17.3467 4.338 17.4465L4.344 17.457L4.347 17.4607L4.353 17.4712C4.35825 17.4802 4.36425 17.4877 4.37025 17.4952L4.371 17.4967C4.44298 17.6028 4.5175 17.7078 4.5945 17.8102L4.599 17.8162C4.66933 17.9099 4.74185 18.002 4.8165 18.0922L4.84125 18.1222C4.8735 18.1612 4.90575 18.1995 4.93875 18.237L4.9815 18.2857L5.0655 18.381L5.1135 18.4327L5.13525 18.456L5.1975 18.5235L5.22375 18.5497C5.2605 18.588 5.29725 18.627 5.3355 18.6645L8.685 15.315C8.60934 15.2388 8.53798 15.1584 8.47125 15.0742C8.37353 14.9544 8.28506 14.8278 8.205 14.6955ZM13.017 15.5287C12.9795 15.5587 12.942 15.588 12.9045 15.6157L12.9128 15.6292L15.3555 19.6845C15.4688 19.6102 15.5805 19.5345 15.69 19.4542C15.9263 19.2802 16.155 19.0912 16.3755 18.8872L13.0305 15.5422L13.017 15.5287ZM8.92425 15.531L8.913 15.5422L5.568 18.8872C5.6161 18.932 5.66486 18.976 5.71425 19.0192C5.73075 19.0342 5.7465 19.0492 5.763 19.0627L5.877 19.1602C5.93018 19.2044 5.98394 19.248 6.03825 19.2907L6.0555 19.3035L6.19875 19.4145L6.20475 19.4182C6.40575 19.5682 6.615 19.71 6.83025 19.8412L6.85275 19.8547L6.97575 19.9275L7.0515 19.9702C7.11794 20.0091 7.18547 20.0462 7.254 20.0812C7.26 20.0842 7.266 20.0887 7.27275 20.091C7.39425 20.1547 7.518 20.214 7.6425 20.271L7.761 19.9822L9.44325 15.8962L9.45 15.8812C9.26378 15.7819 9.0877 15.6646 8.92425 15.531ZM12.6375 15.7957C12.5918 15.8235 12.5445 15.8482 12.4973 15.8737C11.7447 16.278 10.863 16.3686 10.044 16.1257C9.99225 16.1107 9.94275 16.0905 9.89175 16.0725C9.8415 16.0545 9.78975 16.0395 9.74025 16.0185L8.05875 20.1015L7.99275 20.2612L7.9365 20.3985L7.94925 20.4045C7.95386 20.4066 7.95863 20.4084 7.9635 20.4097L7.96725 20.412C8.00625 20.4277 8.04675 20.442 8.0865 20.457C8.13675 20.4772 8.18625 20.4967 8.2365 20.5147L8.313 20.5447C8.8395 20.73 9.3855 20.8597 9.939 20.9332L10.0042 20.9422L10.0717 20.9497L10.2007 20.964C10.2636 20.9706 10.3267 20.9761 10.3897 20.9805C10.407 20.9812 10.4257 20.9812 10.443 20.9827L10.581 20.991L10.665 20.9947C10.7544 20.9988 10.844 21.0005 10.9335 21H10.971C11.4216 21.0004 11.8715 20.9628 12.3157 20.8875L12.4545 20.862L12.5333 20.847L12.615 20.8297L12.75 20.7997L12.774 20.7937C13.4393 20.6387 14.082 20.3993 14.6865 20.0812C14.7255 20.0602 14.7645 20.0362 14.8035 20.0145C14.8507 19.989 14.8973 19.962 14.9438 19.9357C14.976 19.9177 15.009 19.9005 15.0413 19.881L15.0435 19.8795L15.045 19.8787L15.0465 19.878L15.0518 19.875L15.0833 19.8562L15.0007 19.719L14.9182 19.581L12.6375 15.7957ZM15.0833 19.8562L15.0518 19.875L15.084 19.857L15.0833 19.8562Z" fill="current"/>
</g>
<defs>
<clipPath id="clip0_21_551">
<rect width="18" height="18" fill="white" transform="translate(3 3)"/>
</clipPath>
</defs>
</svg>
