<svg width="48" height="49" viewBox="0 0 48 49" fill="none" xmlns="http://www.w3.org/2000/svg">
<path d="M22.4746 39.0907C22.7656 39.0455 23.1141 39.0741 23.5225 39.119L31.6797 47.2763C29.6187 47.9717 27.4816 48.3795 25.332 48.4999L19.8418 43.0097C21.023 40.9039 22.0603 39.1563 22.4746 39.0907ZM21.4648 48.4061C20.0477 48.2577 18.6414 47.9818 17.2637 47.5819C17.6558 46.9166 18.0723 46.1824 18.4912 45.4325L21.4648 48.4061ZM39.0957 43.1884C37.6155 44.3897 36.0248 45.3889 34.3623 46.1854L27.2549 39.078C28.6692 38.7768 30.3567 38.0464 32.3389 36.4315L39.0957 43.1884ZM7.10742 7.42566C16.4959 -1.84475 31.6215 -1.8082 40.9648 7.53504C50.3077 16.8786 50.3449 32.0051 41.0742 41.3934L34.3047 34.6239C36.2211 32.7004 37.1435 31.6091 37.5732 31.0468C38.5789 30.1745 38.7495 28.6617 37.9326 27.5868C37.6468 27.2109 37.2759 26.9385 36.8682 26.7723C37.2148 26.0048 37.1758 25.0824 36.6797 24.3261C36.1805 23.5653 35.3433 23.1622 34.4961 23.1796C34.7892 22.436 34.7304 21.5667 34.2588 20.8475C33.5749 19.8052 32.257 19.43 31.1475 19.8954C31.7073 19.2672 33.0741 17.8493 34.6602 16.2587C37.9625 12.9467 38.4529 12.4074 38.5254 12.0136C38.772 10.6614 37.9236 9.5609 36.6357 9.56238C36.3033 9.56287 35.8713 9.64574 35.6758 9.74598C35.4759 9.8507 32.5445 12.7008 29.1582 16.0839C25.774 19.4651 22.9128 22.2326 22.7939 22.2401C22.4707 22.2401 22.3461 21.8743 22.4746 21.3016C22.6588 20.4819 23.1741 16.8102 23.1719 16.3339C23.1622 14.7796 21.4613 13.7296 20.0557 14.41C19.1245 14.861 18.968 15.2259 18.5566 17.9149C18.5142 18.192 18.4679 18.4683 18.4238 18.7421L7.10742 7.42566ZM8.91406 35.8563C7.48438 37.1429 6.13225 38.3892 5.16016 39.4432C2.24665 35.7783 0.557284 31.4589 0.09375 27.036L8.91406 35.8563ZM14.7949 30.3925C13.7679 31.4799 12.3646 32.7587 10.9023 34.0702L0 23.1679C0.120342 21.0186 0.528505 18.8817 1.22363 16.8212L14.7949 30.3925ZM17.8574 21.9501C17.4324 24.1297 16.9473 26.1993 16.4014 28.1649C16.3972 28.1794 16.3904 28.1941 16.3857 28.2089L2.31445 14.1376C3.111 12.4752 4.11039 10.8843 5.31152 9.40418L17.8574 21.9501ZM18.6855 8.14344C18.6094 8.14344 18.4628 8.22759 18.3604 8.32996C18.2581 8.43243 18.1749 8.585 18.1748 8.66883C18.1802 8.9026 22.0805 12.7655 22.3115 12.7655C22.5617 12.7654 22.7955 12.5383 22.7959 12.2958C22.7959 12.0838 18.8994 8.14769 18.6855 8.14344ZM30.5264 8.14344C30.4194 8.14572 29.4644 9.00942 28.4023 10.0643C26.8315 11.6247 26.4691 12.0466 26.4688 12.3134C26.4688 12.5687 26.5378 12.6597 26.7803 12.7206C27.0624 12.7914 27.2818 12.6076 29.0908 10.7899C30.1863 9.68902 31.0837 8.72812 31.0898 8.6493C31.0898 8.45284 30.7453 8.14344 30.5264 8.14344ZM24.8594 5.60926C24.5787 5.50155 24.4894 5.51936 24.2852 5.72352C24.1272 5.88225 24.0986 6.31569 24.0986 8.61805C24.0986 10.9216 24.1269 11.3542 24.2852 11.5126C24.3876 11.6148 24.5373 11.6981 24.6172 11.6981C25.0102 11.698 25.0469 11.4286 25.0469 8.54774C25.0469 6.04403 25.023 5.67227 24.8594 5.60926Z" fill="current"/>
</svg>
