<svg width="16" height="16" viewBox="0 0 16 16" fill="none" xmlns="http://www.w3.org/2000/svg">
<mask id="mask0_320_573" style="mask-type:alpha" maskUnits="userSpaceOnUse" x="0" y="0" width="16" height="16">
<rect x="16" y="16" width="16" height="16" transform="rotate(180 16 16)" fill="current"/>
</mask>
<g mask="url(#mask0_320_573)">
<path d="M11.9997 14H5.33301V5.33333L9.99967 0.666668L10.833 1.5C10.9108 1.57778 10.9747 1.68333 11.0247 1.81667C11.0747 1.95 11.0997 2.07778 11.0997 2.2V2.43333L10.3663 5.33333H13.9997C14.3552 5.33333 14.6663 5.46667 14.933 5.73333C15.1997 6 15.333 6.31111 15.333 6.66667V8C15.333 8.07778 15.3247 8.16111 15.308 8.25C15.2913 8.33889 15.2663 8.42222 15.233 8.5L13.233 13.2C13.133 13.4222 12.9663 13.6111 12.733 13.7667C12.4997 13.9222 12.2552 14 11.9997 14ZM3.99967 5.33333V14H1.33301V5.33333H3.99967Z" fill="current"/>
</g>
</svg>
