<svg width="16" height="16" viewBox="0 0 16 16" fill="none" xmlns="http://www.w3.org/2000/svg">
<mask id="mask0_320_570" style="mask-type:alpha" maskUnits="userSpaceOnUse" x="0" y="0" width="16" height="16">
<rect x="16" y="16" width="16" height="16" transform="rotate(180 16 16)" fill="current"/>
</mask>
<g mask="url(#mask0_320_570)">
<path d="M4.33333 3.00016H11.6667V11.6668L7 16.3335L6.16667 15.5002C6.08889 15.4224 6.025 15.3168 5.975 15.1835C5.925 15.0502 5.9 14.9224 5.9 14.8002V14.5668L6.63333 11.6668H2.33333C1.97778 11.6668 1.66667 11.5335 1.4 11.2668C1.13333 11.0002 1 10.6891 1 10.3335V9.00016C1 8.92239 1.01111 8.83905 1.03333 8.75016C1.05555 8.66127 1.07778 8.57794 1.1 8.50016L3.1 3.80016C3.2 3.57794 3.36667 3.38905 3.6 3.2335C3.83333 3.07794 4.07778 3.00016 4.33333 3.00016ZM10.3333 4.3335H4.33333L2.33333 9.00016V10.3335H8.33333L7.43333 14.0002L10.3333 11.1002V4.3335ZM11.6667 11.6668V10.3335H13.6667V4.3335H11.6667V3.00016H15V11.6668H11.6667Z" fill="current"/>
</g>
</svg>
