<svg width="24" height="24" viewBox="0 0 24 24" fill="none" xmlns="http://www.w3.org/2000/svg">
<path fill-rule="evenodd" clip-rule="evenodd" d="M4.92188 0H19.0781C21.7935 0.00726563 23.9927 2.2065 24 4.92169V19.0781C23.9927 21.7934 21.7935 23.9927 19.0783 23.9999L4.92188 24C2.20659 23.9927 0.0073125 21.7934 9.375e-05 19.0783L0 4.92188C0.0073125 2.2065 2.20659 0.00726563 4.92173 0H4.92188Z" fill="black"/>
<g clip-path="url(#clip0_7_51)">
<path d="M13.7368 10.925L18.5763 5H17.4295L13.2273 10.1446L9.87105 5H6L11.0753 12.7795L6 18.9928H7.14688L11.5845 13.5599L15.1289 18.9928H19L13.7365 10.925H13.7368ZM12.166 12.8481L11.6517 12.0734L7.56012 5.90931H9.32166L12.6236 10.8839L13.1379 11.6586L17.43 18.1249H15.6685L12.166 12.8484V12.8481Z" fill="white"/>
</g>
<defs>
<clipPath id="clip0_7_51">
<rect width="13" height="14" fill="white" transform="translate(6 5)"/>
</clipPath>
</defs>
</svg>
