<svg width="557" height="557" viewBox="0 0 557 557" fill="current" xmlns="http://www.w3.org/2000/svg">
<path opacity="0.975" fill-rule="evenodd" clip-rule="evenodd" d="M246.5 12.5C272.976 12.175 299.642 12.675 326.5 14C348.977 15.4289 370.977 19.4289 392.5 26C398.008 28.2828 403.342 30.9495 408.5 34C416.023 40.5475 419.69 48.8808 419.5 59C420.485 74.7055 413.818 85.7055 399.5 92C370.176 102.636 340.009 108.136 309 108.5C265.663 112.068 222.496 110.235 179.5 103C166.234 100.365 153.568 96.0312 141.5 90C131.319 81.1758 127.153 70.0091 129 56.5C129.458 49.7541 131.958 43.9207 136.5 39C141.497 35.1661 146.83 31.8328 152.5 29C171.341 22.4984 190.674 18.165 210.5 16C222.666 14.975 234.666 13.8084 246.5 12.5ZM249.5 33.5C290.502 31.8335 331.168 34.6668 371.5 42C379.91 44.024 387.91 47.024 395.5 51C388.603 54.9683 381.27 57.9683 373.5 60C309.74 72.7372 246.073 73.7372 182.5 63C171.925 61.2528 161.925 57.9195 152.5 53C155.339 51.0797 158.339 49.4131 161.5 48C170.079 45.3551 178.746 43.0218 187.5 41C208.206 37.5712 228.873 35.0712 249.5 33.5Z" fill="current"/>
<path opacity="0.965" fill-rule="evenodd" clip-rule="evenodd" d="M398.5 100.5C403.126 99.7004 406.96 101.034 410 104.5C441.915 164.661 458.082 228.828 458.5 297C456.81 364.603 450.977 432.103 441 499.5C438.5 504.667 434.667 508.5 429.5 511C356.257 551.093 278.923 561.426 197.5 542C168.968 534.782 141.968 523.782 116.5 509C113.086 505.213 111.253 500.713 111 495.5C103.505 447.041 97.8378 398.374 93.9999 349.5C90.2493 299.006 93.5826 249.006 104 199.5C111.974 167.911 123.307 137.578 138 108.5C140.289 105.032 143.456 103.032 147.5 102.5C171.024 111.296 195.357 116.463 220.5 118C265.657 121.86 310.657 120.527 355.5 114C364.313 112.63 372.979 110.63 381.5 108C387.726 106.545 393.392 104.045 398.5 100.5ZM393.5 128.5C394.822 128.33 395.989 128.663 397 129.5C410.764 158.793 420.931 189.293 427.5 221C427.167 221.833 426.833 222.667 426.5 223.5C412.071 229.821 397.071 234.321 381.5 237C355.414 241.098 329.247 243.931 303 245.5C281.115 245.434 259.781 245.434 239 245.5C209.001 243.647 179.501 239.814 150.5 234C140.545 231.843 131.212 228.343 122.5 223.5C128.754 193.573 137.92 164.573 150 136.5C151.015 133.79 152.515 131.457 154.5 129.5C169.724 134.927 185.39 138.427 201.5 140C258.616 147.043 315.949 145.377 373.5 135C380.381 133.121 387.048 130.955 393.5 128.5ZM429.5 238.5C430.863 242.492 431.863 246.659 432.5 251C436.168 305.088 434.668 359.255 428 413.5C398.516 430.218 367.016 441.384 333.5 447C275.425 457.037 217.759 452.371 160.5 433C147.765 428.313 135.598 422.479 124 415.5C117.298 368.447 114.965 320.447 117 271.5C117.76 261.807 118.76 252.14 120 242.5C120.308 241.692 120.808 241.025 121.5 240.5C142.481 248.328 164.148 253.495 186.5 256C257.865 264.505 328.865 262.171 399.5 249C409.99 246.561 419.99 243.061 429.5 238.5ZM424.5 432.5C425.156 433.622 425.489 434.955 425.5 436.5C423.353 453.862 421.02 471.195 418.5 488.5C417.99 490.088 416.99 491.255 415.5 492C360.111 521.727 301.111 532.727 238.5 525C202.908 520.69 169.241 510.356 137.5 494C136 493.167 134.833 492 134 490.5C131.005 471.873 128.671 453.206 127 434.5C173.427 457.229 222.593 468.229 274.5 467.5C321.698 467.355 367.032 458.188 410.5 440C415.387 437.726 420.054 435.226 424.5 432.5Z" fill="current"/>
<path opacity="0.942" fill-rule="evenodd" clip-rule="evenodd" d="M268.5 283.5C271.425 283.46 274.091 284.293 276.5 286C285.749 292.21 295.249 298.043 305 303.5C306.295 316.072 306.962 328.738 307 341.5C316.503 347.251 325.837 353.251 335 359.5C335.212 362.758 335.712 365.924 336.5 369C335.808 379.628 335.308 390.462 335 401.5C324.084 408.71 312.917 415.543 301.5 422C299.833 422.667 298.167 422.667 296.5 422C286.99 416.484 277.49 410.984 268 405.5C257.731 411.049 247.565 416.716 237.5 422.5C225.292 416.146 213.459 409.146 202 401.5C201.749 399.567 201.249 397.734 200.5 396C200.977 384.051 201.477 371.885 202 359.5C211.768 352.573 221.935 346.239 232.5 340.5C233.038 328.085 233.871 315.752 235 303.5C246.147 296.681 257.314 290.015 268.5 283.5ZM268.5 296.5C260.873 301.105 253.206 305.772 245.5 310.5C244.334 320.483 244.168 330.483 245 340.5C252.832 345.75 260.832 350.75 269 355.5C277.333 350.5 285.667 345.5 294 340.5C294.397 332.104 294.897 324.271 295.5 317C295.023 314.101 294.023 311.434 292.5 309C284.876 304.022 276.876 299.855 268.5 296.5ZM236.5 350.5C228.647 355.351 220.813 360.351 213 365.5C212.168 375.517 212.334 385.517 213.5 395.5C221.102 400.551 228.935 405.218 237 409.5C245.543 405.449 253.709 400.783 261.5 395.5C262.833 385.167 262.833 374.833 261.5 364.5C253.597 359.049 245.264 354.382 236.5 350.5ZM297.5 351.5C290.148 356.267 282.648 360.934 275 365.5C274.333 375.5 274.333 385.5 275 395.5C282.569 400.95 290.569 405.616 299 409.5C307.596 405.367 315.929 400.7 324 395.5C324.667 385.5 324.667 375.5 324 365.5C317.917 361.541 311.751 357.708 305.5 354C303.091 352.293 300.425 351.46 297.5 351.5Z" fill="current"/>
</svg>
