<svg width="42" height="52" viewBox="0 0 42 52" fill="current" xmlns="http://www.w3.org/2000/svg">
<path d="M19.0753 0H27.9237V39.3569C23.3846 40.185 20.052 40.5163 16.4325 40.5163C5.63071 40.5163 0 35.8239 0 26.8235C0 18.1554 5.97579 12.5238 15.226 12.5238C16.6623 12.5238 17.7539 12.6346 19.0757 12.9651L19.0753 0ZM19.0753 19.811C18.0412 19.4801 17.1794 19.3696 16.0878 19.3696C11.6061 19.3696 9.0204 22.02 9.0204 26.6572C9.0204 31.1853 11.4912 33.6697 16.0303 33.6697C17.0066 33.6697 17.8114 33.6145 19.0753 33.4496V19.811Z" fill="current"/>
<path d="M42 13.1303V32.8419C42 39.6326 41.4829 42.8899 39.9317 45.7062C38.495 48.4118 36.5987 50.1226 32.692 52L24.4755 48.2455C28.3827 46.4788 30.2786 44.934 31.4851 42.5586C32.7494 40.1298 33.152 37.3131 33.152 29.9148V13.1303H42ZM33.152 0.0452118H42V8.76923H33.152V0.0452118Z" fill="current"/>
</svg>
