<svg width="80" height="14" viewBox="0 0 80 14" fill="none" xmlns="http://www.w3.org/2000/svg">
<g clip-path="url(#clip0_77_1369)">
<path d="M7.7619 0H0V6.9C0 7.75 0.190476 8.5 0.47619 9.2C0.848881 7.13672 1.71849 5.208 3.00217 3.59756C4.28585 1.98712 5.94086 0.748607 7.80952 0L7.7619 0Z" fill="#828282"/>
<path d="M10.3333 0H9.00001C6.19048 1.1 2.38096 5.3 3.85715 12.75C5.04763 13.5 6.09524 13.9 6.09524 13.9C6.09524 13.9 7.2381 13.4 8.57144 12.5C5.90477 8 6.4762 2.75 10.3333 0Z" fill="#828282"/>
<path d="M11.1905 0C8.57144 2 8.19049 6.7 11.1905 9.95C11.7619 9.05 12.1429 8.05 12.1429 6.95V0H11.1905Z" fill="#828282"/>
<path d="M21.2381 0H14.2857V13.7H21.1905C26.1905 13.7 29.2857 11.55 29.2857 6.95V6.8C29.3333 2.2 26.1905 0 21.2381 0ZM25.3333 7C25.3333 9.4 24.1428 10.6 21.1905 10.6H18.1905V3.2H21.1905C24.1428 3.2 25.3333 4.35 25.3333 6.8V6.95V7ZM42.4762 6.8C43.619 6.4 44.4286 5.45 44.4286 3.8C44.4286 0.85 42.1905 0.1 39.2381 0.1H30.1905V13.75H34V8.5H38.9048C40.1428 8.5 40.7143 9 40.7143 10.2V13.75H44.5714V10C44.5714 8.25 43.7619 7.2 42.4286 6.8H42.4762ZM38.8095 5.5H34.0476V3H38.7619C39.8571 3 40.5238 3.2 40.5238 4.25C40.5238 5.25 39.9048 5.5 38.8571 5.5H38.8095ZM45.619 0.05V13.7H49.4762V0.05H45.6667H45.619ZM62.1905 0.05L58.1428 10.05L54.0952 0.05H49.8571L55.7619 13.7H60.3809L66.2857 0.05H62.1905ZM70.4762 10.6V8.2H79.0476V5.35H70.4762V3.1H79.4286V0.05H66.6667V13.7H79.5238V10.6H70.4762Z" fill="#828282"/>
</g>
<defs>
<clipPath id="clip0_77_1369">
<rect width="80" height="14" fill="white"/>
</clipPath>
</defs>
</svg>
