<svg width="48" height="46" viewBox="0 0 48 46" fill="current" xmlns="http://www.w3.org/2000/svg">
<path d="M34.6997 16.649C33.7989 16.6531 32.9387 16.73 32.1818 16.8639C29.952 17.2579 29.5472 18.0825 29.5472 19.6032V21.6116H34.8164V22.2811H29.5472H27.5697C26.0383 22.2811 24.6974 23.2016 24.278 24.9528C23.7942 26.9601 23.7727 28.2126 24.278 30.3085C24.6525 31.8687 25.547 32.9803 27.0784 32.9803H28.8901V30.5727C28.8901 28.8333 30.3949 27.299 32.1818 27.299H37.4448C38.9099 27.299 40.0794 26.0926 40.0794 24.6211V19.6032C40.0794 18.1751 38.8748 17.1023 37.4448 16.8639C36.5397 16.7132 35.6005 16.6448 34.6997 16.649ZM31.8502 18.2643C32.3944 18.2643 32.8389 18.7161 32.8389 19.2715C32.8389 19.8251 32.3944 20.2727 31.8502 20.2727C31.3039 20.2727 30.8614 19.8251 30.8614 19.2715C30.8614 18.7161 31.3039 18.2643 31.8502 18.2643Z" fill="current"/>
<path d="M40.7365 22.2808V24.6209C40.7365 26.4351 39.1985 27.9621 37.4448 27.9621H32.1817C30.7401 27.9621 29.5471 29.196 29.5471 30.6399V35.6579C29.5471 37.086 30.7888 37.926 32.1817 38.3357C33.8497 38.8262 35.4491 38.9149 37.4448 38.3357C38.7713 37.9516 40.0794 37.1786 40.0794 35.6579V33.6495H34.8163V32.98H40.0794H42.714C44.2454 32.98 44.816 31.9117 45.3486 30.3083C45.8987 28.6575 45.8753 27.0701 45.3486 24.9525C44.9701 23.4279 44.2473 22.2808 42.714 22.2808H40.7365ZM37.7764 34.9884C38.3226 34.9884 38.7651 35.436 38.7651 35.9895C38.7651 36.545 38.3226 36.9968 37.7764 36.9968C37.2321 36.9968 36.7877 36.545 36.7877 35.9895C36.7877 35.436 37.2321 34.9884 37.7764 34.9884Z" fill="current"/>
<path fill-rule="evenodd" clip-rule="evenodd" d="M28.2714 39.0787C26.6435 39.248 25.2197 39.3326 24 39.3326C22.1778 39.3326 19.9 39.1437 17.1667 38.7659C14.4333 38.3881 11.8 37.7769 9.26667 36.9324C6.73333 36.0878 4.55556 34.9877 2.73333 33.632C0.911111 32.2763 0 30.6206 0 28.6648V35.3322C0 37.288 0.911111 38.9437 2.73333 40.2994C4.55556 41.6551 6.73333 42.7552 9.26667 43.5998C11.8 44.4443 14.4333 45.0555 17.1667 45.4333C19.9 45.8111 22.1778 46 24 46C25.8222 46 28.1 45.8111 30.8333 45.4333C33.5667 45.0555 36.2 44.4443 38.7333 43.5998C41.2667 42.7552 43.4444 41.6551 45.2667 40.2994C47.0889 38.9437 48 37.288 48 35.3322V28.6648C48 29.521 47.8254 30.3197 47.4762 31.0609C45.9061 36.6425 40.7788 40.7342 34.6959 40.7342C32.3654 40.7342 30.1751 40.1336 28.2714 39.0787Z" fill="current"/>
<path fill-rule="evenodd" clip-rule="evenodd" d="M47.7038 24.7951C47.9013 24.2163 48 23.6049 48 22.9611V16.2937C48 17.9404 47.3541 19.3744 46.0623 20.5957C46.8338 21.871 47.3966 23.2865 47.7038 24.7951ZM21.4342 26.8594C20.1626 26.7672 18.7401 26.6123 17.1667 26.3948C14.4333 26.0169 11.8 25.4058 9.26667 24.5612C6.73333 23.7167 4.55556 22.6166 2.73333 21.2609C0.911111 19.9052 0 18.2495 0 16.2937V22.9611C0 24.9168 0.911111 26.5726 2.73333 27.9283C4.55556 29.284 6.73333 30.3841 9.26667 31.2286C11.8 32.0731 14.4333 32.6843 17.1667 33.0621C19.3883 33.3692 21.3089 33.5515 22.9286 33.609C21.9656 31.7701 21.4209 29.6776 21.4209 27.4579C21.4209 27.2573 21.4254 27.0578 21.4342 26.8594Z" fill="current"/>
<path fill-rule="evenodd" clip-rule="evenodd" d="M22.9185 21.3263C25.1331 17.0803 29.576 14.1816 34.6959 14.1816C37.8728 14.1816 40.7891 15.2977 43.0741 17.1592C46.358 15.2925 48 13.1287 48 10.6678C48 7.73415 45.6667 5.22277 41 3.13366C36.3333 1.04455 30.6667 0 24 0C17.3333 0 11.6667 1.04455 7 3.13366C2.33333 5.22277 0 7.73415 0 10.6678C0 13.6014 2.33333 16.1128 7 18.2019C11.4122 20.1771 16.7184 21.2186 22.9185 21.3263ZM8.27011 11.228C8.69943 11.3454 9.21806 11.4752 9.4205 11.5074L9.4202 11.5071C11.1948 11.8031 12.2276 11.4869 13.2322 10.3403C14.3666 9.05191 14.3464 7.82023 13.1719 7.01007C12.1265 6.28862 11.9726 6.31307 10.6315 7.39479L9.43649 8.36336L8.99902 7.8323C7.7551 6.32544 8.36696 4.60313 10.1292 4.64779C10.8868 4.668 11.8631 4.97185 12.6409 5.42989C12.9163 5.59192 13.1595 5.70507 13.184 5.68093C13.2407 5.6242 14.1358 3.3636 14.1358 3.27429C14.1358 3.23778 14.0348 3.20549 13.9132 3.20549C13.7916 3.20549 13.6902 3.29451 13.6902 3.39589C13.6902 3.49727 13.5888 3.7281 13.4676 3.9025L13.2446 4.22234L12.4749 3.86207C11.454 3.38382 10.6397 3.39589 9.6148 3.89828C8.12378 4.62757 6.90852 5.98478 6.91275 6.92106C6.91667 7.32177 7.50801 8.56552 7.96599 9.13278L8.29002 9.53409L7.88906 10.2715L7.48779 11.009L8.27011 11.228ZM12.3374 8.29456C12.9694 8.96713 13.0099 9.8141 12.4267 10.2718C11.9485 10.6445 11.2597 10.6565 10.1621 10.3002L10.0387 10.2608C9.29849 10.0248 8.92466 9.90561 8.88743 9.7192C8.84944 9.52899 9.16186 9.26881 9.79304 8.74317L9.8987 8.65513C11.2965 7.48832 11.5433 7.45181 12.3374 8.29456ZM21.3311 13.752C22.2465 14.1491 23.3161 14.5909 23.7134 14.7366C24.1104 14.8826 24.8028 15 25.2524 15.0039C25.921 15.0082 26.1478 14.9433 26.5045 14.6434C26.7434 14.4448 27.0146 14.0477 27.1082 13.7683C27.3269 13.116 27.1727 11.9815 26.8692 11.9815C26.7069 11.9815 26.6828 12.0626 26.7636 12.3058C27.0919 13.2741 26.557 14.0034 25.5161 14.0034C24.661 14.0034 24.0048 13.8006 21.7644 12.8486C20.7721 12.4274 19.6944 12.0503 19.3704 12.0141C18.8596 11.9573 18.7057 12.014 18.2441 12.4193C17.6769 12.9174 17.2069 13.6751 17.365 13.8332C17.4178 13.8857 17.6039 13.7563 17.7741 13.5496C18.5114 12.654 18.8599 12.6742 21.3311 13.752ZM15.7119 9.06851C16.1901 10.0247 17.0207 10.843 17.9403 11.2727C19.6863 12.0831 21.9023 10.9525 22.9516 8.70763C23.8468 6.79554 23.4781 5.04125 21.9913 4.12126C21.3634 3.73655 21.1568 3.68374 20.1889 3.68374C18.8478 3.68374 17.851 4.11734 16.6318 5.23165C15.1812 6.55656 14.9465 7.5369 15.7119 9.06851ZM21.9874 6.98986C22.182 8.29456 21.7077 9.8666 21.0192 10.207C20.0145 10.7012 19.046 10.3934 17.9201 9.21425C16.3075 7.53298 16.3319 5.66524 17.9726 4.96431C19.5689 4.28329 21.7442 5.38161 21.9874 6.98986ZM24.7138 11.3007C24.3977 11.378 24.1427 11.4993 24.1427 11.5684C24.1427 11.6372 25.6413 11.6939 27.4726 11.6939H30.8028L30.9 10.7416C30.9528 10.2148 31.0375 9.63547 31.0903 9.44538C31.2038 9.03622 30.8798 8.9632 30.7542 9.36813C30.3367 10.7175 29.806 11.082 28.2667 11.082C27.5212 11.082 27.3269 11.0295 27.1972 10.7863C27.1039 10.6122 27.0391 9.25468 27.0391 7.45181C27.0391 4.20243 27.0433 4.19036 27.8413 3.99182C28.769 3.75676 28.1493 3.61495 26.2006 3.61495C24.2519 3.61495 23.5837 3.76883 24.5883 3.99182C24.8354 4.04824 25.1067 4.17799 25.196 4.28359C25.4428 4.58322 25.5402 6.8239 25.4066 9.1011L25.285 11.1589L24.7138 11.3007ZM32.0181 11.1348C31.8238 11.2281 31.7061 11.3497 31.7061 11.471C31.7061 11.6532 31.7667 11.6617 32.8972 11.6532C33.9505 11.6532 34.0965 11.6333 34.1327 11.4873C34.1653 11.3617 34.0884 11.3008 33.8087 11.2239C33.2496 11.0742 33.2617 10.7622 33.8615 9.4412L34.1813 8.73635H37.5278L37.9692 9.77763C38.2123 10.3488 38.4109 10.8835 38.4109 10.9647C38.4109 11.0497 38.2651 11.1632 38.0745 11.2239C37.8681 11.2929 37.7384 11.3983 37.7384 11.4954C37.7384 11.6412 37.9085 11.6574 39.4116 11.6574C40.9105 11.6574 41.0846 11.6412 41.0846 11.4993C41.0846 11.4103 40.9268 11.2604 40.724 11.1629C40.3921 11.0012 40.2826 10.8228 39.2939 8.8335C38.7026 7.6504 37.8883 5.94862 37.4831 5.05337L37.1123 4.24137C36.8886 3.75175 36.7362 3.418 36.7334 3.41253C36.7295 3.40438 36.527 3.42068 36.2839 3.44904C35.8627 3.49762 35.8382 3.51784 35.7248 3.89048C35.5791 4.3808 34.0395 7.6507 33.0632 9.55465C32.4474 10.758 32.2775 11.0132 32.0181 11.1348ZM35.8708 5.31256C35.9882 5.34092 37.2481 8.09214 37.1914 8.19322C37.1307 8.29461 34.4812 8.28254 34.4812 8.18115C34.4812 7.97869 35.7857 5.28842 35.8708 5.31256Z" fill="current"/>
</svg>
