<svg width="52" height="52" viewBox="0 0 52 52" fill="current" xmlns="http://www.w3.org/2000/svg">
<g clip-path="url(#clip0_77_2276)">
<path d="M17.953 22.919L19.0623 4.16217C19.0712 4.0154 19.1285 3.87573 19.2254 3.76513C19.3223 3.65452 19.4532 3.57926 19.5975 3.55117L37.6502 0.013006C37.7617 -0.00888887 37.8769 -0.00176341 37.9849 0.0336987C38.0928 0.0691607 38.1898 0.131769 38.2666 0.215517C38.3434 0.299265 38.3974 0.401341 38.4234 0.511951C38.4493 0.622562 38.4465 0.737994 38.415 0.847173L35.0393 12.5537C35.008 12.6626 35.0052 12.7778 35.0311 12.8882C35.0569 12.9986 35.1107 13.1005 35.1872 13.1842C35.2637 13.2679 35.3604 13.3305 35.4681 13.3662C35.5757 13.4018 35.6907 13.4093 35.802 13.3878L40.976 12.3912C41.0977 12.3674 41.2237 12.3782 41.3396 12.4224C41.4555 12.4666 41.5567 12.5425 41.6316 12.6414C41.7065 12.7402 41.7522 12.8581 41.7635 12.9816C41.7748 13.1052 41.7511 13.2294 41.6953 13.3402L26.9837 42.6985L26.7172 43.1102C26.6599 43.2034 26.5795 43.2802 26.4839 43.3333C26.3883 43.3865 26.2806 43.4141 26.1712 43.4135C25.7877 43.4135 25.4128 43.0842 25.5103 42.614L27.8828 31.1285C27.9061 31.016 27.8998 30.8994 27.8644 30.7901C27.8291 30.6807 27.7659 30.5825 27.6811 30.5049C27.5964 30.4274 27.4929 30.3732 27.3809 30.3477C27.2689 30.3221 27.1522 30.3262 27.0422 30.3593L23.9373 31.3018C23.8274 31.3353 23.7107 31.3397 23.5986 31.3145C23.4864 31.2892 23.3828 31.2353 23.2978 31.158C23.2128 31.0806 23.1494 30.9825 23.1138 30.8733C23.0781 30.7641 23.0715 30.6474 23.0945 30.5348L24.5895 23.2223C24.6122 23.1132 24.6069 23 24.5743 22.8934C24.5416 22.7868 24.4826 22.6901 24.4027 22.6124C24.3228 22.5346 24.2245 22.4783 24.1171 22.4485C24.0096 22.4188 23.8963 22.4167 23.7878 22.4423L18.7612 23.6037C18.6608 23.6267 18.5565 23.6261 18.4565 23.6018C18.3565 23.5776 18.2634 23.5304 18.1848 23.4639C18.1062 23.3975 18.0441 23.3137 18.0035 23.2191C17.9629 23.1245 17.9449 23.0218 17.9508 22.919H17.953ZM50.401 5.74601L37.4487 8.10334L36.27 12.1918L40.7702 11.3252C41.1189 11.2557 41.4806 11.2951 41.8062 11.4381C42.1317 11.5811 42.4054 11.8208 42.5902 12.1247C42.7469 12.3774 42.8361 12.6662 42.849 12.9633C42.8619 13.2604 42.7981 13.5558 42.6638 13.8212L27.95 43.1817L27.9218 43.2358L27.8893 43.2857L27.625 43.6973C27.4687 43.9421 27.2536 44.1437 26.9992 44.2838C26.7448 44.4239 26.4594 44.4979 26.169 44.499C25.906 44.4976 25.6466 44.4382 25.4092 44.3251C25.1717 44.212 24.9622 44.048 24.7953 43.8447C24.6331 43.6438 24.5177 43.4092 24.4578 43.1581C24.3978 42.9069 24.3947 42.6455 24.4487 42.393L26.6782 31.6008L24.2515 32.3375C23.9196 32.4375 23.5655 32.4369 23.2338 32.3359C22.9022 32.2349 22.608 32.0379 22.3882 31.7698C22.2243 31.5697 22.1072 31.3356 22.0453 31.0844C21.9835 30.8333 21.9785 30.5715 22.0307 30.3182L23.3957 23.6448L19.0038 24.6588C18.7065 24.7269 18.3966 24.7162 18.1047 24.6276C17.8129 24.5391 17.5492 24.3758 17.3398 24.154C17.1775 23.9804 17.0522 23.7757 16.9714 23.5522C16.8905 23.3288 16.8559 23.0912 16.8697 22.854L17.7125 8.61901L1.5925 5.73734C1.34413 5.69252 1.08813 5.71951 0.854566 5.81514C0.621005 5.91077 0.419587 6.07107 0.273972 6.2772C0.128357 6.48334 0.0445944 6.72675 0.0325237 6.97884C0.020453 7.23093 0.0805757 7.48123 0.205829 7.70034L25.09 51.3305C25.2062 51.5347 25.3747 51.7044 25.578 51.8221C25.7814 51.9398 26.0124 52.0014 26.2474 52.0005C26.4823 51.9997 26.7129 51.9363 26.9153 51.8171C27.1178 51.6978 27.285 51.5269 27.3997 51.3218L51.7963 7.69601C51.9186 7.47651 51.976 7.22678 51.9619 6.97591C51.9477 6.72505 51.8625 6.48337 51.7163 6.27903C51.5701 6.07469 51.3688 5.9161 51.136 5.82173C50.9031 5.72736 50.6482 5.7011 50.401 5.74601Z" fill="current"/>
</g>
<defs>
<clipPath id="clip0_77_2276">
<rect width="52" height="52" fill="current"/>
</clipPath>
</defs>
</svg>
