<svg width="54" height="48" viewBox="0 0 54 48" fill="current" xmlns="http://www.w3.org/2000/svg">
<path d="M31.4461 0.599289C30.416 1.32784 29.5453 2.25741 28.8859 3.33108L28.7648 3.53407L26.4774 7.49261L16.9555 23.9995L25.9743 39.588L23.6889 43.5485C21.8554 46.7349 18.0217 48.176 14.5433 46.9864C12.7695 46.3945 11.3309 45.0956 10.3598 43.4983L10.261 43.3321L0.791724 26.9343C0.269118 26.051 -5.1815e-06 25.0253 -5.1815e-06 23.9995C-0.00180796 23.0333 0.2383 22.083 0.697063 21.2349L0.791724 21.0667L10.5301 4.19903C11.7796 2.0167 14.0816 0.659214 16.5909 0.601225L16.7585 0.599289H31.4461ZM34.4686 1.01269C37.8932 -0.141093 41.6517 1.23419 43.5276 4.30538L43.6142 4.45058L53.2083 21.0648C53.7309 21.9462 54 22.9738 54 23.9995C54 24.9611 53.7635 25.9228 53.3033 26.7655L53.2083 26.9324L43.4699 43.8001C42.2204 45.9824 39.9184 47.3399 37.4091 47.3979L37.2415 47.3998H22.554C23.5668 46.674 24.4373 45.758 25.1045 44.6823L25.2352 44.465L27.5226 40.5045L37.0446 23.9995L28.0257 8.39157L30.1863 4.66703C31.1575 2.99197 32.6356 1.625 34.4686 1.01269Z" fill="current"/>
</svg>
