<svg width="24" height="24" viewBox="0 0 24 24" fill="none" xmlns="http://www.w3.org/2000/svg">
<rect width="24" height="24" fill="#0B4B33"/>
<path d="M10.4501 4.99982H12.9782V16.3528C11.6813 16.5917 10.7291 16.6872 9.695 16.6872C6.60877 16.6872 5 15.3336 5 12.7374C5 10.237 6.70737 8.61245 9.35028 8.61245C9.76066 8.61245 10.0725 8.6444 10.4502 8.73975L10.4501 4.99982ZM10.4501 10.7145C10.1546 10.6191 9.90839 10.5872 9.59651 10.5872C8.31604 10.5872 7.57726 11.3517 7.57726 12.6894C7.57726 13.9956 8.28321 14.7122 9.58009 14.7122C9.85904 14.7122 10.089 14.6963 10.4501 14.6487V10.7145Z" fill="white"/>
<path d="M17 8.78744V14.4735C17 16.4323 16.8523 17.3719 16.4091 18.1843C15.9986 18.9648 15.4568 19.4583 14.3406 19.9998L11.993 18.9168C13.1093 18.4072 13.651 17.9616 13.9957 17.2764C14.357 16.5757 14.472 15.7632 14.472 13.6291V8.78744H17ZM14.472 5.01288H17V7.52942H14.472V5.01288Z" fill="white"/>
</svg>
