<svg width="24" height="24" viewBox="0 0 24 24" fill="none" xmlns="http://www.w3.org/2000/svg">
<rect width="24" height="24" fill="#007FFF"/>
<g clip-path="url(#clip0_55_415)">
<path d="M4 12.6283V5.08661L10 8.85745V11.3713L6 8.85745V13.8852L4 12.6283Z" fill="white"/>
<path d="M10 8.85751L16 5.08667V12.6284L12 15.1423L10 13.8853L14 11.3714V8.85751L10 11.3714V8.85751Z" fill="white"/>
<path d="M10 13.8854V16.3993L14 18.9132V16.3993L10 13.8854Z" fill="white"/>
<path d="M14 18.9131L20 15.1423V10.1145L18 11.3714V13.8853L14 16.3992V18.9131ZM18 8.85751V6.34362L20 5.08667V7.60057L18 8.85751Z" fill="white"/>
</g>
<defs>
<clipPath id="clip0_55_415">
<rect width="16" height="13.8293" fill="white" transform="translate(4 5.08533)"/>
</clipPath>
</defs>
</svg>
