<svg width="24" height="24" viewBox="0 0 24 24" fill="none" xmlns="http://www.w3.org/2000/svg">
<rect width="24" height="24" fill="#D61F00"/>
<path d="M15.5666 9.88324C15.2663 9.88463 14.9796 9.91024 14.7273 9.95489C13.984 10.0862 13.8491 10.361 13.8491 10.8679V11.5373H15.6055V11.7604H13.8491H13.1899C12.6795 11.7604 12.2325 12.0672 12.0927 12.6509C11.9314 13.3199 11.9243 13.7374 12.0927 14.436C12.2175 14.9559 12.5157 15.3264 13.0261 15.3264H13.63V14.524C13.63 13.9443 14.1316 13.4329 14.7273 13.4329H16.4816C16.97 13.4329 17.3598 13.0308 17.3598 12.5404V10.8679C17.3598 10.3919 16.9583 10.0343 16.4816 9.95489C16.1799 9.90466 15.8668 9.88184 15.5666 9.88324ZM14.6167 10.4216C14.7982 10.4216 14.9463 10.5722 14.9463 10.7573C14.9463 10.9418 14.7982 11.091 14.6167 11.091C14.4347 11.091 14.2871 10.9418 14.2871 10.7573C14.2871 10.5722 14.4347 10.4216 14.6167 10.4216Z" fill="white"/>
<path d="M17.5788 11.7603V12.5403C17.5788 13.1449 17.0662 13.6539 16.4816 13.6539H14.7272C14.2467 13.6539 13.849 14.0652 13.849 14.5464V16.2189C13.849 16.6949 14.263 16.9748 14.7272 17.1114C15.2832 17.2749 15.8164 17.3044 16.4816 17.1114C16.9238 16.9834 17.3598 16.7257 17.3598 16.2189V15.5495H15.6054V15.3263H17.3598H18.238C18.7485 15.3263 18.9387 14.9703 19.1162 14.4359C19.2996 13.8857 19.2918 13.3566 19.1162 12.6508C18.99 12.1426 18.7491 11.7603 18.238 11.7603H17.5788ZM16.5921 15.9957C16.7742 15.9957 16.9217 16.1449 16.9217 16.3294C16.9217 16.5146 16.7742 16.6651 16.5921 16.6651C16.4107 16.6651 16.2626 16.5146 16.2626 16.3294C16.2626 16.1449 16.4107 15.9957 16.5921 15.9957Z" fill="white"/>
<path fill-rule="evenodd" clip-rule="evenodd" d="M13.4238 17.359C12.8812 17.4155 12.4066 17.4437 12 17.4437C11.3926 17.4437 10.6333 17.3807 9.72222 17.2548C8.81111 17.1289 7.93333 16.9252 7.08889 16.6437C6.24444 16.3622 5.51852 15.9955 4.91111 15.5437C4.3037 15.0918 4 14.54 4 13.8881V16.1103C4 16.7622 4.3037 17.314 4.91111 17.7659C5.51852 18.2178 6.24444 18.5844 7.08889 18.8659C7.93333 19.1474 8.81111 19.3511 9.72222 19.477C10.6333 19.6029 11.3926 19.6659 12 19.6659C12.6074 19.6659 13.3667 19.6029 14.2778 19.477C15.1889 19.3511 16.0667 19.1474 16.9111 18.8659C17.7556 18.5844 18.4815 18.2178 19.0889 17.7659C19.6963 17.314 20 16.7622 20 16.1103V13.8881C20 14.1735 19.9418 14.4397 19.8254 14.6867C19.302 16.5471 17.5929 17.9108 15.5653 17.9108C14.7885 17.9108 14.0584 17.7106 13.4238 17.359Z" fill="white"/>
<path fill-rule="evenodd" clip-rule="evenodd" d="M11.6429 15.536C11.3219 14.9231 11.1403 14.2257 11.1403 13.4858C11.1403 13.419 11.1418 13.3525 11.1447 13.2864C10.7209 13.2556 10.2467 13.204 9.72222 13.1315C8.81111 13.0056 7.93333 12.8019 7.08889 12.5204C6.24444 12.2389 5.51852 11.8722 4.91111 11.4204C4.3037 10.9685 4 10.4167 4 9.76483V11.9871C4 12.6389 4.3037 13.1908 4.91111 13.6426C5.51852 14.0945 6.24444 14.4611 7.08889 14.7426C7.93333 15.0241 8.81111 15.2278 9.72222 15.3537C10.4628 15.4561 11.103 15.5168 11.6429 15.536ZM19.9013 12.5983C19.9671 12.4054 20 12.2017 20 11.9871V9.76483C20 10.3137 19.7847 10.7916 19.3541 11.1987C19.6113 11.6237 19.7989 12.0955 19.9013 12.5983Z" fill="white"/>
<path fill-rule="evenodd" clip-rule="evenodd" d="M11.6395 11.4422C12.3777 10.027 13.8587 9.06085 15.5653 9.06085C16.6243 9.06085 17.5964 9.43285 18.358 10.0533C19.4527 9.43114 20 8.70995 20 7.88972C20 6.91195 19.2222 6.07491 17.6667 5.37861C16.1111 4.68232 14.2222 4.33417 12 4.33417C9.77778 4.33417 7.88889 4.68232 6.33333 5.37861C4.77778 6.07491 4 6.91195 4 7.88972C4 8.8675 4.77778 9.70454 6.33333 10.4008C7.80408 11.0592 9.57279 11.4063 11.6395 11.4422ZM6.7567 8.07645C6.89981 8.11557 7.07269 8.15881 7.14017 8.16957L7.14007 8.16947C7.73161 8.26813 8.07585 8.16274 8.41074 7.78058C8.78888 7.35115 8.78214 6.94064 8.39063 6.67061C8.04216 6.43015 7.99087 6.4383 7.54385 6.79884L7.1455 7.12166L6.99967 6.94466C6.58503 6.44242 6.78899 5.86838 7.3764 5.88327C7.62893 5.89 7.95436 5.99128 8.21363 6.14394C8.30545 6.19794 8.3865 6.23566 8.39465 6.22761C8.41356 6.2087 8.71194 5.45525 8.71194 5.42548C8.71194 5.41331 8.67825 5.40255 8.63772 5.40255C8.59719 5.40255 8.5634 5.43222 8.5634 5.46601C8.5634 5.4998 8.52961 5.57674 8.48918 5.63486L8.41486 5.74147L8.15832 5.62139C7.81799 5.46199 7.54656 5.46601 7.20493 5.63346C6.70793 5.87653 6.30284 6.32888 6.30425 6.64094C6.30556 6.7745 6.50267 7.18904 6.65533 7.37811L6.76334 7.51186L6.62969 7.75765L6.49593 8.00344L6.7567 8.07645ZM8.11246 7.09873C8.32315 7.32289 8.33662 7.60519 8.14223 7.75775C7.98283 7.88195 7.75323 7.88597 7.38736 7.7672L7.34623 7.75408C7.09949 7.67542 6.97488 7.63569 6.96248 7.57356C6.94982 7.51016 7.05396 7.42344 7.26435 7.24825L7.26435 7.24825L7.29957 7.21891C7.7655 6.83001 7.84776 6.81784 8.11246 7.09873ZM11.1104 8.9177C11.4155 9.05005 11.772 9.19728 11.9045 9.24585C12.0368 9.29453 12.2676 9.33365 12.4175 9.33495C12.6403 9.33636 12.7159 9.31474 12.8348 9.21478C12.9145 9.1486 13.0049 9.01625 13.0361 8.92313C13.109 8.7057 13.0576 8.32757 12.9564 8.32757C12.9023 8.32757 12.8943 8.35462 12.9212 8.43568C13.0306 8.7584 12.8523 9.00147 12.5054 9.00147C12.2203 9.00147 12.0016 8.93389 11.2548 8.6166C10.924 8.47621 10.5648 8.3505 10.4568 8.33843C10.2865 8.31952 10.2352 8.33843 10.0814 8.47349C9.89231 8.63953 9.73562 8.89205 9.78832 8.94475C9.80592 8.96225 9.86797 8.91911 9.92469 8.85022C10.1705 8.55173 10.2866 8.55847 11.1104 8.9177ZM9.23731 7.35669C9.39671 7.67538 9.67357 7.94812 9.9801 8.09133C10.5621 8.36146 11.3008 7.98463 11.6505 7.23641C11.9489 6.59911 11.826 6.01441 11.3304 5.70778C11.1211 5.57955 11.0523 5.56195 10.7296 5.56195C10.2826 5.56195 9.95033 5.70647 9.54394 6.07787C9.06041 6.51946 8.98217 6.8462 9.23731 7.35669ZM11.3291 6.66387C11.394 7.09873 11.2359 7.62269 11.0064 7.73613C10.6715 7.90086 10.3487 7.79828 9.97336 7.40526C9.43583 6.8449 9.44397 6.22238 9.99086 5.98876C10.523 5.76178 11.2481 6.12785 11.3291 6.66387ZM12.2379 8.10069C12.1326 8.12643 12.0476 8.16686 12.0476 8.18989C12.0476 8.21282 12.5471 8.23173 13.1575 8.23173H14.2676L14.3 7.91433C14.3176 7.73874 14.3458 7.54565 14.3634 7.48229C14.4013 7.34592 14.2933 7.32159 14.2514 7.45655C14.1122 7.90629 13.9353 8.02777 13.4222 8.02777C13.1737 8.02777 13.109 8.01028 13.0657 7.92922C13.0346 7.87119 13.013 7.41874 13.013 6.81784C13.013 5.73483 13.0144 5.73081 13.2804 5.66463C13.5897 5.58629 13.3831 5.53902 12.7335 5.53902C12.084 5.53902 11.8612 5.59031 12.1961 5.66463C12.2785 5.68344 12.3689 5.72668 12.3987 5.76188C12.4809 5.86175 12.5134 6.60856 12.4689 7.36755L12.4283 8.05342L12.2379 8.10069ZM14.6727 8.04539C14.6079 8.07646 14.5687 8.11699 14.5687 8.15742C14.5687 8.21816 14.5889 8.22098 14.9657 8.21816C15.3168 8.21816 15.3655 8.21153 15.3776 8.16285C15.3884 8.12102 15.3628 8.1007 15.2696 8.07506C15.0832 8.02517 15.0872 7.92119 15.2872 7.4809L15.3938 7.24598H16.5093L16.6564 7.59304C16.7374 7.78341 16.8036 7.96162 16.8036 7.98867C16.8036 8.01703 16.755 8.05484 16.6915 8.07506C16.6227 8.09809 16.5795 8.13318 16.5795 8.16557C16.5795 8.21414 16.6362 8.21957 17.1372 8.21957C17.6368 8.21957 17.6949 8.21414 17.6949 8.16688C17.6949 8.13721 17.6423 8.08722 17.5747 8.05474C17.464 8.00084 17.4275 7.9414 17.098 7.27836C16.9009 6.88403 16.6294 6.31683 16.4944 6.01845L16.3706 5.74751C16.2962 5.58449 16.2454 5.47338 16.2445 5.47156C16.2432 5.46884 16.1757 5.47427 16.0946 5.48373C15.9542 5.49992 15.9461 5.50666 15.9083 5.63086C15.8597 5.79428 15.3465 6.88413 15.0211 7.51872C14.8158 7.91978 14.7592 8.00486 14.6727 8.04539ZM15.9569 6.10483C15.9961 6.11429 16.416 7.03126 16.3971 7.06495C16.3769 7.09874 15.4937 7.09472 15.4937 7.06093C15.4937 6.99345 15.9286 6.09679 15.9569 6.10483Z" fill="white"/>
</svg>
